<ttFont>
    <TTGlyph name="A" xMin="20" yMin="-23" xMax="639" yMax="751">
      <contour>
        <pt x="306" y="341" on="1"/>
        <pt x="360" y="341" on="0"/>
        <pt x="438" y="334" on="0"/>
        <pt x="461" y="331" on="1"/>
        <pt x="456" y="345" on="0"/>
        <pt x="449" y="367" on="0"/>
        <pt x="446" y="375" on="1"/>
        <pt x="440" y="399" on="0"/>
        <pt x="418" y="468" on="0"/>
        <pt x="391" y="545" on="0"/>
        <pt x="363" y="622" on="0"/>
        <pt x="350" y="654" on="1"/>
        <pt x="335" y="622" on="0"/>
        <pt x="302" y="545" on="0"/>
        <pt x="271" y="468" on="0"/>
        <pt x="244" y="398" on="0"/>
        <pt x="236" y="374" on="1"/>
        <pt x="234" y="366" on="0"/>
        <pt x="227" y="349" on="0"/>
        <pt x="223" y="338" on="1"/>
        <pt x="263" y="341" on="0"/>
      </contour>
      <contour>
        <pt x="500" y="390" on="1"/>
        <pt x="505" y="371" on="0"/>
        <pt x="530" y="301" on="0"/>
        <pt x="560" y="218" on="0"/>
        <pt x="593" y="132" on="0"/>
        <pt x="619" y="61" on="0"/>
        <pt x="637" y="16" on="0"/>
        <pt x="637" y="15" on="1"/>
        <pt x="639" y="11" on="0"/>
        <pt x="639" y="5" on="1"/>
        <pt x="639" y="-14" on="0"/>
        <pt x="621" y="-21" on="1"/>
        <pt x="618" y="-23" on="0"/>
        <pt x="611" y="-23" on="1"/>
        <pt x="603" y="-23" on="0"/>
        <pt x="588" y="-14" on="0"/>
        <pt x="585" y="-5" on="1"/>
        <pt x="584" y="-2" on="0"/>
        <pt x="562" y="53" on="0"/>
        <pt x="531" y="133" on="0"/>
        <pt x="493" y="228" on="0"/>
        <pt x="475" y="271" on="1"/>
        <pt x="455" y="274" on="0"/>
        <pt x="429" y="278" on="1"/>
        <pt x="407" y="280" on="0"/>
        <pt x="344" y="285" on="0"/>
        <pt x="306" y="285" on="1"/>
        <pt x="280" y="285" on="0"/>
        <pt x="225" y="282" on="0"/>
        <pt x="199" y="280" on="1"/>
        <pt x="181" y="237" on="0"/>
        <pt x="139" y="139" on="0"/>
        <pt x="101" y="55" on="0"/>
        <pt x="75" y="-4" on="0"/>
        <pt x="74" y="-7" on="1"/>
        <pt x="66" y="-23" on="0"/>
        <pt x="48" y="-23" on="1"/>
        <pt x="41" y="-23" on="0"/>
        <pt x="37" y="-21" on="1"/>
        <pt x="20" y="-13" on="0"/>
        <pt x="20" y="5" on="1"/>
        <pt x="20" y="10" on="0"/>
        <pt x="23" y="16" on="1"/>
        <pt x="23" y="17" on="0"/>
        <pt x="45" y="66" on="0"/>
        <pt x="78" y="141" on="0"/>
        <pt x="118" y="232" on="0"/>
        <pt x="136" y="274" on="1"/>
        <pt x="108" y="271" on="0"/>
        <pt x="72" y="266" on="0"/>
        <pt x="69" y="266" on="1"/>
        <pt x="58" y="266" on="0"/>
        <pt x="43" y="280" on="0"/>
        <pt x="41" y="294" on="1"/>
        <pt x="41" y="305" on="0"/>
        <pt x="54" y="320" on="0"/>
        <pt x="65" y="322" on="1"/>
        <pt x="67" y="322" on="0"/>
        <pt x="120" y="329" on="0"/>
        <pt x="160" y="333" on="1"/>
        <pt x="168" y="351" on="0"/>
        <pt x="179" y="381" on="0"/>
        <pt x="183" y="392" on="1"/>
        <pt x="192" y="419" on="0"/>
        <pt x="227" y="508" on="0"/>
        <pt x="267" y="605" on="0"/>
        <pt x="308" y="696" on="0"/>
        <pt x="323" y="726" on="1"/>
        <pt x="325" y="742" on="0"/>
        <pt x="339" y="749" on="1"/>
        <pt x="343" y="751" on="0"/>
        <pt x="352" y="751" on="1"/>
        <pt x="360" y="751" on="0"/>
        <pt x="366" y="748" on="1"/>
        <pt x="379" y="741" on="0"/>
        <pt x="381" y="725" on="1"/>
        <pt x="394" y="695" on="0"/>
        <pt x="429" y="603" on="0"/>
        <pt x="464" y="506" on="0"/>
        <pt x="492" y="417" on="0"/>
      </contour>
    </TTGlyph>
    <TTGlyph name="AE" xMin="-10" yMin="-23" xMax="1018" yMax="761">
      <contour>
        <pt x="357" y="341" on="1"/>
        <pt x="404" y="341" on="0"/>
        <pt x="476" y="335" on="0"/>
        <pt x="499" y="332" on="1"/>
        <pt x="498" y="348" on="0"/>
        <pt x="497" y="373" on="0"/>
        <pt x="497" y="383" on="1"/>
        <pt x="497" y="407" on="0"/>
        <pt x="494" y="478" on="0"/>
        <pt x="489" y="556" on="0"/>
        <pt x="482" y="633" on="0"/>
        <pt x="478" y="665" on="1"/>
        <pt x="456" y="633" on="0"/>
        <pt x="402" y="553" on="0"/>
        <pt x="350" y="470" on="0"/>
        <pt x="304" y="395" on="0"/>
        <pt x="289" y="369" on="1"/>
        <pt x="285" y="363" on="0"/>
        <pt x="276" y="347" on="0"/>
        <pt x="270" y="338" on="1"/>
        <pt x="313" y="341" on="0"/>
      </contour>
      <contour>
        <pt x="995" y="37" on="1"/>
        <pt x="1006" y="35" on="0"/>
        <pt x="1018" y="18" on="0"/>
        <pt x="1017" y="4" on="1"/>
        <pt x="1012" y="-19" on="0"/>
        <pt x="984" y="-18" on="1"/>
        <pt x="964" y="-15" on="0"/>
        <pt x="938" y="-12" on="1"/>
        <pt x="915" y="-10" on="0"/>
        <pt x="853" y="-5" on="0"/>
        <pt x="815" y="-5" on="1"/>
        <pt x="776" y="-5" on="0"/>
        <pt x="694" y="-11" on="0"/>
        <pt x="625" y="-17" on="0"/>
        <pt x="580" y="-23" on="0"/>
        <pt x="578" y="-23" on="1"/>
        <pt x="571" y="-23" on="0"/>
        <pt x="568" y="-22" on="1"/>
        <pt x="566" y="-22" on="0"/>
        <pt x="562" y="-23" on="0"/>
        <pt x="558" y="-23" on="1"/>
        <pt x="547" y="-23" on="0"/>
        <pt x="532" y="-9" on="0"/>
        <pt x="530" y="2" on="1"/>
        <pt x="530" y="5" on="0"/>
        <pt x="524" y="59" on="0"/>
        <pt x="516" y="138" on="0"/>
        <pt x="507" y="232" on="0"/>
        <pt x="504" y="275" on="1"/>
        <pt x="483" y="278" on="0"/>
        <pt x="408" y="285" on="0"/>
        <pt x="357" y="285" on="1"/>
        <pt x="326" y="285" on="0"/>
        <pt x="262" y="281" on="0"/>
        <pt x="233" y="279" on="1"/>
        <pt x="205" y="235" on="0"/>
        <pt x="140" y="137" on="0"/>
        <pt x="83" y="51" on="0"/>
        <pt x="43" y="-8" on="0"/>
        <pt x="41" y="-11" on="1"/>
        <pt x="33" y="-23" on="0"/>
        <pt x="18" y="-23" on="1"/>
        <pt x="9" y="-23" on="0"/>
        <pt x="2" y="-19" on="1"/>
        <pt x="-10" y="-10" on="0"/>
        <pt x="-10" y="5" on="1"/>
        <pt x="-10" y="15" on="0"/>
        <pt x="-5" y="20" on="1"/>
        <pt x="-5" y="21" on="0"/>
        <pt x="27" y="68" on="0"/>
        <pt x="75" y="141" on="0"/>
        <pt x="134" y="229" on="0"/>
        <pt x="161" y="271" on="1"/>
        <pt x="144" y="269" on="0"/>
        <pt x="123" y="266" on="0"/>
        <pt x="119" y="266" on="1"/>
        <pt x="109" y="266" on="0"/>
        <pt x="94" y="280" on="0"/>
        <pt x="92" y="294" on="1"/>
        <pt x="92" y="305" on="0"/>
        <pt x="105" y="320" on="0"/>
        <pt x="116" y="322" on="1"/>
        <pt x="118" y="322" on="0"/>
        <pt x="165" y="328" on="0"/>
        <pt x="200" y="332" on="1"/>
        <pt x="214" y="352" on="0"/>
        <pt x="234" y="385" on="0"/>
        <pt x="240" y="396" on="1"/>
        <pt x="256" y="425" on="0"/>
        <pt x="314" y="519" on="0"/>
        <pt x="379" y="620" on="0"/>
        <pt x="442" y="713" on="0"/>
        <pt x="463" y="740" on="1"/>
        <pt x="467" y="746" on="0"/>
        <pt x="479" y="751" on="0"/>
        <pt x="485" y="751" on="1"/>
        <pt x="497" y="751" on="1"/>
        <pt x="519" y="751" on="0"/>
        <pt x="524" y="730" on="1"/>
        <pt x="533" y="741" on="0"/>
        <pt x="543" y="742" on="1"/>
        <pt x="545" y="742" on="0"/>
        <pt x="591" y="748" on="0"/>
        <pt x="660" y="755" on="0"/>
        <pt x="743" y="761" on="0"/>
        <pt x="784" y="761" on="1"/>
        <pt x="866" y="761" on="0"/>
        <pt x="963" y="747" on="0"/>
        <pt x="965" y="746" on="1"/>
        <pt x="975" y="744" on="0"/>
        <pt x="988" y="727" on="0"/>
        <pt x="987" y="713" on="1"/>
        <pt x="982" y="691" on="0"/>
        <pt x="954" y="691" on="1"/>
        <pt x="953" y="691" on="0"/>
        <pt x="862" y="705" on="0"/>
        <pt x="784" y="705" on="1"/>
        <pt x="745" y="705" on="0"/>
        <pt x="663" y="699" on="0"/>
        <pt x="595" y="692" on="0"/>
        <pt x="549" y="686" on="0"/>
        <pt x="547" y="686" on="1"/>
        <pt x="539" y="686" on="0"/>
        <pt x="531" y="691" on="1"/>
        <pt x="535" y="658" on="0"/>
        <pt x="543" y="572" on="0"/>
        <pt x="549" y="486" on="0"/>
        <pt x="553" y="409" on="0"/>
        <pt x="553" y="384" on="1"/>
        <pt x="562" y="385" on="0"/>
        <pt x="602" y="390" on="0"/>
        <pt x="658" y="395" on="0"/>
        <pt x="724" y="399" on="0"/>
        <pt x="759" y="401" on="1"/>
        <pt x="770" y="401" on="0"/>
        <pt x="786" y="385" on="0"/>
        <pt x="787" y="373" on="1"/>
        <pt x="787" y="362" on="0"/>
        <pt x="771" y="345" on="0"/>
        <pt x="760" y="345" on="1"/>
        <pt x="723" y="343" on="0"/>
        <pt x="653" y="338" on="0"/>
        <pt x="596" y="333" on="0"/>
        <pt x="559" y="328" on="0"/>
        <pt x="556" y="328" on="1"/>
        <pt x="557" y="311" on="1"/>
        <pt x="559" y="308" on="0"/>
        <pt x="560" y="300" on="0"/>
        <pt x="558" y="291" on="1"/>
        <pt x="561" y="258" on="0"/>
        <pt x="568" y="184" on="0"/>
        <pt x="575" y="113" on="0"/>
        <pt x="581" y="53" on="0"/>
        <pt x="583" y="34" on="1"/>
        <pt x="595" y="35" on="0"/>
        <pt x="644" y="41" on="0"/>
        <pt x="708" y="47" on="0"/>
        <pt x="780" y="51" on="0"/>
        <pt x="815" y="51" on="1"/>
        <pt x="897" y="51" on="0"/>
        <pt x="993" y="37" on="0"/>
      </contour>
    </TTGlyph>
    <TTGlyph name="Aacute" xMin="20" yMin="-23" xMax="639" yMax="1012">
      <component glyphName="A" x="0" y="0" flags="0x204"/>
      <component glyphName="acute" x="-9" y="338" flags="0x4"/>
    </TTGlyph>
    <TTGlyph name="Acircumflex" xMin="20" yMin="-23" xMax="639" yMax="979">
      <component glyphName="A" x="0" y="0" flags="0x204"/>
      <component glyphName="circumflex" x="0" y="338" flags="0x4"/>
    </TTGlyph>
    <TTGlyph name="Adieresis" xMin="20" yMin="-23" xMax="639" yMax="903">
      <component glyphName="A" x="0" y="0" flags="0x204"/>
      <component glyphName="dieresis" x="-9" y="256" flags="0x4"/>
    </TTGlyph>
    <TTGlyph name="Agrave" xMin="20" yMin="-23" xMax="639" yMax="1020">
      <component glyphName="A" x="0" y="0" flags="0x204"/>
      <component glyphName="grave" x="-91" y="348" flags="0x4"/>
    </TTGlyph>
    <TTGlyph name="Aring" xMin="20" yMin="-23" xMax="639" yMax="952">
      <contour>
        <pt x="306" y="341" on="1"/>
        <pt x="360" y="341" on="0"/>
        <pt x="438" y="334" on="0"/>
        <pt x="461" y="331" on="1"/>
        <pt x="456" y="345" on="0"/>
        <pt x="449" y="367" on="0"/>
        <pt x="446" y="375" on="1"/>
        <pt x="440" y="399" on="0"/>
        <pt x="418" y="468" on="0"/>
        <pt x="391" y="545" on="0"/>
        <pt x="363" y="622" on="0"/>
        <pt x="350" y="654" on="1"/>
        <pt x="335" y="622" on="0"/>
        <pt x="302" y="545" on="0"/>
        <pt x="271" y="468" on="0"/>
        <pt x="244" y="398" on="0"/>
        <pt x="236" y="374" on="1"/>
        <pt x="234" y="366" on="0"/>
        <pt x="227" y="349" on="0"/>
        <pt x="223" y="338" on="1"/>
        <pt x="263" y="341" on="0"/>
      </contour>
      <contour>
        <pt x="405" y="810" on="1"/>
        <pt x="411" y="822" on="0"/>
        <pt x="411" y="840" on="1"/>
        <pt x="411" y="861" on="0"/>
        <pt x="401" y="877" on="1"/>
        <pt x="390" y="893" on="0"/>
        <pt x="368" y="895" on="1"/>
        <pt x="348" y="895" on="0"/>
        <pt x="324" y="884" on="0"/>
        <pt x="311" y="864" on="0"/>
        <pt x="306" y="841" on="0"/>
        <pt x="306" y="829" on="1"/>
        <pt x="306" y="815" on="0"/>
        <pt x="315" y="792" on="0"/>
        <pt x="328" y="776" on="0"/>
        <pt x="342" y="766" on="0"/>
        <pt x="347" y="766" on="1"/>
        <pt x="362" y="766" on="0"/>
        <pt x="397" y="788" on="0"/>
      </contour>
      <contour>
        <pt x="372" y="951" on="1"/>
        <pt x="423" y="948" on="0"/>
        <pt x="449" y="907" on="1"/>
        <pt x="459" y="892" on="0"/>
        <pt x="467" y="857" on="0"/>
        <pt x="467" y="840" on="1"/>
        <pt x="467" y="826" on="0"/>
        <pt x="462" y="801" on="0"/>
        <pt x="458" y="790" on="1"/>
        <pt x="436" y="736" on="0"/>
        <pt x="384" y="717" on="1"/>
        <pt x="398" y="685" on="0"/>
        <pt x="432" y="595" on="0"/>
        <pt x="465" y="502" on="0"/>
        <pt x="493" y="417" on="0"/>
        <pt x="500" y="390" on="1"/>
        <pt x="505" y="371" on="0"/>
        <pt x="530" y="301" on="0"/>
        <pt x="560" y="218" on="0"/>
        <pt x="593" y="132" on="0"/>
        <pt x="619" y="61" on="0"/>
        <pt x="637" y="16" on="0"/>
        <pt x="637" y="15" on="1"/>
        <pt x="639" y="11" on="0"/>
        <pt x="639" y="5" on="1"/>
        <pt x="639" y="-14" on="0"/>
        <pt x="621" y="-21" on="1"/>
        <pt x="618" y="-23" on="0"/>
        <pt x="611" y="-23" on="1"/>
        <pt x="603" y="-23" on="0"/>
        <pt x="588" y="-14" on="0"/>
        <pt x="585" y="-5" on="1"/>
        <pt x="584" y="-2" on="0"/>
        <pt x="563" y="53" on="0"/>
        <pt x="532" y="133" on="0"/>
        <pt x="496" y="228" on="0"/>
        <pt x="481" y="271" on="1"/>
        <pt x="476" y="271" on="0"/>
        <pt x="384" y="285" on="0"/>
        <pt x="306" y="285" on="1"/>
        <pt x="280" y="285" on="0"/>
        <pt x="225" y="282" on="0"/>
        <pt x="199" y="280" on="1"/>
        <pt x="181" y="237" on="0"/>
        <pt x="139" y="139" on="0"/>
        <pt x="101" y="55" on="0"/>
        <pt x="75" y="-4" on="0"/>
        <pt x="74" y="-7" on="1"/>
        <pt x="66" y="-23" on="0"/>
        <pt x="48" y="-23" on="1"/>
        <pt x="41" y="-23" on="0"/>
        <pt x="37" y="-21" on="1"/>
        <pt x="20" y="-13" on="0"/>
        <pt x="20" y="5" on="1"/>
        <pt x="20" y="10" on="0"/>
        <pt x="23" y="16" on="1"/>
        <pt x="23" y="17" on="0"/>
        <pt x="45" y="66" on="0"/>
        <pt x="78" y="141" on="0"/>
        <pt x="118" y="232" on="0"/>
        <pt x="136" y="274" on="1"/>
        <pt x="122" y="272" on="0"/>
        <pt x="99" y="269" on="0"/>
        <pt x="91" y="268" on="1"/>
        <pt x="81" y="266" on="0"/>
        <pt x="73" y="266" on="1"/>
        <pt x="59" y="266" on="0"/>
        <pt x="43" y="279" on="0"/>
        <pt x="41" y="290" on="1"/>
        <pt x="41" y="304" on="0"/>
        <pt x="54" y="320" on="0"/>
        <pt x="65" y="322" on="1"/>
        <pt x="67" y="322" on="0"/>
        <pt x="120" y="329" on="0"/>
        <pt x="160" y="333" on="1"/>
        <pt x="168" y="351" on="0"/>
        <pt x="179" y="381" on="0"/>
        <pt x="183" y="392" on="1"/>
        <pt x="192" y="418" on="0"/>
        <pt x="225" y="502" on="0"/>
        <pt x="263" y="595" on="0"/>
        <pt x="302" y="684" on="0"/>
        <pt x="318" y="716" on="1"/>
        <pt x="289" y="729" on="0"/>
        <pt x="250" y="792" on="0"/>
        <pt x="250" y="829" on="1"/>
        <pt x="250" y="886" on="0"/>
        <pt x="310" y="952" on="0"/>
        <pt x="361" y="952" on="1"/>
        <pt x="368" y="952" on="0"/>
      </contour>
    </TTGlyph>
    <TTGlyph name="Atilde" xMin="20" yMin="-23" xMax="639" yMax="917">
      <component glyphName="A" x="0" y="0" flags="0x204"/>
      <component glyphName="tilde" x="-9" y="276" flags="0x4"/>
    </TTGlyph>
    <TTGlyph name="B" xMin="41" yMin="-17" xMax="575" yMax="765">
      <contour>
        <pt x="519" y="208" on="1"/>
        <pt x="519" y="225" on="0"/>
        <pt x="502" y="270" on="0"/>
        <pt x="482" y="292" on="1"/>
        <pt x="471" y="303" on="0"/>
        <pt x="441" y="325" on="0"/>
        <pt x="400" y="344" on="0"/>
        <pt x="346" y="357" on="0"/>
        <pt x="312" y="358" on="1"/>
        <pt x="296" y="357" on="0"/>
        <pt x="263" y="356" on="0"/>
        <pt x="246" y="356" on="1"/>
        <pt x="226" y="356" on="0"/>
        <pt x="186" y="357" on="0"/>
        <pt x="166" y="358" on="1"/>
        <pt x="128" y="358" on="1"/>
        <pt x="130" y="324" on="0"/>
        <pt x="138" y="232" on="0"/>
        <pt x="147" y="139" on="0"/>
        <pt x="155" y="60" on="0"/>
        <pt x="157" y="39" on="1"/>
        <pt x="190" y="40" on="0"/>
        <pt x="265" y="43" on="0"/>
        <pt x="333" y="47" on="0"/>
        <pt x="387" y="53" on="0"/>
        <pt x="399" y="56" on="1"/>
        <pt x="439" y="68" on="0"/>
        <pt x="485" y="96" on="0"/>
        <pt x="508" y="129" on="0"/>
        <pt x="515" y="167" on="0"/>
        <pt x="518" y="190" on="1"/>
        <pt x="519" y="201" on="1"/>
      </contour>
      <contour>
        <pt x="361" y="682" on="1"/>
        <pt x="313" y="695" on="0"/>
        <pt x="244" y="705" on="0"/>
        <pt x="216" y="705" on="1"/>
        <pt x="187" y="705" on="0"/>
        <pt x="135" y="696" on="0"/>
        <pt x="106" y="689" on="1"/>
        <pt x="110" y="658" on="0"/>
        <pt x="117" y="583" on="0"/>
        <pt x="122" y="508" on="0"/>
        <pt x="126" y="439" on="0"/>
        <pt x="126" y="414" on="1"/>
        <pt x="168" y="414" on="1"/>
        <pt x="187" y="413" on="0"/>
        <pt x="225" y="412" on="0"/>
        <pt x="245" y="412" on="1"/>
        <pt x="251" y="412" on="0"/>
        <pt x="265" y="412" on="0"/>
        <pt x="276" y="414" on="1"/>
        <pt x="281" y="414" on="0"/>
        <pt x="290" y="415" on="0"/>
        <pt x="295" y="415" on="1"/>
        <pt x="299" y="415" on="0"/>
        <pt x="306" y="414" on="0"/>
        <pt x="311" y="414" on="1"/>
        <pt x="327" y="416" on="0"/>
        <pt x="356" y="419" on="0"/>
        <pt x="367" y="423" on="1"/>
        <pt x="397" y="431" on="0"/>
        <pt x="431" y="454" on="0"/>
        <pt x="449" y="483" on="0"/>
        <pt x="455" y="515" on="0"/>
        <pt x="457" y="533" on="1"/>
        <pt x="458" y="551" on="1"/>
        <pt x="458" y="566" on="0"/>
        <pt x="447" y="606" on="0"/>
        <pt x="423" y="644" on="0"/>
        <pt x="386" y="675" on="0"/>
      </contour>
      <contour>
        <pt x="434" y="390" on="1"/>
        <pt x="465" y="377" on="0"/>
        <pt x="508" y="346" on="0"/>
        <pt x="523" y="330" on="1"/>
        <pt x="552" y="298" on="0"/>
        <pt x="575" y="233" on="0"/>
        <pt x="575" y="207" on="1"/>
        <pt x="575" y="195" on="1"/>
        <pt x="573" y="184" on="1"/>
        <pt x="571" y="160" on="0"/>
        <pt x="561" y="109" on="0"/>
        <pt x="529" y="60" on="0"/>
        <pt x="468" y="17" on="0"/>
        <pt x="414" y="2" on="1"/>
        <pt x="401" y="-2" on="0"/>
        <pt x="352" y="-7" on="0"/>
        <pt x="293" y="-12" on="0"/>
        <pt x="230" y="-15" on="0"/>
        <pt x="176" y="-16" on="0"/>
        <pt x="137" y="-17" on="0"/>
        <pt x="131" y="-17" on="1"/>
        <pt x="120" y="-17" on="0"/>
        <pt x="103" y="0" on="0"/>
        <pt x="103" y="16" on="1"/>
        <pt x="103" y="19" on="0"/>
        <pt x="98" y="62" on="0"/>
        <pt x="92" y="127" on="0"/>
        <pt x="84" y="207" on="0"/>
        <pt x="77" y="288" on="0"/>
        <pt x="71" y="361" on="0"/>
        <pt x="70" y="387" on="1"/>
        <pt x="70" y="397" on="1"/>
        <pt x="70" y="422" on="0"/>
        <pt x="66" y="496" on="0"/>
        <pt x="61" y="577" on="0"/>
        <pt x="54" y="656" on="0"/>
        <pt x="50" y="688" on="1"/>
        <pt x="47" y="690" on="0"/>
        <pt x="43" y="699" on="0"/>
        <pt x="41" y="708" on="1"/>
        <pt x="41" y="717" on="0"/>
        <pt x="45" y="722" on="1"/>
        <pt x="43" y="727" on="0"/>
        <pt x="42" y="737" on="1"/>
        <pt x="42" y="747" on="0"/>
        <pt x="56" y="763" on="0"/>
        <pt x="70" y="765" on="1"/>
        <pt x="92" y="765" on="0"/>
        <pt x="97" y="744" on="1"/>
        <pt x="127" y="752" on="0"/>
        <pt x="183" y="761" on="0"/>
        <pt x="215" y="761" on="1"/>
        <pt x="246" y="761" on="0"/>
        <pt x="323" y="750" on="0"/>
        <pt x="375" y="736" on="1"/>
        <pt x="409" y="727" on="0"/>
        <pt x="461" y="685" on="0"/>
        <pt x="496" y="633" on="0"/>
        <pt x="514" y="576" on="0"/>
        <pt x="514" y="551" on="1"/>
        <pt x="514" y="548" on="0"/>
        <pt x="514" y="541" on="0"/>
        <pt x="513" y="538" on="1"/>
        <pt x="512" y="528" on="1"/>
        <pt x="510" y="512" on="0"/>
        <pt x="505" y="476" on="0"/>
        <pt x="489" y="439" on="0"/>
        <pt x="459" y="404" on="0"/>
      </contour>
    </TTGlyph>
    <TTGlyph name="C" xMin="31" yMin="-3" xMax="585" yMax="749">
      <contour>
        <pt x="537" y="118" on="1"/>
        <pt x="545" y="126" on="0"/>
        <pt x="557" y="126" on="1"/>
        <pt x="569" y="126" on="0"/>
        <pt x="576" y="119" on="1"/>
        <pt x="585" y="110" on="0"/>
        <pt x="585" y="98" on="1"/>
        <pt x="585" y="87" on="0"/>
        <pt x="577" y="79" on="1"/>
        <pt x="576" y="78" on="0"/>
        <pt x="547" y="52" on="0"/>
        <pt x="496" y="22" on="0"/>
        <pt x="424" y="-3" on="0"/>
        <pt x="379" y="-3" on="1"/>
        <pt x="326" y="-3" on="0"/>
        <pt x="205" y="38" on="0"/>
        <pt x="100" y="130" on="0"/>
        <pt x="31" y="277" on="0"/>
        <pt x="31" y="384" on="1"/>
        <pt x="31" y="417" on="0"/>
        <pt x="35" y="466" on="0"/>
        <pt x="44" y="505" on="0"/>
        <pt x="57" y="537" on="0"/>
        <pt x="66" y="552" on="1"/>
        <pt x="67" y="554" on="0"/>
        <pt x="94" y="599" on="0"/>
        <pt x="134" y="657" on="0"/>
        <pt x="185" y="712" on="0"/>
        <pt x="210" y="724" on="1"/>
        <pt x="239" y="737" on="0"/>
        <pt x="297" y="749" on="0"/>
        <pt x="323" y="749" on="1"/>
        <pt x="351" y="749" on="0"/>
        <pt x="372" y="743" on="1"/>
        <pt x="382" y="741" on="0"/>
        <pt x="414" y="730" on="0"/>
        <pt x="447" y="716" on="0"/>
        <pt x="475" y="700" on="0"/>
        <pt x="481" y="693" on="1"/>
        <pt x="489" y="682" on="0"/>
        <pt x="494" y="651" on="0"/>
        <pt x="494" y="637" on="1"/>
        <pt x="494" y="626" on="0"/>
        <pt x="478" y="609" on="0"/>
        <pt x="466" y="609" on="1"/>
        <pt x="455" y="609" on="0"/>
        <pt x="438" y="626" on="0"/>
        <pt x="438" y="637" on="1"/>
        <pt x="438" y="642" on="0"/>
        <pt x="438" y="654" on="0"/>
        <pt x="437" y="658" on="1"/>
        <pt x="427" y="663" on="0"/>
        <pt x="380" y="684" on="0"/>
        <pt x="359" y="689" on="1"/>
        <pt x="351" y="691" on="0"/>
        <pt x="334" y="693" on="0"/>
        <pt x="324" y="693" on="1"/>
        <pt x="303" y="693" on="0"/>
        <pt x="256" y="684" on="0"/>
        <pt x="235" y="673" on="1"/>
        <pt x="221" y="667" on="0"/>
        <pt x="188" y="633" on="0"/>
        <pt x="155" y="590" on="0"/>
        <pt x="125" y="544" on="0"/>
        <pt x="115" y="525" on="1"/>
        <pt x="108" y="512" on="0"/>
        <pt x="97" y="486" on="0"/>
        <pt x="90" y="454" on="0"/>
        <pt x="87" y="412" on="0"/>
        <pt x="87" y="384" on="1"/>
        <pt x="87" y="316" on="0"/>
        <pt x="119" y="215" on="0"/>
        <pt x="170" y="141" on="0"/>
        <pt x="235" y="93" on="0"/>
        <pt x="300" y="64" on="0"/>
        <pt x="359" y="53" on="0"/>
        <pt x="379" y="53" on="1"/>
        <pt x="415" y="53" on="0"/>
        <pt x="473" y="73" on="0"/>
        <pt x="514" y="97" on="0"/>
        <pt x="526" y="108" on="1"/>
      </contour>
    </TTGlyph>
    <TTGlyph name="Ccedilla" xMin="31" yMin="-231" xMax="585" yMax="749">
      <contour>
        <pt x="272" y="-50" on="1"/>
        <pt x="300" y="-54" on="0"/>
        <pt x="361" y="-72" on="0"/>
        <pt x="381" y="-92" on="1"/>
        <pt x="404" y="-115" on="0"/>
        <pt x="404" y="-147" on="1"/>
        <pt x="404" y="-191" on="0"/>
        <pt x="365" y="-214" on="1"/>
        <pt x="349" y="-223" on="0"/>
        <pt x="309" y="-231" on="0"/>
        <pt x="286" y="-231" on="1"/>
        <pt x="248" y="-231" on="0"/>
        <pt x="171" y="-211" on="0"/>
        <pt x="142" y="-194" on="1"/>
        <pt x="128" y="-186" on="0"/>
        <pt x="128" y="-170" on="1"/>
        <pt x="128" y="-163" on="0"/>
        <pt x="132" y="-156" on="1"/>
        <pt x="140" y="-142" on="0"/>
        <pt x="156" y="-142" on="1"/>
        <pt x="165" y="-142" on="0"/>
        <pt x="170" y="-146" on="1"/>
        <pt x="194" y="-160" on="0"/>
        <pt x="258" y="-175" on="0"/>
        <pt x="287" y="-175" on="1"/>
        <pt x="302" y="-175" on="0"/>
        <pt x="328" y="-170" on="0"/>
        <pt x="337" y="-165" on="1"/>
        <pt x="345" y="-161" on="0"/>
        <pt x="348" y="-152" on="0"/>
        <pt x="348" y="-147" on="1"/>
        <pt x="348" y="-140" on="0"/>
        <pt x="342" y="-132" on="1"/>
        <pt x="334" y="-124" on="0"/>
        <pt x="304" y="-112" on="0"/>
        <pt x="270" y="-105" on="0"/>
        <pt x="234" y="-103" on="0"/>
        <pt x="219" y="-103" on="1"/>
        <pt x="144" y="-105" on="1"/>
        <pt x="190" y="-56" on="1"/>
        <pt x="198" y="-48" on="1"/>
        <pt x="205" y="-40" on="0"/>
        <pt x="227" y="-17" on="0"/>
        <pt x="251" y="9" on="0"/>
        <pt x="260" y="20" on="1"/>
        <pt x="216" y="36" on="0"/>
        <pt x="134" y="96" on="0"/>
        <pt x="70" y="185" on="0"/>
        <pt x="31" y="306" on="0"/>
        <pt x="31" y="384" on="1"/>
        <pt x="31" y="417" on="0"/>
        <pt x="35" y="466" on="0"/>
        <pt x="44" y="505" on="0"/>
        <pt x="57" y="537" on="0"/>
        <pt x="66" y="552" on="1"/>
        <pt x="67" y="554" on="0"/>
        <pt x="94" y="599" on="0"/>
        <pt x="134" y="657" on="0"/>
        <pt x="185" y="712" on="0"/>
        <pt x="210" y="724" on="1"/>
        <pt x="239" y="737" on="0"/>
        <pt x="297" y="749" on="0"/>
        <pt x="323" y="749" on="1"/>
        <pt x="351" y="749" on="0"/>
        <pt x="372" y="743" on="1"/>
        <pt x="382" y="741" on="0"/>
        <pt x="414" y="730" on="0"/>
        <pt x="447" y="716" on="0"/>
        <pt x="475" y="700" on="0"/>
        <pt x="481" y="693" on="1"/>
        <pt x="489" y="682" on="0"/>
        <pt x="494" y="651" on="0"/>
        <pt x="494" y="637" on="1"/>
        <pt x="494" y="626" on="0"/>
        <pt x="478" y="609" on="0"/>
        <pt x="466" y="609" on="1"/>
        <pt x="455" y="609" on="0"/>
        <pt x="438" y="626" on="0"/>
        <pt x="438" y="637" on="1"/>
        <pt x="438" y="642" on="0"/>
        <pt x="438" y="654" on="0"/>
        <pt x="437" y="658" on="1"/>
        <pt x="427" y="663" on="0"/>
        <pt x="380" y="684" on="0"/>
        <pt x="359" y="689" on="1"/>
        <pt x="351" y="691" on="0"/>
        <pt x="334" y="693" on="0"/>
        <pt x="324" y="693" on="1"/>
        <pt x="303" y="693" on="0"/>
        <pt x="256" y="684" on="0"/>
        <pt x="235" y="673" on="1"/>
        <pt x="221" y="667" on="0"/>
        <pt x="188" y="633" on="0"/>
        <pt x="155" y="590" on="0"/>
        <pt x="125" y="544" on="0"/>
        <pt x="115" y="525" on="1"/>
        <pt x="108" y="512" on="0"/>
        <pt x="97" y="486" on="0"/>
        <pt x="90" y="454" on="0"/>
        <pt x="87" y="412" on="0"/>
        <pt x="87" y="384" on="1"/>
        <pt x="87" y="316" on="0"/>
        <pt x="119" y="215" on="0"/>
        <pt x="170" y="141" on="0"/>
        <pt x="235" y="93" on="0"/>
        <pt x="300" y="64" on="0"/>
        <pt x="359" y="53" on="0"/>
        <pt x="379" y="53" on="1"/>
        <pt x="415" y="53" on="0"/>
        <pt x="473" y="73" on="0"/>
        <pt x="514" y="97" on="0"/>
        <pt x="526" y="108" on="1"/>
        <pt x="537" y="118" on="1"/>
        <pt x="545" y="126" on="0"/>
        <pt x="557" y="126" on="1"/>
        <pt x="569" y="126" on="0"/>
        <pt x="576" y="119" on="1"/>
        <pt x="585" y="110" on="0"/>
        <pt x="585" y="98" on="1"/>
        <pt x="585" y="87" on="0"/>
        <pt x="577" y="79" on="1"/>
        <pt x="576" y="78" on="0"/>
        <pt x="547" y="52" on="0"/>
        <pt x="496" y="22" on="0"/>
        <pt x="424" y="-3" on="0"/>
        <pt x="379" y="-3" on="1"/>
        <pt x="364" y="-3" on="0"/>
        <pt x="333" y="0" on="0"/>
        <pt x="317" y="4" on="1"/>
        <pt x="316" y="-1" on="0"/>
        <pt x="311" y="-6" on="1"/>
        <pt x="304" y="-14" on="0"/>
        <pt x="283" y="-38" on="0"/>
      </contour>
    </TTGlyph>
    <TTGlyph name="D" xMin="31" yMin="-21" xMax="625" yMax="765">
      <contour>
        <pt x="389" y="42" on="1"/>
        <pt x="445" y="58" on="0"/>
        <pt x="515" y="131" on="0"/>
        <pt x="555" y="227" on="0"/>
        <pt x="569" y="334" on="0"/>
        <pt x="569" y="384" on="1"/>
        <pt x="569" y="450" on="0"/>
        <pt x="524" y="553" on="0"/>
        <pt x="458" y="628" on="0"/>
        <pt x="382" y="674" on="0"/>
        <pt x="351" y="682" on="1"/>
        <pt x="303" y="695" on="0"/>
        <pt x="234" y="705" on="0"/>
        <pt x="205" y="705" on="1"/>
        <pt x="176" y="705" on="0"/>
        <pt x="125" y="696" on="0"/>
        <pt x="96" y="689" on="1"/>
        <pt x="100" y="655" on="0"/>
        <pt x="107" y="572" on="0"/>
        <pt x="113" y="491" on="0"/>
        <pt x="116" y="420" on="0"/>
        <pt x="116" y="397" on="1"/>
        <pt x="116" y="380" on="0"/>
        <pt x="120" y="323" on="0"/>
        <pt x="125" y="253" on="0"/>
        <pt x="132" y="178" on="0"/>
        <pt x="139" y="109" on="0"/>
        <pt x="145" y="53" on="0"/>
        <pt x="147" y="38" on="1"/>
        <pt x="176" y="36" on="0"/>
        <pt x="241" y="35" on="0"/>
        <pt x="273" y="35" on="1"/>
        <pt x="313" y="35" on="0"/>
        <pt x="375" y="38" on="0"/>
      </contour>
      <contour>
        <pt x="365" y="736" on="1"/>
        <pt x="404" y="725" on="0"/>
        <pt x="495" y="671" on="0"/>
        <pt x="573" y="584" on="0"/>
        <pt x="625" y="462" on="0"/>
        <pt x="625" y="384" on="1"/>
        <pt x="625" y="281" on="0"/>
        <pt x="584" y="139" on="0"/>
        <pt x="520" y="48" on="0"/>
        <pt x="442" y="-1" on="0"/>
        <pt x="404" y="-12" on="1"/>
        <pt x="386" y="-17" on="0"/>
        <pt x="313" y="-21" on="0"/>
        <pt x="272" y="-21" on="1"/>
        <pt x="246" y="-21" on="0"/>
        <pt x="195" y="-20" on="0"/>
        <pt x="153" y="-19" on="0"/>
        <pt x="124" y="-17" on="0"/>
        <pt x="119" y="-17" on="1"/>
        <pt x="108" y="-17" on="0"/>
        <pt x="93" y="1" on="0"/>
        <pt x="93" y="16" on="1"/>
        <pt x="92" y="19" on="0"/>
        <pt x="87" y="67" on="0"/>
        <pt x="80" y="138" on="0"/>
        <pt x="72" y="224" on="0"/>
        <pt x="65" y="307" on="0"/>
        <pt x="60" y="377" on="0"/>
        <pt x="60" y="397" on="1"/>
        <pt x="60" y="422" on="0"/>
        <pt x="57" y="496" on="0"/>
        <pt x="51" y="577" on="0"/>
        <pt x="43" y="656" on="0"/>
        <pt x="39" y="688" on="1"/>
        <pt x="37" y="690" on="0"/>
        <pt x="33" y="699" on="0"/>
        <pt x="31" y="708" on="1"/>
        <pt x="31" y="716" on="0"/>
        <pt x="34" y="722" on="1"/>
        <pt x="34" y="724" on="0"/>
        <pt x="33" y="731" on="0"/>
        <pt x="32" y="737" on="1"/>
        <pt x="32" y="747" on="0"/>
        <pt x="46" y="763" on="0"/>
        <pt x="60" y="765" on="1"/>
        <pt x="82" y="765" on="0"/>
        <pt x="87" y="744" on="1"/>
        <pt x="117" y="752" on="0"/>
        <pt x="172" y="761" on="0"/>
        <pt x="205" y="761" on="1"/>
        <pt x="236" y="761" on="0"/>
        <pt x="313" y="750" on="0"/>
      </contour>
    </TTGlyph>
    <TTGlyph name="E" xMin="41" yMin="-9" xMax="589" yMax="775">
      <contour>
        <pt x="567" y="51" on="1"/>
        <pt x="589" y="46" on="0"/>
        <pt x="589" y="18" on="1"/>
        <pt x="587" y="7" on="0"/>
        <pt x="570" y="-5" on="0"/>
        <pt x="556" y="-4" on="1"/>
        <pt x="555" y="-4" on="0"/>
        <pt x="464" y="9" on="0"/>
        <pt x="386" y="9" on="1"/>
        <pt x="347" y="9" on="0"/>
        <pt x="265" y="3" on="0"/>
        <pt x="196" y="-3" on="0"/>
        <pt x="151" y="-9" on="0"/>
        <pt x="149" y="-9" on="1"/>
        <pt x="130" y="-9" on="1"/>
        <pt x="119" y="-9" on="0"/>
        <pt x="103" y="5" on="0"/>
        <pt x="102" y="16" on="1"/>
        <pt x="101" y="19" on="0"/>
        <pt x="96" y="67" on="0"/>
        <pt x="89" y="138" on="0"/>
        <pt x="81" y="224" on="0"/>
        <pt x="74" y="307" on="0"/>
        <pt x="69" y="377" on="0"/>
        <pt x="69" y="397" on="1"/>
        <pt x="69" y="427" on="0"/>
        <pt x="64" y="521" on="0"/>
        <pt x="56" y="620" on="0"/>
        <pt x="46" y="710" on="0"/>
        <pt x="41" y="737" on="1"/>
        <pt x="41" y="747" on="0"/>
        <pt x="55" y="763" on="0"/>
        <pt x="69" y="765" on="1"/>
        <pt x="91" y="765" on="0"/>
        <pt x="96" y="744" on="1"/>
        <pt x="103" y="754" on="0"/>
        <pt x="115" y="756" on="1"/>
        <pt x="117" y="756" on="0"/>
        <pt x="162" y="762" on="0"/>
        <pt x="231" y="769" on="0"/>
        <pt x="315" y="775" on="0"/>
        <pt x="356" y="775" on="1"/>
        <pt x="438" y="775" on="0"/>
        <pt x="535" y="761" on="0"/>
        <pt x="537" y="760" on="1"/>
        <pt x="559" y="755" on="0"/>
        <pt x="559" y="727" on="1"/>
        <pt x="554" y="705" on="0"/>
        <pt x="525" y="705" on="1"/>
        <pt x="505" y="708" on="0"/>
        <pt x="479" y="712" on="1"/>
        <pt x="457" y="714" on="0"/>
        <pt x="394" y="719" on="0"/>
        <pt x="356" y="719" on="1"/>
        <pt x="317" y="719" on="0"/>
        <pt x="235" y="713" on="0"/>
        <pt x="166" y="706" on="0"/>
        <pt x="121" y="700" on="0"/>
        <pt x="119" y="700" on="1"/>
        <pt x="110" y="700" on="0"/>
        <pt x="102" y="705" on="1"/>
        <pt x="107" y="672" on="0"/>
        <pt x="115" y="586" on="0"/>
        <pt x="121" y="500" on="0"/>
        <pt x="125" y="423" on="0"/>
        <pt x="125" y="398" on="1"/>
        <pt x="134" y="399" on="0"/>
        <pt x="174" y="404" on="0"/>
        <pt x="229" y="409" on="0"/>
        <pt x="295" y="413" on="0"/>
        <pt x="330" y="415" on="1"/>
        <pt x="341" y="415" on="0"/>
        <pt x="358" y="399" on="0"/>
        <pt x="358" y="387" on="1"/>
        <pt x="358" y="376" on="0"/>
        <pt x="342" y="359" on="0"/>
        <pt x="331" y="359" on="1"/>
        <pt x="295" y="357" on="0"/>
        <pt x="224" y="352" on="0"/>
        <pt x="168" y="347" on="0"/>
        <pt x="130" y="342" on="0"/>
        <pt x="127" y="342" on="1"/>
        <pt x="129" y="308" on="0"/>
        <pt x="137" y="225" on="0"/>
        <pt x="145" y="142" on="0"/>
        <pt x="152" y="70" on="0"/>
        <pt x="155" y="48" on="1"/>
        <pt x="167" y="49" on="0"/>
        <pt x="216" y="55" on="0"/>
        <pt x="280" y="61" on="0"/>
        <pt x="351" y="65" on="0"/>
        <pt x="386" y="65" on="1"/>
        <pt x="468" y="65" on="0"/>
        <pt x="565" y="51" on="0"/>
      </contour>
    </TTGlyph>
    <TTGlyph name="Eacute" xMin="41" yMin="-9" xMax="589" yMax="1053">
      <component glyphName="E" x="0" y="0" flags="0x204"/>
      <component glyphName="acute" x="-19" y="379" flags="0x4"/>
    </TTGlyph>
    <TTGlyph name="Ecircumflex" xMin="41" yMin="-9" xMax="589" yMax="1030">
      <component glyphName="E" x="0" y="0" flags="0x204"/>
      <component glyphName="circumflex" x="-50" y="389" flags="0x4"/>
    </TTGlyph>
    <TTGlyph name="Edieresis" xMin="41" yMin="-9" xMax="589" yMax="934">
      <component glyphName="E" x="0" y="0" flags="0x204"/>
      <component glyphName="dieresis" x="-50" y="287" flags="0x4"/>
    </TTGlyph>
    <TTGlyph name="Egrave" xMin="41" yMin="-9" xMax="589" yMax="1041">
      <component glyphName="E" x="0" y="0" flags="0x204"/>
      <component glyphName="grave" x="-81" y="369" flags="0x4"/>
    </TTGlyph>
    <TTGlyph name="Eth" xMin="-58" yMin="-21" xMax="625" yMax="765">
      <contour>
        <pt x="60" y="418" on="1"/>
        <pt x="59" y="445" on="0"/>
        <pt x="55" y="515" on="0"/>
        <pt x="50" y="589" on="0"/>
        <pt x="43" y="659" on="0"/>
        <pt x="39" y="688" on="1"/>
        <pt x="33" y="693" on="0"/>
        <pt x="32" y="701" on="1"/>
        <pt x="31" y="710" on="0"/>
        <pt x="32" y="719" on="0"/>
        <pt x="34" y="722" on="1"/>
        <pt x="34" y="724" on="0"/>
        <pt x="33" y="730" on="0"/>
        <pt x="33" y="732" on="1"/>
        <pt x="32" y="746" on="0"/>
        <pt x="44" y="763" on="0"/>
        <pt x="55" y="765" on="1"/>
        <pt x="82" y="765" on="0"/>
        <pt x="87" y="744" on="1"/>
        <pt x="117" y="752" on="0"/>
        <pt x="172" y="761" on="0"/>
        <pt x="205" y="761" on="1"/>
        <pt x="236" y="761" on="0"/>
        <pt x="313" y="750" on="0"/>
        <pt x="365" y="736" on="1"/>
        <pt x="404" y="725" on="0"/>
        <pt x="495" y="671" on="0"/>
        <pt x="573" y="584" on="0"/>
        <pt x="625" y="462" on="0"/>
        <pt x="625" y="384" on="1"/>
        <pt x="625" y="281" on="0"/>
        <pt x="584" y="139" on="0"/>
        <pt x="520" y="48" on="0"/>
        <pt x="442" y="-1" on="0"/>
        <pt x="404" y="-12" on="1"/>
        <pt x="386" y="-17" on="0"/>
        <pt x="313" y="-21" on="0"/>
        <pt x="272" y="-21" on="1"/>
        <pt x="246" y="-21" on="0"/>
        <pt x="195" y="-20" on="0"/>
        <pt x="153" y="-19" on="0"/>
        <pt x="124" y="-17" on="0"/>
        <pt x="119" y="-17" on="1"/>
        <pt x="108" y="-17" on="0"/>
        <pt x="92" y="0" on="0"/>
        <pt x="93" y="11" on="1"/>
        <pt x="92" y="17" on="0"/>
        <pt x="84" y="97" on="0"/>
        <pt x="73" y="206" on="0"/>
        <pt x="63" y="321" on="0"/>
        <pt x="61" y="362" on="1"/>
        <pt x="23" y="357" on="0"/>
        <pt x="-33" y="348" on="0"/>
        <pt x="-34" y="348" on="1"/>
        <pt x="-44" y="348" on="0"/>
        <pt x="-56" y="361" on="0"/>
        <pt x="-57" y="372" on="1"/>
        <pt x="-58" y="386" on="0"/>
        <pt x="-48" y="402" on="0"/>
        <pt x="-40" y="404" on="1"/>
        <pt x="-38" y="404" on="0"/>
        <pt x="20" y="413" on="0"/>
      </contour>
      <contour>
        <pt x="277" y="408" on="1"/>
        <pt x="294" y="403" on="0"/>
        <pt x="294" y="381" on="1"/>
        <pt x="292" y="367" on="0"/>
        <pt x="280" y="353" on="0"/>
        <pt x="273" y="353" on="1"/>
        <pt x="269" y="353" on="0"/>
        <pt x="199" y="367" on="0"/>
        <pt x="141" y="367" on="1"/>
        <pt x="135" y="367" on="0"/>
        <pt x="123" y="366" on="0"/>
        <pt x="117" y="366" on="1"/>
        <pt x="119" y="333" on="0"/>
        <pt x="127" y="237" on="0"/>
        <pt x="136" y="141" on="0"/>
        <pt x="145" y="59" on="0"/>
        <pt x="147" y="38" on="1"/>
        <pt x="176" y="36" on="0"/>
        <pt x="241" y="35" on="0"/>
        <pt x="273" y="35" on="1"/>
        <pt x="313" y="35" on="0"/>
        <pt x="375" y="38" on="0"/>
        <pt x="389" y="42" on="1"/>
        <pt x="445" y="58" on="0"/>
        <pt x="515" y="131" on="0"/>
        <pt x="555" y="227" on="0"/>
        <pt x="569" y="334" on="0"/>
        <pt x="569" y="384" on="1"/>
        <pt x="569" y="450" on="0"/>
        <pt x="524" y="553" on="0"/>
        <pt x="458" y="628" on="0"/>
        <pt x="382" y="674" on="0"/>
        <pt x="351" y="682" on="1"/>
        <pt x="303" y="695" on="0"/>
        <pt x="234" y="705" on="0"/>
        <pt x="205" y="705" on="1"/>
        <pt x="176" y="705" on="0"/>
        <pt x="125" y="696" on="0"/>
        <pt x="96" y="689" on="1"/>
        <pt x="100" y="659" on="0"/>
        <pt x="106" y="587" on="0"/>
        <pt x="112" y="515" on="0"/>
        <pt x="115" y="448" on="0"/>
        <pt x="116" y="422" on="1"/>
        <pt x="122" y="422" on="0"/>
        <pt x="135" y="423" on="0"/>
        <pt x="141" y="423" on="1"/>
        <pt x="203" y="423" on="0"/>
        <pt x="275" y="409" on="0"/>
      </contour>
    </TTGlyph>
    <TTGlyph name="Euro" xMin="-20" yMin="8" xMax="499" yMax="594">
      <contour>
        <pt x="489" y="113" on="1"/>
        <pt x="499" y="106" on="0"/>
        <pt x="499" y="92" on="1"/>
        <pt x="499" y="81" on="0"/>
        <pt x="493" y="74" on="1"/>
        <pt x="492" y="73" on="0"/>
        <pt x="473" y="52" on="0"/>
        <pt x="438" y="28" on="0"/>
        <pt x="388" y="8" on="0"/>
        <pt x="358" y="8" on="1"/>
        <pt x="331" y="8" on="0"/>
        <pt x="269" y="27" on="0"/>
        <pt x="211" y="68" on="0"/>
        <pt x="160" y="133" on="0"/>
        <pt x="145" y="180" on="1"/>
        <pt x="121" y="179" on="0"/>
        <pt x="73" y="174" on="0"/>
        <pt x="35" y="169" on="0"/>
        <pt x="9" y="165" on="0"/>
        <pt x="7" y="165" on="1"/>
        <pt x="-3" y="165" on="0"/>
        <pt x="-18" y="179" on="0"/>
        <pt x="-20" y="193" on="1"/>
        <pt x="-20" y="203" on="0"/>
        <pt x="-8" y="218" on="0"/>
        <pt x="3" y="220" on="1"/>
        <pt x="4" y="220" on="0"/>
        <pt x="26" y="224" on="0"/>
        <pt x="62" y="229" on="0"/>
        <pt x="107" y="234" on="0"/>
        <pt x="131" y="235" on="1"/>
        <pt x="129" y="252" on="0"/>
        <pt x="126" y="288" on="0"/>
        <pt x="126" y="308" on="1"/>
        <pt x="81" y="305" on="0"/>
        <pt x="12" y="294" on="0"/>
        <pt x="7" y="294" on="1"/>
        <pt x="-3" y="294" on="0"/>
        <pt x="-18" y="308" on="0"/>
        <pt x="-20" y="322" on="1"/>
        <pt x="-20" y="332" on="0"/>
        <pt x="-8" y="347" on="0"/>
        <pt x="3" y="349" on="1"/>
        <pt x="4" y="349" on="0"/>
        <pt x="26" y="353" on="0"/>
        <pt x="60" y="358" on="0"/>
        <pt x="104" y="362" on="0"/>
        <pt x="128" y="364" on="1"/>
        <pt x="130" y="389" on="0"/>
        <pt x="140" y="422" on="0"/>
        <pt x="148" y="439" on="1"/>
        <pt x="150" y="443" on="0"/>
        <pt x="168" y="479" on="0"/>
        <pt x="195" y="523" on="0"/>
        <pt x="227" y="564" on="0"/>
        <pt x="244" y="574" on="1"/>
        <pt x="264" y="585" on="0"/>
        <pt x="304" y="594" on="0"/>
        <pt x="322" y="594" on="1"/>
        <pt x="340" y="594" on="0"/>
        <pt x="357" y="589" on="1"/>
        <pt x="362" y="588" on="0"/>
        <pt x="383" y="580" on="0"/>
        <pt x="407" y="568" on="0"/>
        <pt x="427" y="554" on="0"/>
        <pt x="432" y="547" on="1"/>
        <pt x="442" y="532" on="0"/>
        <pt x="442" y="503" on="1"/>
        <pt x="442" y="491" on="0"/>
        <pt x="425" y="475" on="0"/>
        <pt x="414" y="475" on="1"/>
        <pt x="402" y="475" on="0"/>
        <pt x="386" y="491" on="0"/>
        <pt x="386" y="503" on="1"/>
        <pt x="386" y="506" on="0"/>
        <pt x="385" y="513" on="0"/>
        <pt x="385" y="515" on="1"/>
        <pt x="378" y="520" on="0"/>
        <pt x="352" y="532" on="0"/>
        <pt x="341" y="536" on="1"/>
        <pt x="331" y="538" on="0"/>
        <pt x="323" y="538" on="1"/>
        <pt x="311" y="538" on="0"/>
        <pt x="284" y="532" on="0"/>
        <pt x="272" y="525" on="1"/>
        <pt x="265" y="521" on="0"/>
        <pt x="247" y="499" on="0"/>
        <pt x="227" y="468" on="0"/>
        <pt x="207" y="432" on="0"/>
        <pt x="199" y="415" on="1"/>
        <pt x="194" y="404" on="0"/>
        <pt x="187" y="382" on="0"/>
        <pt x="185" y="366" on="1"/>
        <pt x="240" y="365" on="0"/>
        <pt x="305" y="354" on="0"/>
        <pt x="307" y="353" on="1"/>
        <pt x="316" y="351" on="0"/>
        <pt x="328" y="333" on="0"/>
        <pt x="327" y="319" on="1"/>
        <pt x="322" y="297" on="0"/>
        <pt x="293" y="299" on="1"/>
        <pt x="280" y="301" on="0"/>
        <pt x="263" y="304" on="1"/>
        <pt x="249" y="306" on="0"/>
        <pt x="207" y="309" on="0"/>
        <pt x="182" y="309" on="1"/>
        <pt x="182" y="268" on="0"/>
        <pt x="188" y="237" on="1"/>
        <pt x="242" y="236" on="0"/>
        <pt x="305" y="225" on="0"/>
        <pt x="307" y="224" on="1"/>
        <pt x="316" y="222" on="0"/>
        <pt x="328" y="204" on="0"/>
        <pt x="327" y="190" on="1"/>
        <pt x="322" y="168" on="0"/>
        <pt x="293" y="170" on="1"/>
        <pt x="282" y="172" on="0"/>
        <pt x="269" y="174" on="1"/>
        <pt x="258" y="176" on="0"/>
        <pt x="225" y="179" on="0"/>
        <pt x="205" y="180" on="1"/>
        <pt x="220" y="145" on="0"/>
        <pt x="261" y="101" on="0"/>
        <pt x="304" y="74" on="0"/>
        <pt x="344" y="64" on="0"/>
        <pt x="358" y="64" on="1"/>
        <pt x="378" y="64" on="0"/>
        <pt x="412" y="78" on="0"/>
        <pt x="436" y="95" on="0"/>
        <pt x="443" y="102" on="1"/>
        <pt x="450" y="109" on="1"/>
        <pt x="458" y="120" on="0"/>
        <pt x="471" y="120" on="1"/>
        <pt x="482" y="120" on="0"/>
      </contour>
    </TTGlyph>
    <TTGlyph name="F" xMin="36" yMin="-9" xMax="554" yMax="775">
      <contour>
        <pt x="325" y="415" on="1"/>
        <pt x="336" y="415" on="0"/>
        <pt x="352" y="399" on="0"/>
        <pt x="353" y="387" on="1"/>
        <pt x="353" y="376" on="0"/>
        <pt x="337" y="359" on="0"/>
        <pt x="326" y="359" on="1"/>
        <pt x="290" y="357" on="0"/>
        <pt x="219" y="352" on="0"/>
        <pt x="163" y="347" on="0"/>
        <pt x="125" y="342" on="0"/>
        <pt x="122" y="342" on="1"/>
        <pt x="124" y="314" on="0"/>
        <pt x="130" y="245" on="0"/>
        <pt x="137" y="174" on="0"/>
        <pt x="144" y="106" on="0"/>
        <pt x="149" y="53" on="0"/>
        <pt x="153" y="20" on="0"/>
        <pt x="153" y="19" on="1"/>
        <pt x="153" y="8" on="0"/>
        <pt x="138" y="-8" on="0"/>
        <pt x="124" y="-9" on="1"/>
        <pt x="113" y="-9" on="0"/>
        <pt x="98" y="5" on="0"/>
        <pt x="97" y="16" on="1"/>
        <pt x="96" y="19" on="0"/>
        <pt x="91" y="67" on="0"/>
        <pt x="84" y="138" on="0"/>
        <pt x="76" y="224" on="0"/>
        <pt x="69" y="307" on="0"/>
        <pt x="64" y="377" on="0"/>
        <pt x="64" y="397" on="1"/>
        <pt x="64" y="427" on="0"/>
        <pt x="59" y="521" on="0"/>
        <pt x="51" y="620" on="0"/>
        <pt x="41" y="710" on="0"/>
        <pt x="36" y="737" on="1"/>
        <pt x="36" y="747" on="0"/>
        <pt x="50" y="763" on="0"/>
        <pt x="64" y="765" on="1"/>
        <pt x="86" y="765" on="0"/>
        <pt x="91" y="744" on="1"/>
        <pt x="98" y="754" on="0"/>
        <pt x="110" y="756" on="1"/>
        <pt x="112" y="756" on="0"/>
        <pt x="157" y="762" on="0"/>
        <pt x="226" y="769" on="0"/>
        <pt x="310" y="775" on="0"/>
        <pt x="351" y="775" on="1"/>
        <pt x="433" y="775" on="0"/>
        <pt x="530" y="761" on="0"/>
        <pt x="532" y="760" on="1"/>
        <pt x="554" y="755" on="0"/>
        <pt x="553" y="727" on="1"/>
        <pt x="550" y="705" on="0"/>
        <pt x="520" y="705" on="1"/>
        <pt x="500" y="708" on="0"/>
        <pt x="474" y="712" on="1"/>
        <pt x="452" y="714" on="0"/>
        <pt x="389" y="719" on="0"/>
        <pt x="351" y="719" on="1"/>
        <pt x="312" y="719" on="0"/>
        <pt x="230" y="713" on="0"/>
        <pt x="161" y="706" on="0"/>
        <pt x="116" y="700" on="0"/>
        <pt x="114" y="700" on="1"/>
        <pt x="105" y="700" on="0"/>
        <pt x="97" y="705" on="1"/>
        <pt x="102" y="672" on="0"/>
        <pt x="110" y="586" on="0"/>
        <pt x="116" y="500" on="0"/>
        <pt x="120" y="423" on="0"/>
        <pt x="120" y="398" on="1"/>
        <pt x="129" y="399" on="0"/>
        <pt x="169" y="404" on="0"/>
        <pt x="224" y="409" on="0"/>
        <pt x="290" y="413" on="0"/>
        <pt x="324" y="415" on="1"/>
      </contour>
    </TTGlyph>
    <TTGlyph name="G" xMin="26" yMin="-17" xMax="635" yMax="748">
      <contour>
        <pt x="579" y="380" on="1"/>
        <pt x="601" y="380" on="0"/>
        <pt x="606" y="357" on="1"/>
        <pt x="612" y="330" on="0"/>
        <pt x="622" y="236" on="0"/>
        <pt x="630" y="135" on="0"/>
        <pt x="635" y="40" on="0"/>
        <pt x="635" y="11" on="1"/>
        <pt x="635" y="0" on="0"/>
        <pt x="618" y="-17" on="0"/>
        <pt x="607" y="-17" on="1"/>
        <pt x="595" y="-17" on="0"/>
        <pt x="579" y="0" on="0"/>
        <pt x="579" y="11" on="1"/>
        <pt x="579" y="22" on="0"/>
        <pt x="578" y="49" on="0"/>
        <pt x="577" y="64" on="1"/>
        <pt x="566" y="55" on="0"/>
        <pt x="530" y="32" on="0"/>
        <pt x="482" y="11" on="0"/>
        <pt x="422" y="-3" on="0"/>
        <pt x="388" y="-3" on="1"/>
        <pt x="352" y="-3" on="0"/>
        <pt x="270" y="15" on="0"/>
        <pt x="189" y="54" on="0"/>
        <pt x="116" y="114" on="0"/>
        <pt x="59" y="200" on="0"/>
        <pt x="26" y="313" on="0"/>
        <pt x="26" y="384" on="1"/>
        <pt x="26" y="417" on="0"/>
        <pt x="30" y="466" on="0"/>
        <pt x="39" y="505" on="0"/>
        <pt x="53" y="537" on="0"/>
        <pt x="62" y="552" on="1"/>
        <pt x="63" y="554" on="0"/>
        <pt x="91" y="600" on="0"/>
        <pt x="134" y="657" on="0"/>
        <pt x="187" y="712" on="0"/>
        <pt x="213" y="724" on="1"/>
        <pt x="242" y="737" on="0"/>
        <pt x="303" y="748" on="0"/>
        <pt x="330" y="748" on="1"/>
        <pt x="358" y="748" on="0"/>
        <pt x="380" y="743" on="1"/>
        <pt x="390" y="741" on="0"/>
        <pt x="424" y="730" on="0"/>
        <pt x="458" y="716" on="0"/>
        <pt x="488" y="700" on="0"/>
        <pt x="494" y="693" on="1"/>
        <pt x="500" y="685" on="0"/>
        <pt x="500" y="675" on="1"/>
        <pt x="500" y="661" on="0"/>
        <pt x="490" y="654" on="1"/>
        <pt x="483" y="647" on="0"/>
        <pt x="472" y="647" on="1"/>
        <pt x="461" y="647" on="0"/>
        <pt x="452" y="656" on="1"/>
        <pt x="449" y="658" on="0"/>
        <pt x="430" y="667" on="0"/>
        <pt x="406" y="677" on="0"/>
        <pt x="379" y="686" on="0"/>
        <pt x="367" y="689" on="1"/>
        <pt x="359" y="691" on="0"/>
        <pt x="341" y="693" on="0"/>
        <pt x="330" y="693" on="1"/>
        <pt x="308" y="693" on="0"/>
        <pt x="259" y="684" on="0"/>
        <pt x="236" y="673" on="1"/>
        <pt x="222" y="667" on="0"/>
        <pt x="188" y="633" on="0"/>
        <pt x="153" y="590" on="0"/>
        <pt x="122" y="543" on="0"/>
        <pt x="111" y="524" on="1"/>
        <pt x="103" y="512" on="0"/>
        <pt x="93" y="486" on="0"/>
        <pt x="85" y="454" on="0"/>
        <pt x="82" y="412" on="0"/>
        <pt x="82" y="384" on="1"/>
        <pt x="82" y="316" on="0"/>
        <pt x="116" y="215" on="0"/>
        <pt x="169" y="141" on="0"/>
        <pt x="237" y="93" on="0"/>
        <pt x="305" y="64" on="0"/>
        <pt x="367" y="53" on="0"/>
        <pt x="388" y="53" on="1"/>
        <pt x="426" y="53" on="0"/>
        <pt x="487" y="73" on="0"/>
        <pt x="531" y="97" on="0"/>
        <pt x="543" y="108" on="1"/>
        <pt x="554" y="118" on="1"/>
        <pt x="562" y="126" on="0"/>
        <pt x="574" y="126" on="1"/>
        <pt x="571" y="177" on="0"/>
        <pt x="561" y="282" on="0"/>
        <pt x="556" y="318" on="1"/>
        <pt x="518" y="316" on="0"/>
        <pt x="446" y="311" on="0"/>
        <pt x="389" y="305" on="0"/>
        <pt x="352" y="301" on="0"/>
        <pt x="351" y="301" on="1"/>
        <pt x="340" y="301" on="0"/>
        <pt x="325" y="315" on="0"/>
        <pt x="323" y="329" on="1"/>
        <pt x="323" y="340" on="0"/>
        <pt x="336" y="355" on="0"/>
        <pt x="347" y="357" on="1"/>
        <pt x="348" y="357" on="0"/>
        <pt x="385" y="361" on="0"/>
        <pt x="445" y="367" on="0"/>
        <pt x="521" y="372" on="0"/>
        <pt x="562" y="374" on="1"/>
        <pt x="565" y="377" on="0"/>
        <pt x="573" y="379" on="1"/>
      </contour>
    </TTGlyph>
    <TTGlyph name="H" xMin="31" yMin="-9" xMax="584" yMax="765">
      <contour>
        <pt x="552" y="397" on="1"/>
        <pt x="552" y="378" on="0"/>
        <pt x="557" y="308" on="0"/>
        <pt x="564" y="225" on="0"/>
        <pt x="572" y="138" on="0"/>
        <pt x="579" y="67" on="0"/>
        <pt x="584" y="20" on="0"/>
        <pt x="584" y="19" on="1"/>
        <pt x="584" y="8" on="0"/>
        <pt x="570" y="-8" on="0"/>
        <pt x="556" y="-9" on="1"/>
        <pt x="545" y="-9" on="0"/>
        <pt x="530" y="5" on="0"/>
        <pt x="529" y="16" on="1"/>
        <pt x="529" y="19" on="0"/>
        <pt x="524" y="58" on="0"/>
        <pt x="518" y="117" on="0"/>
        <pt x="510" y="191" on="0"/>
        <pt x="503" y="267" on="0"/>
        <pt x="497" y="337" on="0"/>
        <pt x="496" y="364" on="1"/>
        <pt x="495" y="364" on="0"/>
        <pt x="404" y="378" on="0"/>
        <pt x="326" y="378" on="1"/>
        <pt x="297" y="378" on="0"/>
        <pt x="236" y="374" on="0"/>
        <pt x="180" y="369" on="0"/>
        <pt x="132" y="364" on="0"/>
        <pt x="116" y="362" on="1"/>
        <pt x="117" y="336" on="0"/>
        <pt x="123" y="265" on="0"/>
        <pt x="130" y="189" on="0"/>
        <pt x="137" y="116" on="0"/>
        <pt x="143" y="57" on="0"/>
        <pt x="147" y="20" on="0"/>
        <pt x="147" y="19" on="1"/>
        <pt x="147" y="8" on="0"/>
        <pt x="133" y="-8" on="0"/>
        <pt x="119" y="-9" on="1"/>
        <pt x="108" y="-9" on="0"/>
        <pt x="93" y="5" on="0"/>
        <pt x="92" y="16" on="1"/>
        <pt x="91" y="19" on="0"/>
        <pt x="86" y="67" on="0"/>
        <pt x="79" y="138" on="0"/>
        <pt x="71" y="224" on="0"/>
        <pt x="64" y="307" on="0"/>
        <pt x="59" y="377" on="0"/>
        <pt x="59" y="397" on="1"/>
        <pt x="59" y="427" on="0"/>
        <pt x="54" y="521" on="0"/>
        <pt x="46" y="620" on="0"/>
        <pt x="36" y="710" on="0"/>
        <pt x="31" y="737" on="1"/>
        <pt x="31" y="747" on="0"/>
        <pt x="45" y="763" on="0"/>
        <pt x="59" y="765" on="1"/>
        <pt x="69" y="765" on="0"/>
        <pt x="84" y="753" on="0"/>
        <pt x="86" y="743" on="1"/>
        <pt x="91" y="717" on="0"/>
        <pt x="101" y="634" on="0"/>
        <pt x="108" y="541" on="0"/>
        <pt x="113" y="451" on="0"/>
        <pt x="114" y="419" on="1"/>
        <pt x="131" y="421" on="0"/>
        <pt x="179" y="426" on="0"/>
        <pt x="236" y="431" on="0"/>
        <pt x="297" y="434" on="0"/>
        <pt x="326" y="434" on="1"/>
        <pt x="390" y="434" on="0"/>
        <pt x="477" y="424" on="0"/>
        <pt x="495" y="421" on="1"/>
        <pt x="494" y="455" on="0"/>
        <pt x="489" y="544" on="0"/>
        <pt x="481" y="633" on="0"/>
        <pt x="472" y="713" on="0"/>
        <pt x="468" y="737" on="1"/>
        <pt x="468" y="747" on="0"/>
        <pt x="482" y="763" on="0"/>
        <pt x="496" y="765" on="1"/>
        <pt x="506" y="765" on="0"/>
        <pt x="521" y="753" on="0"/>
        <pt x="523" y="743" on="1"/>
        <pt x="529" y="715" on="0"/>
        <pt x="539" y="622" on="0"/>
        <pt x="547" y="520" on="0"/>
        <pt x="552" y="425" on="0"/>
      </contour>
    </TTGlyph>
    <TTGlyph name="I" xMin="51" yMin="-9" xMax="168" yMax="765">
      <contour>
        <pt x="135" y="397" on="1"/>
        <pt x="135" y="378" on="0"/>
        <pt x="140" y="308" on="0"/>
        <pt x="147" y="225" on="0"/>
        <pt x="155" y="138" on="0"/>
        <pt x="163" y="67" on="0"/>
        <pt x="168" y="20" on="0"/>
        <pt x="168" y="19" on="1"/>
        <pt x="168" y="8" on="0"/>
        <pt x="153" y="-8" on="0"/>
        <pt x="140" y="-9" on="1"/>
        <pt x="129" y="-9" on="0"/>
        <pt x="114" y="5" on="0"/>
        <pt x="112" y="16" on="1"/>
        <pt x="112" y="19" on="0"/>
        <pt x="107" y="67" on="0"/>
        <pt x="99" y="138" on="0"/>
        <pt x="91" y="224" on="0"/>
        <pt x="84" y="307" on="0"/>
        <pt x="79" y="377" on="0"/>
        <pt x="79" y="397" on="1"/>
        <pt x="79" y="427" on="0"/>
        <pt x="74" y="521" on="0"/>
        <pt x="66" y="620" on="0"/>
        <pt x="56" y="710" on="0"/>
        <pt x="51" y="737" on="1"/>
        <pt x="51" y="747" on="0"/>
        <pt x="65" y="763" on="0"/>
        <pt x="79" y="765" on="1"/>
        <pt x="89" y="765" on="0"/>
        <pt x="105" y="753" on="0"/>
        <pt x="107" y="743" on="1"/>
        <pt x="112" y="715" on="0"/>
        <pt x="122" y="622" on="0"/>
        <pt x="130" y="520" on="0"/>
        <pt x="135" y="425" on="0"/>
      </contour>
    </TTGlyph>
    <TTGlyph name="Iacute" xMin="38" yMin="-9" xMax="251" yMax="1053">
      <component glyphName="I" x="0" y="0" flags="0x204"/>
      <component glyphName="acute" x="-214" y="379" flags="0x4"/>
    </TTGlyph>
    <TTGlyph name="Icircumflex" xMin="-96" yMin="-9" xMax="241" yMax="999">
      <component glyphName="I" x="0" y="0" flags="0x204"/>
      <component glyphName="circumflex" x="-286" y="358" flags="0x4"/>
    </TTGlyph>
    <TTGlyph name="Idieresis" xMin="-42" yMin="-9" xMax="186" yMax="923">
      <component glyphName="I" x="0" y="0" flags="0x204"/>
      <component glyphName="dieresis" x="-286" y="276" flags="0x4"/>
    </TTGlyph>
    <TTGlyph name="Igrave" xMin="-54" yMin="-9" xMax="168" yMax="1020">
      <component glyphName="I" x="0" y="0" flags="0x204"/>
      <component glyphName="grave" x="-306" y="348" flags="0x4"/>
    </TTGlyph>
    <TTGlyph name="J" xMin="15" yMin="-21" xMax="497" yMax="777">
      <contour>
        <pt x="469" y="753" on="1"/>
        <pt x="474" y="725" on="0"/>
        <pt x="483" y="629" on="0"/>
        <pt x="490" y="525" on="0"/>
        <pt x="495" y="428" on="0"/>
        <pt x="495" y="398" on="1"/>
        <pt x="495" y="392" on="0"/>
        <pt x="497" y="332" on="0"/>
        <pt x="497" y="292" on="1"/>
        <pt x="497" y="254" on="0"/>
        <pt x="493" y="175" on="0"/>
        <pt x="485" y="146" on="1"/>
        <pt x="472" y="91" on="0"/>
        <pt x="420" y="27" on="0"/>
        <pt x="358" y="-6" on="0"/>
        <pt x="292" y="-17" on="0"/>
        <pt x="265" y="-20" on="1"/>
        <pt x="261" y="-20" on="0"/>
        <pt x="255" y="-21" on="0"/>
        <pt x="251" y="-21" on="1"/>
        <pt x="220" y="-21" on="0"/>
        <pt x="139" y="8" on="0"/>
        <pt x="101" y="44" on="1"/>
        <pt x="86" y="58" on="0"/>
        <pt x="55" y="98" on="0"/>
        <pt x="31" y="153" on="0"/>
        <pt x="15" y="222" on="0"/>
        <pt x="15" y="266" on="1"/>
        <pt x="15" y="271" on="0"/>
        <pt x="16" y="282" on="0"/>
        <pt x="16" y="287" on="1"/>
        <pt x="17" y="298" on="0"/>
        <pt x="33" y="314" on="0"/>
        <pt x="45" y="314" on="1"/>
        <pt x="56" y="313" on="0"/>
        <pt x="72" y="297" on="0"/>
        <pt x="72" y="284" on="1"/>
        <pt x="72" y="279" on="0"/>
        <pt x="71" y="271" on="0"/>
        <pt x="71" y="266" on="1"/>
        <pt x="71" y="230" on="0"/>
        <pt x="84" y="172" on="0"/>
        <pt x="103" y="128" on="0"/>
        <pt x="127" y="95" on="0"/>
        <pt x="139" y="84" on="1"/>
        <pt x="167" y="58" on="0"/>
        <pt x="229" y="35" on="0"/>
        <pt x="259" y="36" on="1"/>
        <pt x="286" y="39" on="0"/>
        <pt x="339" y="47" on="0"/>
        <pt x="385" y="72" on="0"/>
        <pt x="421" y="118" on="0"/>
        <pt x="431" y="159" on="1"/>
        <pt x="437" y="185" on="0"/>
        <pt x="442" y="259" on="0"/>
        <pt x="442" y="294" on="1"/>
        <pt x="442" y="335" on="0"/>
        <pt x="439" y="395" on="0"/>
        <pt x="439" y="397" on="1"/>
        <pt x="438" y="429" on="0"/>
        <pt x="433" y="526" on="0"/>
        <pt x="426" y="628" on="0"/>
        <pt x="418" y="721" on="0"/>
        <pt x="413" y="749" on="1"/>
        <pt x="413" y="759" on="0"/>
        <pt x="428" y="775" on="0"/>
        <pt x="442" y="777" on="1"/>
        <pt x="452" y="777" on="0"/>
        <pt x="467" y="764" on="0"/>
      </contour>
    </TTGlyph>
    <TTGlyph name="K" xMin="31" yMin="-9" xMax="683" yMax="765">
      <contour>
        <pt x="461" y="316" on="1"/>
        <pt x="470" y="301" on="0"/>
        <pt x="510" y="248" on="0"/>
        <pt x="557" y="187" on="0"/>
        <pt x="608" y="123" on="0"/>
        <pt x="649" y="70" on="0"/>
        <pt x="676" y="37" on="0"/>
        <pt x="676" y="36" on="1"/>
        <pt x="683" y="29" on="0"/>
        <pt x="683" y="19" on="1"/>
        <pt x="683" y="5" on="0"/>
        <pt x="672" y="-3" on="1"/>
        <pt x="664" y="-9" on="0"/>
        <pt x="655" y="-9" on="1"/>
        <pt x="640" y="-9" on="0"/>
        <pt x="633" y="1" on="1"/>
        <pt x="631" y="3" on="0"/>
        <pt x="602" y="38" on="0"/>
        <pt x="560" y="91" on="0"/>
        <pt x="510" y="155" on="0"/>
        <pt x="463" y="217" on="0"/>
        <pt x="424" y="270" on="0"/>
        <pt x="414" y="286" on="1"/>
        <pt x="400" y="309" on="0"/>
        <pt x="365" y="364" on="0"/>
        <pt x="328" y="418" on="0"/>
        <pt x="291" y="467" on="0"/>
        <pt x="274" y="485" on="1"/>
        <pt x="245" y="452" on="0"/>
        <pt x="194" y="390" on="0"/>
        <pt x="154" y="341" on="0"/>
        <pt x="142" y="326" on="1"/>
        <pt x="130" y="310" on="1"/>
        <pt x="126" y="305" on="0"/>
        <pt x="120" y="302" on="1"/>
        <pt x="123" y="258" on="0"/>
        <pt x="133" y="161" on="0"/>
        <pt x="141" y="77" on="0"/>
        <pt x="147" y="21" on="0"/>
        <pt x="147" y="19" on="1"/>
        <pt x="147" y="8" on="0"/>
        <pt x="133" y="-8" on="0"/>
        <pt x="119" y="-9" on="1"/>
        <pt x="108" y="-9" on="0"/>
        <pt x="93" y="5" on="0"/>
        <pt x="92" y="16" on="1"/>
        <pt x="91" y="19" on="0"/>
        <pt x="86" y="67" on="0"/>
        <pt x="79" y="138" on="0"/>
        <pt x="71" y="224" on="0"/>
        <pt x="64" y="307" on="0"/>
        <pt x="59" y="377" on="0"/>
        <pt x="59" y="397" on="1"/>
        <pt x="59" y="427" on="0"/>
        <pt x="54" y="521" on="0"/>
        <pt x="46" y="620" on="0"/>
        <pt x="36" y="710" on="0"/>
        <pt x="31" y="737" on="1"/>
        <pt x="31" y="747" on="0"/>
        <pt x="45" y="763" on="0"/>
        <pt x="59" y="765" on="1"/>
        <pt x="69" y="765" on="0"/>
        <pt x="84" y="753" on="0"/>
        <pt x="86" y="743" on="1"/>
        <pt x="92" y="715" on="0"/>
        <pt x="102" y="622" on="0"/>
        <pt x="110" y="520" on="0"/>
        <pt x="115" y="425" on="0"/>
        <pt x="115" y="397" on="1"/>
        <pt x="115" y="381" on="1"/>
        <pt x="129" y="399" on="0"/>
        <pt x="169" y="448" on="0"/>
        <pt x="214" y="502" on="0"/>
        <pt x="264" y="559" on="0"/>
        <pt x="288" y="585" on="1"/>
        <pt x="324" y="624" on="0"/>
        <pt x="385" y="684" on="0"/>
        <pt x="430" y="725" on="0"/>
        <pt x="456" y="747" on="0"/>
        <pt x="457" y="748" on="1"/>
        <pt x="464" y="754" on="0"/>
        <pt x="475" y="754" on="1"/>
        <pt x="488" y="754" on="0"/>
        <pt x="497" y="744" on="1"/>
        <pt x="503" y="736" on="0"/>
        <pt x="503" y="726" on="1"/>
        <pt x="503" y="713" on="0"/>
        <pt x="493" y="705" on="1"/>
        <pt x="492" y="704" on="0"/>
        <pt x="400" y="622" on="0"/>
        <pt x="329" y="547" on="1"/>
        <pt x="324" y="542" on="0"/>
        <pt x="316" y="532" on="0"/>
        <pt x="311" y="527" on="1"/>
        <pt x="330" y="508" on="0"/>
        <pt x="371" y="455" on="0"/>
        <pt x="410" y="397" on="0"/>
        <pt x="446" y="340" on="0"/>
      </contour>
    </TTGlyph>
    <TTGlyph name="L" xMin="51" yMin="-9" xMax="600" yMax="765">
      <contour>
        <pt x="577" y="51" on="1"/>
        <pt x="588" y="49" on="0"/>
        <pt x="600" y="32" on="0"/>
        <pt x="599" y="18" on="1"/>
        <pt x="594" y="-5" on="0"/>
        <pt x="566" y="-4" on="1"/>
        <pt x="565" y="-4" on="0"/>
        <pt x="474" y="9" on="0"/>
        <pt x="397" y="9" on="1"/>
        <pt x="358" y="9" on="0"/>
        <pt x="276" y="3" on="0"/>
        <pt x="208" y="-3" on="0"/>
        <pt x="164" y="-9" on="0"/>
        <pt x="163" y="-9" on="1"/>
        <pt x="162" y="-9" on="0"/>
        <pt x="158" y="-9" on="0"/>
        <pt x="150" y="-8" on="1"/>
        <pt x="148" y="-8" on="0"/>
        <pt x="144" y="-9" on="0"/>
        <pt x="140" y="-9" on="1"/>
        <pt x="129" y="-9" on="0"/>
        <pt x="114" y="5" on="0"/>
        <pt x="112" y="16" on="1"/>
        <pt x="112" y="19" on="0"/>
        <pt x="107" y="67" on="0"/>
        <pt x="99" y="138" on="0"/>
        <pt x="91" y="224" on="0"/>
        <pt x="84" y="307" on="0"/>
        <pt x="79" y="377" on="0"/>
        <pt x="79" y="397" on="1"/>
        <pt x="79" y="427" on="0"/>
        <pt x="74" y="521" on="0"/>
        <pt x="66" y="620" on="0"/>
        <pt x="56" y="710" on="0"/>
        <pt x="51" y="737" on="1"/>
        <pt x="51" y="747" on="0"/>
        <pt x="65" y="763" on="0"/>
        <pt x="79" y="765" on="1"/>
        <pt x="89" y="765" on="0"/>
        <pt x="105" y="753" on="0"/>
        <pt x="107" y="743" on="1"/>
        <pt x="112" y="715" on="0"/>
        <pt x="122" y="622" on="0"/>
        <pt x="130" y="520" on="0"/>
        <pt x="135" y="425" on="0"/>
        <pt x="135" y="397" on="1"/>
        <pt x="135" y="373" on="0"/>
        <pt x="142" y="279" on="0"/>
        <pt x="152" y="174" on="0"/>
        <pt x="162" y="76" on="0"/>
        <pt x="165" y="48" on="1"/>
        <pt x="177" y="49" on="0"/>
        <pt x="226" y="55" on="0"/>
        <pt x="290" y="61" on="0"/>
        <pt x="362" y="65" on="0"/>
        <pt x="397" y="65" on="1"/>
        <pt x="478" y="65" on="0"/>
        <pt x="575" y="51" on="0"/>
      </contour>
    </TTGlyph>
    <TTGlyph name="Lslash" xMin="-49" yMin="-9" xMax="600" yMax="765">
      <contour>
        <pt x="236" y="476" on="1"/>
        <pt x="243" y="478" on="0"/>
        <pt x="259" y="469" on="0"/>
        <pt x="264" y="461" on="1"/>
        <pt x="274" y="435" on="0"/>
        <pt x="260" y="426" on="1"/>
        <pt x="257" y="424" on="0"/>
        <pt x="190" y="401" on="0"/>
        <pt x="140" y="371" on="1"/>
        <pt x="140" y="339" on="0"/>
        <pt x="146" y="248" on="0"/>
        <pt x="154" y="155" on="0"/>
        <pt x="162" y="72" on="0"/>
        <pt x="165" y="48" on="1"/>
        <pt x="177" y="49" on="0"/>
        <pt x="226" y="55" on="0"/>
        <pt x="290" y="61" on="0"/>
        <pt x="362" y="65" on="0"/>
        <pt x="397" y="65" on="1"/>
        <pt x="478" y="65" on="0"/>
        <pt x="575" y="51" on="0"/>
        <pt x="577" y="51" on="1"/>
        <pt x="588" y="49" on="0"/>
        <pt x="600" y="33" on="0"/>
        <pt x="600" y="23" on="1"/>
        <pt x="594" y="-5" on="0"/>
        <pt x="572" y="-5" on="1"/>
        <pt x="567" y="-4" on="0"/>
        <pt x="474" y="9" on="0"/>
        <pt x="397" y="9" on="1"/>
        <pt x="358" y="9" on="0"/>
        <pt x="276" y="3" on="0"/>
        <pt x="208" y="-3" on="0"/>
        <pt x="164" y="-9" on="0"/>
        <pt x="163" y="-9" on="1"/>
        <pt x="153" y="-9" on="0"/>
        <pt x="150" y="-8" on="1"/>
        <pt x="144" y="-9" on="0"/>
        <pt x="141" y="-9" on="0"/>
        <pt x="140" y="-9" on="1"/>
        <pt x="129" y="-9" on="0"/>
        <pt x="114" y="5" on="0"/>
        <pt x="112" y="16" on="1"/>
        <pt x="112" y="20" on="0"/>
        <pt x="104" y="87" on="0"/>
        <pt x="95" y="183" on="0"/>
        <pt x="85" y="290" on="0"/>
        <pt x="82" y="333" on="1"/>
        <pt x="47" y="308" on="0"/>
        <pt x="-1" y="267" on="0"/>
        <pt x="-1" y="266" on="1"/>
        <pt x="-19" y="255" on="0"/>
        <pt x="-34" y="275" on="1"/>
        <pt x="-49" y="299" on="0"/>
        <pt x="-35" y="311" on="1"/>
        <pt x="-34" y="312" on="0"/>
        <pt x="-14" y="328" on="0"/>
        <pt x="17" y="354" on="0"/>
        <pt x="57" y="384" on="0"/>
        <pt x="79" y="399" on="1"/>
        <pt x="79" y="430" on="0"/>
        <pt x="74" y="523" on="0"/>
        <pt x="67" y="620" on="0"/>
        <pt x="57" y="707" on="0"/>
        <pt x="52" y="732" on="1"/>
        <pt x="51" y="746" on="0"/>
        <pt x="63" y="763" on="0"/>
        <pt x="74" y="765" on="1"/>
        <pt x="102" y="765" on="0"/>
        <pt x="107" y="743" on="1"/>
        <pt x="111" y="719" on="0"/>
        <pt x="121" y="641" on="0"/>
        <pt x="128" y="553" on="0"/>
        <pt x="134" y="466" on="0"/>
        <pt x="135" y="432" on="1"/>
        <pt x="179" y="456" on="0"/>
        <pt x="234" y="475" on="0"/>
      </contour>
    </TTGlyph>
    <TTGlyph name="M" xMin="51" yMin="-9" xMax="839" yMax="779">
      <contour>
        <pt x="807" y="397" on="1"/>
        <pt x="807" y="378" on="0"/>
        <pt x="812" y="308" on="0"/>
        <pt x="819" y="225" on="0"/>
        <pt x="827" y="138" on="0"/>
        <pt x="834" y="67" on="0"/>
        <pt x="839" y="20" on="0"/>
        <pt x="839" y="19" on="1"/>
        <pt x="839" y="8" on="0"/>
        <pt x="825" y="-8" on="0"/>
        <pt x="811" y="-9" on="1"/>
        <pt x="800" y="-9" on="0"/>
        <pt x="785" y="5" on="0"/>
        <pt x="783" y="16" on="1"/>
        <pt x="783" y="19" on="0"/>
        <pt x="778" y="67" on="0"/>
        <pt x="771" y="138" on="0"/>
        <pt x="763" y="224" on="0"/>
        <pt x="756" y="307" on="0"/>
        <pt x="751" y="377" on="0"/>
        <pt x="751" y="397" on="1"/>
        <pt x="751" y="418" on="0"/>
        <pt x="749" y="478" on="0"/>
        <pt x="744" y="546" on="0"/>
        <pt x="738" y="616" on="0"/>
        <pt x="735" y="647" on="1"/>
        <pt x="711" y="606" on="0"/>
        <pt x="653" y="523" on="0"/>
        <pt x="630" y="490" on="1"/>
        <pt x="620" y="476" on="0"/>
        <pt x="586" y="420" on="0"/>
        <pt x="547" y="352" on="0"/>
        <pt x="508" y="281" on="0"/>
        <pt x="475" y="223" on="0"/>
        <pt x="454" y="185" on="0"/>
        <pt x="454" y="184" on="1"/>
        <pt x="446" y="170" on="0"/>
        <pt x="430" y="170" on="1"/>
        <pt x="423" y="170" on="0"/>
        <pt x="416" y="173" on="1"/>
        <pt x="402" y="181" on="0"/>
        <pt x="402" y="198" on="1"/>
        <pt x="402" y="205" on="0"/>
        <pt x="405" y="211" on="1"/>
        <pt x="420" y="245" on="1"/>
        <pt x="418" y="247" on="0"/>
        <pt x="390" y="282" on="0"/>
        <pt x="348" y="335" on="0"/>
        <pt x="297" y="399" on="0"/>
        <pt x="250" y="461" on="0"/>
        <pt x="211" y="514" on="0"/>
        <pt x="201" y="530" on="1"/>
        <pt x="184" y="558" on="0"/>
        <pt x="141" y="626" on="0"/>
        <pt x="118" y="658" on="1"/>
        <pt x="122" y="625" on="0"/>
        <pt x="128" y="550" on="0"/>
        <pt x="132" y="479" on="0"/>
        <pt x="135" y="418" on="0"/>
        <pt x="135" y="397" on="1"/>
        <pt x="135" y="378" on="0"/>
        <pt x="140" y="308" on="0"/>
        <pt x="147" y="225" on="0"/>
        <pt x="155" y="138" on="0"/>
        <pt x="163" y="67" on="0"/>
        <pt x="168" y="20" on="0"/>
        <pt x="168" y="19" on="1"/>
        <pt x="168" y="8" on="0"/>
        <pt x="153" y="-8" on="0"/>
        <pt x="140" y="-9" on="1"/>
        <pt x="129" y="-9" on="0"/>
        <pt x="114" y="5" on="0"/>
        <pt x="112" y="16" on="1"/>
        <pt x="112" y="19" on="0"/>
        <pt x="107" y="67" on="0"/>
        <pt x="99" y="138" on="0"/>
        <pt x="91" y="224" on="0"/>
        <pt x="84" y="307" on="0"/>
        <pt x="79" y="377" on="0"/>
        <pt x="79" y="397" on="1"/>
        <pt x="79" y="427" on="0"/>
        <pt x="74" y="521" on="0"/>
        <pt x="66" y="620" on="0"/>
        <pt x="56" y="710" on="0"/>
        <pt x="51" y="737" on="1"/>
        <pt x="51" y="739" on="0"/>
        <pt x="52" y="744" on="0"/>
        <pt x="51" y="751" on="1"/>
        <pt x="51" y="763" on="0"/>
        <pt x="59" y="771" on="1"/>
        <pt x="69" y="779" on="0"/>
        <pt x="79" y="779" on="1"/>
        <pt x="91" y="779" on="0"/>
        <pt x="99" y="771" on="1"/>
        <pt x="118" y="752" on="0"/>
        <pt x="158" y="699" on="0"/>
        <pt x="197" y="642" on="0"/>
        <pt x="234" y="584" on="0"/>
        <pt x="249" y="560" on="1"/>
        <pt x="261" y="541" on="0"/>
        <pt x="315" y="468" on="0"/>
        <pt x="377" y="388" on="0"/>
        <pt x="436" y="315" on="0"/>
        <pt x="451" y="296" on="1"/>
        <pt x="467" y="326" on="0"/>
        <pt x="506" y="393" on="0"/>
        <pt x="542" y="456" on="0"/>
        <pt x="574" y="509" on="0"/>
        <pt x="584" y="523" on="1"/>
        <pt x="600" y="545" on="0"/>
        <pt x="638" y="599" on="0"/>
        <pt x="674" y="654" on="0"/>
        <pt x="706" y="708" on="0"/>
        <pt x="715" y="731" on="1"/>
        <pt x="717" y="736" on="0"/>
        <pt x="723" y="742" on="1"/>
        <pt x="726" y="761" on="0"/>
        <pt x="751" y="765" on="1"/>
        <pt x="773" y="765" on="0"/>
        <pt x="778" y="743" on="1"/>
        <pt x="784" y="715" on="0"/>
        <pt x="794" y="622" on="0"/>
        <pt x="802" y="520" on="0"/>
        <pt x="807" y="425" on="0"/>
      </contour>
    </TTGlyph>
    <TTGlyph name="N" xMin="46" yMin="-14" xMax="614" yMax="765">
      <contour>
        <pt x="581" y="397" on="1"/>
        <pt x="581" y="378" on="0"/>
        <pt x="586" y="308" on="0"/>
        <pt x="593" y="225" on="0"/>
        <pt x="601" y="138" on="0"/>
        <pt x="609" y="67" on="0"/>
        <pt x="614" y="20" on="0"/>
        <pt x="614" y="19" on="1"/>
        <pt x="614" y="0" on="0"/>
        <pt x="593" y="-10" on="1"/>
        <pt x="586" y="-14" on="0"/>
        <pt x="578" y="-14" on="1"/>
        <pt x="563" y="-14" on="0"/>
        <pt x="554" y="-2" on="1"/>
        <pt x="552" y="1" on="0"/>
        <pt x="520" y="49" on="0"/>
        <pt x="474" y="120" on="0"/>
        <pt x="417" y="206" on="0"/>
        <pt x="365" y="288" on="0"/>
        <pt x="321" y="358" on="0"/>
        <pt x="310" y="378" on="1"/>
        <pt x="294" y="406" on="0"/>
        <pt x="243" y="491" on="0"/>
        <pt x="186" y="581" on="0"/>
        <pt x="130" y="667" on="0"/>
        <pt x="109" y="696" on="1"/>
        <pt x="113" y="663" on="0"/>
        <pt x="121" y="579" on="0"/>
        <pt x="127" y="495" on="0"/>
        <pt x="130" y="421" on="0"/>
        <pt x="130" y="397" on="1"/>
        <pt x="130" y="378" on="0"/>
        <pt x="135" y="308" on="0"/>
        <pt x="142" y="225" on="0"/>
        <pt x="150" y="138" on="0"/>
        <pt x="158" y="67" on="0"/>
        <pt x="163" y="20" on="0"/>
        <pt x="163" y="19" on="1"/>
        <pt x="163" y="8" on="0"/>
        <pt x="148" y="-8" on="0"/>
        <pt x="135" y="-9" on="1"/>
        <pt x="124" y="-9" on="0"/>
        <pt x="108" y="5" on="0"/>
        <pt x="107" y="16" on="1"/>
        <pt x="107" y="19" on="0"/>
        <pt x="102" y="67" on="0"/>
        <pt x="94" y="138" on="0"/>
        <pt x="86" y="224" on="0"/>
        <pt x="79" y="307" on="0"/>
        <pt x="74" y="377" on="0"/>
        <pt x="74" y="397" on="1"/>
        <pt x="74" y="427" on="0"/>
        <pt x="69" y="521" on="0"/>
        <pt x="61" y="620" on="0"/>
        <pt x="51" y="710" on="0"/>
        <pt x="46" y="737" on="1"/>
        <pt x="46" y="747" on="0"/>
        <pt x="60" y="763" on="0"/>
        <pt x="74" y="765" on="1"/>
        <pt x="82" y="765" on="0"/>
        <pt x="95" y="759" on="0"/>
        <pt x="100" y="755" on="1"/>
        <pt x="108" y="760" on="0"/>
        <pt x="117" y="760" on="1"/>
        <pt x="131" y="760" on="0"/>
        <pt x="140" y="749" on="1"/>
        <pt x="154" y="731" on="0"/>
        <pt x="191" y="676" on="0"/>
        <pt x="233" y="612" on="0"/>
        <pt x="276" y="544" on="0"/>
        <pt x="316" y="480" on="0"/>
        <pt x="348" y="424" on="0"/>
        <pt x="359" y="405" on="1"/>
        <pt x="370" y="385" on="0"/>
        <pt x="414" y="315" on="0"/>
        <pt x="468" y="231" on="0"/>
        <pt x="525" y="144" on="0"/>
        <pt x="548" y="109" on="1"/>
        <pt x="544" y="145" on="0"/>
        <pt x="536" y="229" on="0"/>
        <pt x="529" y="309" on="0"/>
        <pt x="525" y="377" on="0"/>
        <pt x="525" y="397" on="1"/>
        <pt x="525" y="427" on="0"/>
        <pt x="520" y="521" on="0"/>
        <pt x="512" y="620" on="0"/>
        <pt x="502" y="710" on="0"/>
        <pt x="497" y="737" on="1"/>
        <pt x="497" y="747" on="0"/>
        <pt x="511" y="763" on="0"/>
        <pt x="525" y="765" on="1"/>
        <pt x="535" y="765" on="0"/>
        <pt x="551" y="753" on="0"/>
        <pt x="553" y="743" on="1"/>
        <pt x="558" y="715" on="0"/>
        <pt x="568" y="622" on="0"/>
        <pt x="576" y="520" on="0"/>
        <pt x="581" y="425" on="0"/>
      </contour>
    </TTGlyph>
    <TTGlyph name="Ntilde" xMin="46" yMin="-14" xMax="614" yMax="938">
      <component glyphName="N" x="0" y="0" flags="0x204"/>
      <component glyphName="tilde" x="-50" y="297" flags="0x4"/>
    </TTGlyph>
    <TTGlyph name="O" xMin="46" yMin="7" xMax="680" yMax="785">
      <contour>
        <pt x="578" y="219" on="1"/>
        <pt x="592" y="247" on="0"/>
        <pt x="624" y="338" on="0"/>
        <pt x="624" y="395" on="1"/>
        <pt x="624" y="439" on="0"/>
        <pt x="611" y="484" on="1"/>
        <pt x="599" y="523" on="0"/>
        <pt x="566" y="586" on="0"/>
        <pt x="528" y="635" on="0"/>
        <pt x="489" y="671" on="0"/>
        <pt x="472" y="683" on="1"/>
        <pt x="435" y="709" on="0"/>
        <pt x="372" y="729" on="0"/>
        <pt x="351" y="729" on="1"/>
        <pt x="322" y="720" on="0"/>
        <pt x="284" y="702" on="0"/>
        <pt x="283" y="702" on="1"/>
        <pt x="277" y="699" on="0"/>
        <pt x="270" y="699" on="1"/>
        <pt x="257" y="699" on="0"/>
        <pt x="250" y="708" on="1"/>
        <pt x="215" y="689" on="0"/>
        <pt x="151" y="589" on="0"/>
        <pt x="130" y="517" on="1"/>
        <pt x="116" y="470" on="0"/>
        <pt x="102" y="376" on="0"/>
        <pt x="102" y="331" on="1"/>
        <pt x="102" y="268" on="0"/>
        <pt x="116" y="220" on="1"/>
        <pt x="126" y="188" on="0"/>
        <pt x="156" y="140" on="0"/>
        <pt x="192" y="107" on="0"/>
        <pt x="231" y="86" on="0"/>
        <pt x="248" y="80" on="1"/>
        <pt x="294" y="63" on="0"/>
        <pt x="346" y="63" on="1"/>
        <pt x="391" y="63" on="0"/>
        <pt x="432" y="75" on="1"/>
        <pt x="463" y="84" on="0"/>
        <pt x="544" y="156" on="0"/>
      </contour>
      <contour>
        <pt x="504" y="728" on="1"/>
        <pt x="524" y="714" on="0"/>
        <pt x="569" y="672" on="0"/>
        <pt x="613" y="616" on="0"/>
        <pt x="651" y="545" on="0"/>
        <pt x="665" y="500" on="1"/>
        <pt x="680" y="449" on="0"/>
        <pt x="680" y="395" on="1"/>
        <pt x="680" y="344" on="0"/>
        <pt x="653" y="242" on="0"/>
        <pt x="627" y="193" on="1"/>
        <pt x="592" y="129" on="0"/>
        <pt x="496" y="36" on="0"/>
        <pt x="448" y="22" on="1"/>
        <pt x="398" y="7" on="0"/>
        <pt x="346" y="7" on="1"/>
        <pt x="286" y="7" on="0"/>
        <pt x="229" y="27" on="1"/>
        <pt x="207" y="35" on="0"/>
        <pt x="159" y="62" on="0"/>
        <pt x="113" y="104" on="0"/>
        <pt x="74" y="163" on="0"/>
        <pt x="62" y="204" on="1"/>
        <pt x="46" y="258" on="0"/>
        <pt x="46" y="331" on="1"/>
        <pt x="46" y="379" on="0"/>
        <pt x="61" y="482" on="0"/>
        <pt x="76" y="533" on="1"/>
        <pt x="104" y="629" on="0"/>
        <pt x="195" y="751" on="0"/>
        <pt x="249" y="768" on="1"/>
        <pt x="264" y="772" on="0"/>
        <pt x="280" y="772" on="1"/>
        <pt x="285" y="772" on="0"/>
        <pt x="295" y="772" on="0"/>
        <pt x="300" y="770" on="1"/>
        <pt x="313" y="775" on="0"/>
        <pt x="335" y="782" on="1"/>
        <pt x="345" y="785" on="0"/>
        <pt x="359" y="785" on="1"/>
        <pt x="389" y="785" on="0"/>
        <pt x="466" y="755" on="0"/>
      </contour>
    </TTGlyph>
    <TTGlyph name="OE" xMin="46" yMin="-23" xMax="1062" yMax="771">
      <contour>
        <pt x="432" y="61" on="1"/>
        <pt x="462" y="70" on="0"/>
        <pt x="530" y="130" on="0"/>
        <pt x="557" y="172" on="1"/>
        <pt x="554" y="203" on="0"/>
        <pt x="549" y="265" on="0"/>
        <pt x="544" y="321" on="0"/>
        <pt x="542" y="368" on="0"/>
        <pt x="542" y="383" on="1"/>
        <pt x="542" y="403" on="0"/>
        <pt x="540" y="459" on="0"/>
        <pt x="536" y="522" on="0"/>
        <pt x="530" y="589" on="0"/>
        <pt x="527" y="619" on="1"/>
        <pt x="503" y="646" on="0"/>
        <pt x="452" y="683" on="0"/>
        <pt x="407" y="706" on="0"/>
        <pt x="370" y="716" on="0"/>
        <pt x="359" y="716" on="1"/>
        <pt x="356" y="716" on="0"/>
        <pt x="347" y="713" on="1"/>
        <pt x="345" y="702" on="0"/>
        <pt x="337" y="695" on="1"/>
        <pt x="330" y="688" on="0"/>
        <pt x="319" y="688" on="1"/>
        <pt x="308" y="688" on="0"/>
        <pt x="300" y="696" on="1"/>
        <pt x="292" y="691" on="0"/>
        <pt x="288" y="690" on="1"/>
        <pt x="285" y="689" on="0"/>
        <pt x="283" y="688" on="1"/>
        <pt x="277" y="685" on="0"/>
        <pt x="270" y="685" on="1"/>
        <pt x="257" y="685" on="0"/>
        <pt x="250" y="694" on="1"/>
        <pt x="215" y="675" on="0"/>
        <pt x="151" y="575" on="0"/>
        <pt x="130" y="503" on="1"/>
        <pt x="116" y="456" on="0"/>
        <pt x="102" y="362" on="0"/>
        <pt x="102" y="317" on="1"/>
        <pt x="102" y="254" on="0"/>
        <pt x="116" y="206" on="1"/>
        <pt x="126" y="174" on="0"/>
        <pt x="156" y="126" on="0"/>
        <pt x="192" y="93" on="0"/>
        <pt x="231" y="72" on="0"/>
        <pt x="248" y="66" on="1"/>
        <pt x="294" y="49" on="0"/>
        <pt x="346" y="49" on="1"/>
        <pt x="391" y="49" on="0"/>
      </contour>
      <contour>
        <pt x="1040" y="37" on="1"/>
        <pt x="1062" y="32" on="0"/>
        <pt x="1062" y="4" on="1"/>
        <pt x="1060" y="-7" on="0"/>
        <pt x="1043" y="-19" on="0"/>
        <pt x="1029" y="-18" on="1"/>
        <pt x="1028" y="-18" on="0"/>
        <pt x="937" y="-5" on="0"/>
        <pt x="859" y="-5" on="1"/>
        <pt x="820" y="-5" on="0"/>
        <pt x="738" y="-11" on="0"/>
        <pt x="669" y="-17" on="0"/>
        <pt x="624" y="-23" on="0"/>
        <pt x="622" y="-23" on="1"/>
        <pt x="615" y="-23" on="0"/>
        <pt x="612" y="-22" on="1"/>
        <pt x="610" y="-22" on="0"/>
        <pt x="607" y="-23" on="0"/>
        <pt x="602" y="-23" on="1"/>
        <pt x="591" y="-23" on="0"/>
        <pt x="576" y="-9" on="0"/>
        <pt x="575" y="2" on="1"/>
        <pt x="574" y="5" on="0"/>
        <pt x="569" y="54" on="0"/>
        <pt x="565" y="90" on="1"/>
        <pt x="537" y="59" on="0"/>
        <pt x="477" y="16" on="0"/>
        <pt x="448" y="8" on="1"/>
        <pt x="398" y="-7" on="0"/>
        <pt x="346" y="-7" on="1"/>
        <pt x="286" y="-7" on="0"/>
        <pt x="229" y="13" on="1"/>
        <pt x="207" y="21" on="0"/>
        <pt x="159" y="48" on="0"/>
        <pt x="113" y="90" on="0"/>
        <pt x="74" y="149" on="0"/>
        <pt x="62" y="190" on="1"/>
        <pt x="46" y="244" on="0"/>
        <pt x="46" y="317" on="1"/>
        <pt x="46" y="365" on="0"/>
        <pt x="61" y="468" on="0"/>
        <pt x="76" y="519" on="1"/>
        <pt x="104" y="615" on="0"/>
        <pt x="195" y="737" on="0"/>
        <pt x="249" y="754" on="1"/>
        <pt x="264" y="758" on="0"/>
        <pt x="280" y="758" on="1"/>
        <pt x="285" y="758" on="0"/>
        <pt x="295" y="757" on="0"/>
        <pt x="300" y="756" on="1"/>
        <pt x="313" y="761" on="0"/>
        <pt x="335" y="768" on="1"/>
        <pt x="345" y="771" on="0"/>
        <pt x="359" y="771" on="1"/>
        <pt x="391" y="771" on="0"/>
        <pt x="474" y="738" on="0"/>
        <pt x="517" y="705" on="1"/>
        <pt x="516" y="709" on="0"/>
        <pt x="515" y="716" on="0"/>
        <pt x="514" y="723" on="1"/>
        <pt x="514" y="733" on="0"/>
        <pt x="528" y="749" on="0"/>
        <pt x="542" y="751" on="1"/>
        <pt x="551" y="751" on="0"/>
        <pt x="567" y="740" on="0"/>
        <pt x="569" y="730" on="1"/>
        <pt x="576" y="740" on="0"/>
        <pt x="588" y="742" on="1"/>
        <pt x="590" y="742" on="0"/>
        <pt x="635" y="748" on="0"/>
        <pt x="704" y="755" on="0"/>
        <pt x="788" y="761" on="0"/>
        <pt x="829" y="761" on="1"/>
        <pt x="911" y="761" on="0"/>
        <pt x="1008" y="747" on="0"/>
        <pt x="1010" y="746" on="1"/>
        <pt x="1032" y="741" on="0"/>
        <pt x="1031" y="713" on="1"/>
        <pt x="1028" y="691" on="0"/>
        <pt x="998" y="691" on="1"/>
        <pt x="978" y="694" on="0"/>
        <pt x="952" y="698" on="1"/>
        <pt x="930" y="700" on="0"/>
        <pt x="867" y="705" on="0"/>
        <pt x="829" y="705" on="1"/>
        <pt x="790" y="705" on="0"/>
        <pt x="708" y="699" on="0"/>
        <pt x="639" y="692" on="0"/>
        <pt x="594" y="686" on="0"/>
        <pt x="592" y="686" on="1"/>
        <pt x="583" y="686" on="0"/>
        <pt x="575" y="691" on="1"/>
        <pt x="577" y="679" on="0"/>
        <pt x="580" y="651" on="0"/>
        <pt x="582" y="634" on="1"/>
        <pt x="585" y="601" on="0"/>
        <pt x="591" y="530" on="0"/>
        <pt x="596" y="462" on="0"/>
        <pt x="598" y="404" on="0"/>
        <pt x="598" y="384" on="1"/>
        <pt x="607" y="385" on="0"/>
        <pt x="647" y="390" on="0"/>
        <pt x="702" y="395" on="0"/>
        <pt x="768" y="399" on="0"/>
        <pt x="803" y="401" on="1"/>
        <pt x="814" y="401" on="0"/>
        <pt x="830" y="385" on="0"/>
        <pt x="831" y="373" on="1"/>
        <pt x="831" y="362" on="0"/>
        <pt x="815" y="345" on="0"/>
        <pt x="804" y="345" on="1"/>
        <pt x="768" y="343" on="0"/>
        <pt x="697" y="338" on="0"/>
        <pt x="641" y="333" on="0"/>
        <pt x="603" y="328" on="0"/>
        <pt x="600" y="328" on="1"/>
        <pt x="602" y="294" on="0"/>
        <pt x="610" y="211" on="0"/>
        <pt x="618" y="128" on="0"/>
        <pt x="625" y="56" on="0"/>
        <pt x="628" y="34" on="1"/>
        <pt x="640" y="35" on="0"/>
        <pt x="689" y="41" on="0"/>
        <pt x="752" y="47" on="0"/>
        <pt x="824" y="51" on="0"/>
        <pt x="859" y="51" on="1"/>
        <pt x="941" y="51" on="0"/>
        <pt x="1038" y="37" on="0"/>
      </contour>
    </TTGlyph>
    <TTGlyph name="Oacute" xMin="46" yMin="7" xMax="680" yMax="1043">
      <component glyphName="O" x="0" y="0" flags="0x204"/>
      <component glyphName="acute" x="-19" y="369" flags="0x4"/>
    </TTGlyph>
    <TTGlyph name="Ocircumflex" xMin="46" yMin="7" xMax="680" yMax="1010">
      <component glyphName="O" x="0" y="0" flags="0x204"/>
      <component glyphName="circumflex" x="-19" y="369" flags="0x4"/>
    </TTGlyph>
    <TTGlyph name="Odieresis" xMin="46" yMin="7" xMax="680" yMax="934">
      <component glyphName="O" x="0" y="0" flags="0x204"/>
      <component glyphName="dieresis" x="0" y="287" flags="0x4"/>
    </TTGlyph>
    <TTGlyph name="Ograve" xMin="46" yMin="7" xMax="680" yMax="1030">
      <component glyphName="O" x="0" y="0" flags="0x204"/>
      <component glyphName="grave" x="-9" y="358" flags="0x4"/>
    </TTGlyph>
    <TTGlyph name="Oslash" xMin="0" yMin="-16" xMax="720" yMax="790">
      <contour>
        <pt x="608" y="484" on="1"/>
        <pt x="600" y="510" on="0"/>
        <pt x="580" y="554" on="0"/>
        <pt x="569" y="574" on="1"/>
        <pt x="545" y="547" on="0"/>
        <pt x="496" y="493" on="0"/>
        <pt x="451" y="444" on="0"/>
        <pt x="412" y="402" on="0"/>
        <pt x="397" y="387" on="1"/>
        <pt x="381" y="370" on="0"/>
        <pt x="328" y="312" on="0"/>
        <pt x="265" y="242" on="0"/>
        <pt x="197" y="165" on="0"/>
        <pt x="166" y="129" on="1"/>
        <pt x="186" y="110" on="0"/>
        <pt x="227" y="87" on="0"/>
        <pt x="245" y="80" on="1"/>
        <pt x="291" y="63" on="0"/>
        <pt x="343" y="63" on="1"/>
        <pt x="388" y="63" on="0"/>
        <pt x="429" y="75" on="1"/>
        <pt x="460" y="84" on="0"/>
        <pt x="542" y="157" on="0"/>
        <pt x="575" y="219" on="1"/>
        <pt x="589" y="247" on="0"/>
        <pt x="621" y="338" on="0"/>
        <pt x="621" y="395" on="1"/>
        <pt x="621" y="439" on="0"/>
      </contour>
      <contour>
        <pt x="113" y="220" on="1"/>
        <pt x="117" y="207" on="0"/>
        <pt x="127" y="185" on="0"/>
        <pt x="132" y="175" on="1"/>
        <pt x="163" y="210" on="0"/>
        <pt x="229" y="285" on="0"/>
        <pt x="290" y="353" on="0"/>
        <pt x="341" y="409" on="0"/>
        <pt x="357" y="426" on="1"/>
        <pt x="373" y="443" on="0"/>
        <pt x="414" y="487" on="0"/>
        <pt x="461" y="538" on="0"/>
        <pt x="511" y="594" on="0"/>
        <pt x="535" y="621" on="1"/>
        <pt x="518" y="641" on="0"/>
        <pt x="484" y="672" on="0"/>
        <pt x="469" y="683" on="1"/>
        <pt x="432" y="709" on="0"/>
        <pt x="369" y="729" on="0"/>
        <pt x="348" y="729" on="1"/>
        <pt x="319" y="720" on="0"/>
        <pt x="281" y="702" on="0"/>
        <pt x="280" y="702" on="1"/>
        <pt x="274" y="699" on="0"/>
        <pt x="267" y="699" on="1"/>
        <pt x="254" y="699" on="0"/>
        <pt x="247" y="708" on="1"/>
        <pt x="212" y="689" on="0"/>
        <pt x="148" y="589" on="0"/>
        <pt x="127" y="517" on="1"/>
        <pt x="113" y="470" on="0"/>
        <pt x="99" y="376" on="0"/>
        <pt x="99" y="331" on="1"/>
        <pt x="99" y="268" on="0"/>
      </contour>
      <contour>
        <pt x="709" y="784" on="1"/>
        <pt x="720" y="776" on="0"/>
        <pt x="720" y="762" on="1"/>
        <pt x="720" y="751" on="0"/>
        <pt x="714" y="744" on="1"/>
        <pt x="697" y="722" on="0"/>
        <pt x="641" y="656" on="0"/>
        <pt x="607" y="618" on="1"/>
        <pt x="624" y="593" on="0"/>
        <pt x="651" y="535" on="0"/>
        <pt x="662" y="500" on="1"/>
        <pt x="677" y="449" on="0"/>
        <pt x="677" y="395" on="1"/>
        <pt x="677" y="344" on="0"/>
        <pt x="650" y="242" on="0"/>
        <pt x="624" y="193" on="1"/>
        <pt x="607" y="161" on="0"/>
        <pt x="565" y="105" on="0"/>
        <pt x="518" y="60" on="0"/>
        <pt x="469" y="29" on="0"/>
        <pt x="445" y="22" on="1"/>
        <pt x="395" y="7" on="0"/>
        <pt x="343" y="7" on="1"/>
        <pt x="283" y="7" on="0"/>
        <pt x="226" y="27" on="1"/>
        <pt x="203" y="35" on="0"/>
        <pt x="153" y="64" on="0"/>
        <pt x="129" y="87" on="1"/>
        <pt x="94" y="47" on="0"/>
        <pt x="50" y="-5" on="0"/>
        <pt x="49" y="-6" on="1"/>
        <pt x="41" y="-16" on="0"/>
        <pt x="28" y="-16" on="1"/>
        <pt x="19" y="-16" on="0"/>
        <pt x="10" y="-9" on="1"/>
        <pt x="0" y="0" on="0"/>
        <pt x="0" y="12" on="1"/>
        <pt x="0" y="23" on="0"/>
        <pt x="7" y="31" on="1"/>
        <pt x="10" y="34" on="0"/>
        <pt x="58" y="89" on="0"/>
        <pt x="93" y="130" on="1"/>
        <pt x="83" y="146" on="0"/>
        <pt x="66" y="183" on="0"/>
        <pt x="59" y="204" on="1"/>
        <pt x="51" y="232" on="0"/>
        <pt x="43" y="296" on="0"/>
        <pt x="43" y="331" on="1"/>
        <pt x="43" y="379" on="0"/>
        <pt x="58" y="482" on="0"/>
        <pt x="73" y="533" on="1"/>
        <pt x="102" y="629" on="0"/>
        <pt x="192" y="751" on="0"/>
        <pt x="246" y="768" on="1"/>
        <pt x="261" y="772" on="0"/>
        <pt x="277" y="772" on="1"/>
        <pt x="282" y="772" on="0"/>
        <pt x="292" y="772" on="0"/>
        <pt x="297" y="770" on="1"/>
        <pt x="310" y="775" on="0"/>
        <pt x="332" y="782" on="1"/>
        <pt x="342" y="785" on="0"/>
        <pt x="356" y="785" on="1"/>
        <pt x="386" y="785" on="0"/>
        <pt x="463" y="755" on="0"/>
        <pt x="501" y="728" on="1"/>
        <pt x="536" y="704" on="0"/>
        <pt x="573" y="664" on="1"/>
        <pt x="604" y="699" on="0"/>
        <pt x="655" y="759" on="0"/>
        <pt x="670" y="779" on="1"/>
        <pt x="679" y="790" on="0"/>
        <pt x="692" y="790" on="1"/>
        <pt x="701" y="790" on="0"/>
      </contour>
    </TTGlyph>
    <TTGlyph name="Otilde" xMin="46" yMin="7" xMax="680" yMax="958">
      <component glyphName="O" x="0" y="0" flags="0x204"/>
      <component glyphName="tilde" x="-19" y="317" flags="0x4"/>
    </TTGlyph>
    <TTGlyph name="P" xMin="41" yMin="-9" xMax="566" yMax="765">
      <contour>
        <pt x="510" y="526" on="1"/>
        <pt x="510" y="543" on="0"/>
        <pt x="497" y="588" on="0"/>
        <pt x="469" y="632" on="0"/>
        <pt x="427" y="668" on="0"/>
        <pt x="399" y="676" on="1"/>
        <pt x="345" y="690" on="0"/>
        <pt x="267" y="702" on="0"/>
        <pt x="235" y="702" on="1"/>
        <pt x="200" y="702" on="0"/>
        <pt x="141" y="690" on="0"/>
        <pt x="106" y="682" on="1"/>
        <pt x="110" y="648" on="0"/>
        <pt x="117" y="567" on="0"/>
        <pt x="122" y="489" on="0"/>
        <pt x="125" y="419" on="0"/>
        <pt x="125" y="397" on="1"/>
        <pt x="125" y="392" on="0"/>
        <pt x="125" y="378" on="0"/>
        <pt x="126" y="370" on="1"/>
        <pt x="140" y="370" on="0"/>
        <pt x="167" y="370" on="0"/>
        <pt x="181" y="369" on="1"/>
        <pt x="203" y="368" on="0"/>
        <pt x="246" y="368" on="0"/>
        <pt x="268" y="368" on="1"/>
        <pt x="308" y="368" on="0"/>
        <pt x="379" y="372" on="0"/>
        <pt x="405" y="379" on="1"/>
        <pt x="439" y="389" on="0"/>
        <pt x="479" y="416" on="0"/>
        <pt x="499" y="448" on="0"/>
        <pt x="506" y="486" on="0"/>
        <pt x="508" y="506" on="1"/>
        <pt x="509" y="518" on="1"/>
      </contour>
      <contour>
        <pt x="413" y="730" on="1"/>
        <pt x="450" y="720" on="0"/>
        <pt x="508" y="674" on="0"/>
        <pt x="546" y="616" on="0"/>
        <pt x="566" y="553" on="0"/>
        <pt x="566" y="526" on="1"/>
        <pt x="566" y="522" on="0"/>
        <pt x="565" y="516" on="0"/>
        <pt x="565" y="512" on="1"/>
        <pt x="564" y="500" on="1"/>
        <pt x="562" y="479" on="0"/>
        <pt x="552" y="430" on="0"/>
        <pt x="524" y="382" on="0"/>
        <pt x="468" y="339" on="0"/>
        <pt x="420" y="326" on="1"/>
        <pt x="390" y="317" on="0"/>
        <pt x="313" y="312" on="0"/>
        <pt x="269" y="312" on="1"/>
        <pt x="247" y="312" on="0"/>
        <pt x="203" y="312" on="0"/>
        <pt x="180" y="313" on="1"/>
        <pt x="167" y="314" on="0"/>
        <pt x="142" y="314" on="0"/>
        <pt x="129" y="314" on="1"/>
        <pt x="132" y="270" on="0"/>
        <pt x="142" y="169" on="0"/>
        <pt x="151" y="81" on="0"/>
        <pt x="158" y="21" on="0"/>
        <pt x="158" y="19" on="1"/>
        <pt x="158" y="8" on="0"/>
        <pt x="143" y="-8" on="0"/>
        <pt x="130" y="-9" on="1"/>
        <pt x="119" y="-9" on="0"/>
        <pt x="103" y="5" on="0"/>
        <pt x="102" y="16" on="1"/>
        <pt x="101" y="19" on="0"/>
        <pt x="96" y="67" on="0"/>
        <pt x="89" y="138" on="0"/>
        <pt x="81" y="224" on="0"/>
        <pt x="74" y="307" on="0"/>
        <pt x="69" y="377" on="0"/>
        <pt x="69" y="397" on="1"/>
        <pt x="69" y="422" on="0"/>
        <pt x="66" y="494" on="0"/>
        <pt x="60" y="574" on="0"/>
        <pt x="53" y="653" on="0"/>
        <pt x="49" y="685" on="1"/>
        <pt x="47" y="687" on="0"/>
        <pt x="45" y="694" on="0"/>
        <pt x="43" y="702" on="1"/>
        <pt x="43" y="706" on="0"/>
        <pt x="45" y="712" on="1"/>
        <pt x="44" y="717" on="0"/>
        <pt x="43" y="729" on="0"/>
        <pt x="41" y="737" on="1"/>
        <pt x="41" y="747" on="0"/>
        <pt x="55" y="763" on="0"/>
        <pt x="69" y="765" on="1"/>
        <pt x="79" y="765" on="0"/>
        <pt x="95" y="751" on="0"/>
        <pt x="97" y="737" on="1"/>
        <pt x="133" y="746" on="0"/>
        <pt x="197" y="758" on="0"/>
        <pt x="234" y="758" on="1"/>
        <pt x="269" y="758" on="0"/>
        <pt x="354" y="745" on="0"/>
      </contour>
    </TTGlyph>
    <TTGlyph name="Q" xMin="41" yMin="-63" xMax="775" yMax="762">
      <contour>
        <pt x="427" y="52" on="1"/>
        <pt x="445" y="57" on="0"/>
        <pt x="490" y="87" on="0"/>
        <pt x="513" y="112" on="1"/>
        <pt x="490" y="126" on="0"/>
        <pt x="448" y="150" on="0"/>
        <pt x="417" y="168" on="0"/>
        <pt x="407" y="173" on="1"/>
        <pt x="397" y="178" on="1"/>
        <pt x="389" y="182" on="0"/>
        <pt x="382" y="195" on="0"/>
        <pt x="382" y="203" on="1"/>
        <pt x="382" y="210" on="0"/>
        <pt x="385" y="216" on="1"/>
        <pt x="389" y="224" on="0"/>
        <pt x="402" y="231" on="0"/>
        <pt x="410" y="231" on="1"/>
        <pt x="417" y="231" on="0"/>
        <pt x="423" y="228" on="1"/>
        <pt x="424" y="227" on="0"/>
        <pt x="445" y="216" on="0"/>
        <pt x="480" y="197" on="0"/>
        <pt x="524" y="171" on="0"/>
        <pt x="548" y="156" on="1"/>
        <pt x="562" y="175" on="0"/>
        <pt x="572" y="196" on="1"/>
        <pt x="587" y="224" on="0"/>
        <pt x="619" y="315" on="0"/>
        <pt x="619" y="372" on="1"/>
        <pt x="619" y="393" on="0"/>
        <pt x="613" y="437" on="0"/>
        <pt x="606" y="460" on="1"/>
        <pt x="594" y="499" on="0"/>
        <pt x="561" y="562" on="0"/>
        <pt x="523" y="611" on="0"/>
        <pt x="484" y="647" on="0"/>
        <pt x="467" y="660" on="1"/>
        <pt x="430" y="686" on="0"/>
        <pt x="367" y="706" on="0"/>
        <pt x="346" y="705" on="1"/>
        <pt x="317" y="697" on="0"/>
        <pt x="278" y="679" on="0"/>
        <pt x="278" y="678" on="1"/>
        <pt x="272" y="675" on="0"/>
        <pt x="265" y="675" on="1"/>
        <pt x="253" y="675" on="0"/>
        <pt x="244" y="684" on="1"/>
        <pt x="209" y="666" on="0"/>
        <pt x="146" y="566" on="0"/>
        <pt x="125" y="494" on="1"/>
        <pt x="111" y="447" on="0"/>
        <pt x="97" y="352" on="0"/>
        <pt x="97" y="307" on="1"/>
        <pt x="97" y="245" on="0"/>
        <pt x="111" y="197" on="1"/>
        <pt x="120" y="165" on="0"/>
        <pt x="151" y="117" on="0"/>
        <pt x="187" y="84" on="0"/>
        <pt x="226" y="62" on="0"/>
        <pt x="243" y="56" on="1"/>
        <pt x="266" y="48" on="0"/>
        <pt x="315" y="40" on="0"/>
        <pt x="341" y="40" on="1"/>
        <pt x="386" y="40" on="0"/>
      </contour>
      <contour>
        <pt x="629" y="102" on="1"/>
        <pt x="696" y="54" on="0"/>
        <pt x="765" y="-14" on="0"/>
        <pt x="767" y="-16" on="1"/>
        <pt x="775" y="-24" on="0"/>
        <pt x="775" y="-35" on="1"/>
        <pt x="775" y="-48" on="0"/>
        <pt x="766" y="-55" on="1"/>
        <pt x="756" y="-63" on="0"/>
        <pt x="747" y="-63" on="1"/>
        <pt x="733" y="-63" on="0"/>
        <pt x="726" y="-54" on="1"/>
        <pt x="726" y="-53" on="0"/>
        <pt x="660" y="11" on="0"/>
        <pt x="597" y="57" on="1"/>
        <pt x="561" y="81" on="1"/>
        <pt x="533" y="50" on="0"/>
        <pt x="472" y="7" on="0"/>
        <pt x="443" y="-2" on="1"/>
        <pt x="392" y="-16" on="0"/>
        <pt x="341" y="-16" on="1"/>
        <pt x="311" y="-16" on="0"/>
        <pt x="251" y="-7" on="0"/>
        <pt x="224" y="4" on="1"/>
        <pt x="202" y="12" on="0"/>
        <pt x="154" y="39" on="0"/>
        <pt x="108" y="81" on="0"/>
        <pt x="69" y="140" on="0"/>
        <pt x="57" y="181" on="1"/>
        <pt x="41" y="235" on="0"/>
        <pt x="41" y="308" on="1"/>
        <pt x="41" y="356" on="0"/>
        <pt x="56" y="458" on="0"/>
        <pt x="71" y="509" on="1"/>
        <pt x="99" y="606" on="0"/>
        <pt x="189" y="728" on="0"/>
        <pt x="244" y="744" on="1"/>
        <pt x="252" y="747" on="0"/>
        <pt x="268" y="749" on="0"/>
        <pt x="275" y="749" on="1"/>
        <pt x="280" y="749" on="0"/>
        <pt x="290" y="748" on="0"/>
        <pt x="295" y="747" on="1"/>
        <pt x="308" y="752" on="0"/>
        <pt x="330" y="759" on="1"/>
        <pt x="340" y="762" on="0"/>
        <pt x="354" y="762" on="1"/>
        <pt x="384" y="762" on="0"/>
        <pt x="461" y="732" on="0"/>
        <pt x="499" y="705" on="1"/>
        <pt x="519" y="691" on="0"/>
        <pt x="564" y="649" on="0"/>
        <pt x="608" y="593" on="0"/>
        <pt x="646" y="521" on="0"/>
        <pt x="660" y="476" on="1"/>
        <pt x="675" y="425" on="0"/>
        <pt x="675" y="372" on="1"/>
        <pt x="675" y="269" on="0"/>
        <pt x="622" y="169" on="1"/>
        <pt x="611" y="148" on="0"/>
        <pt x="595" y="126" on="1"/>
        <pt x="604" y="120" on="0"/>
        <pt x="621" y="108" on="0"/>
      </contour>
    </TTGlyph>
    <TTGlyph name="R" xMin="51" yMin="-22" xMax="639" yMax="765">
      <contour>
        <pt x="192" y="369" on="1"/>
        <pt x="213" y="368" on="0"/>
        <pt x="257" y="368" on="0"/>
        <pt x="278" y="368" on="1"/>
        <pt x="319" y="368" on="0"/>
        <pt x="390" y="372" on="0"/>
        <pt x="415" y="379" on="1"/>
        <pt x="450" y="389" on="0"/>
        <pt x="489" y="416" on="0"/>
        <pt x="509" y="448" on="0"/>
        <pt x="516" y="486" on="0"/>
        <pt x="518" y="506" on="1"/>
        <pt x="520" y="526" on="1"/>
        <pt x="520" y="543" on="0"/>
        <pt x="507" y="588" on="0"/>
        <pt x="479" y="632" on="0"/>
        <pt x="437" y="668" on="0"/>
        <pt x="409" y="676" on="1"/>
        <pt x="355" y="690" on="0"/>
        <pt x="277" y="702" on="0"/>
        <pt x="245" y="702" on="1"/>
        <pt x="210" y="702" on="0"/>
        <pt x="151" y="690" on="0"/>
        <pt x="116" y="682" on="1"/>
        <pt x="120" y="648" on="0"/>
        <pt x="127" y="567" on="0"/>
        <pt x="132" y="489" on="0"/>
        <pt x="135" y="419" on="0"/>
        <pt x="135" y="397" on="1"/>
        <pt x="135" y="392" on="0"/>
        <pt x="135" y="378" on="0"/>
        <pt x="136" y="370" on="1"/>
        <pt x="150" y="370" on="0"/>
        <pt x="178" y="370" on="0"/>
      </contour>
      <contour>
        <pt x="533" y="168" on="1"/>
        <pt x="585" y="105" on="0"/>
        <pt x="635" y="21" on="0"/>
        <pt x="636" y="19" on="1"/>
        <pt x="639" y="13" on="0"/>
        <pt x="639" y="6" on="1"/>
        <pt x="639" y="-2" on="0"/>
        <pt x="632" y="-15" on="0"/>
        <pt x="624" y="-19" on="1"/>
        <pt x="618" y="-22" on="0"/>
        <pt x="611" y="-22" on="1"/>
        <pt x="594" y="-22" on="0"/>
        <pt x="587" y="-7" on="1"/>
        <pt x="586" y="-7" on="0"/>
        <pt x="539" y="73" on="0"/>
        <pt x="490" y="133" on="1"/>
        <pt x="465" y="163" on="0"/>
        <pt x="409" y="223" on="0"/>
        <pt x="361" y="271" on="0"/>
        <pt x="345" y="287" on="1"/>
        <pt x="328" y="302" on="1"/>
        <pt x="324" y="306" on="0"/>
        <pt x="321" y="312" on="1"/>
        <pt x="280" y="312" on="1"/>
        <pt x="257" y="312" on="0"/>
        <pt x="213" y="312" on="0"/>
        <pt x="190" y="313" on="1"/>
        <pt x="177" y="314" on="0"/>
        <pt x="152" y="314" on="0"/>
        <pt x="140" y="314" on="1"/>
        <pt x="143" y="270" on="0"/>
        <pt x="152" y="169" on="0"/>
        <pt x="161" y="81" on="0"/>
        <pt x="168" y="21" on="0"/>
        <pt x="168" y="19" on="1"/>
        <pt x="168" y="8" on="0"/>
        <pt x="153" y="-8" on="0"/>
        <pt x="140" y="-9" on="1"/>
        <pt x="129" y="-9" on="0"/>
        <pt x="114" y="5" on="0"/>
        <pt x="112" y="16" on="1"/>
        <pt x="112" y="19" on="0"/>
        <pt x="107" y="67" on="0"/>
        <pt x="99" y="138" on="0"/>
        <pt x="91" y="224" on="0"/>
        <pt x="84" y="307" on="0"/>
        <pt x="79" y="377" on="0"/>
        <pt x="79" y="397" on="1"/>
        <pt x="79" y="422" on="0"/>
        <pt x="76" y="494" on="0"/>
        <pt x="70" y="574" on="0"/>
        <pt x="63" y="653" on="0"/>
        <pt x="59" y="685" on="1"/>
        <pt x="57" y="687" on="0"/>
        <pt x="55" y="694" on="0"/>
        <pt x="53" y="702" on="1"/>
        <pt x="53" y="706" on="0"/>
        <pt x="55" y="712" on="1"/>
        <pt x="54" y="717" on="0"/>
        <pt x="53" y="729" on="0"/>
        <pt x="51" y="737" on="1"/>
        <pt x="51" y="747" on="0"/>
        <pt x="65" y="763" on="0"/>
        <pt x="79" y="765" on="1"/>
        <pt x="89" y="765" on="0"/>
        <pt x="105" y="751" on="0"/>
        <pt x="108" y="737" on="1"/>
        <pt x="143" y="746" on="0"/>
        <pt x="207" y="758" on="0"/>
        <pt x="245" y="758" on="1"/>
        <pt x="280" y="758" on="0"/>
        <pt x="364" y="745" on="0"/>
        <pt x="423" y="730" on="1"/>
        <pt x="460" y="720" on="0"/>
        <pt x="518" y="674" on="0"/>
        <pt x="556" y="616" on="0"/>
        <pt x="576" y="553" on="0"/>
        <pt x="576" y="526" on="1"/>
        <pt x="576" y="517" on="0"/>
        <pt x="575" y="512" on="1"/>
        <pt x="574" y="500" on="1"/>
        <pt x="572" y="479" on="0"/>
        <pt x="562" y="430" on="0"/>
        <pt x="534" y="382" on="0"/>
        <pt x="478" y="339" on="0"/>
        <pt x="430" y="326" on="1"/>
        <pt x="422" y="323" on="0"/>
        <pt x="403" y="320" on="0"/>
        <pt x="392" y="318" on="1"/>
        <pt x="405" y="306" on="0"/>
        <pt x="439" y="272" on="0"/>
        <pt x="476" y="233" on="0"/>
        <pt x="515" y="190" on="0"/>
      </contour>
    </TTGlyph>
    <TTGlyph name="S" xMin="15" yMin="-11" xMax="573" yMax="757">
      <contour>
        <pt x="369" y="497" on="1"/>
        <pt x="417" y="484" on="0"/>
        <pt x="493" y="425" on="0"/>
        <pt x="545" y="350" on="0"/>
        <pt x="573" y="269" on="0"/>
        <pt x="573" y="234" on="1"/>
        <pt x="572" y="219" on="1"/>
        <pt x="571" y="192" on="0"/>
        <pt x="565" y="131" on="0"/>
        <pt x="535" y="72" on="0"/>
        <pt x="470" y="21" on="0"/>
        <pt x="412" y="5" on="1"/>
        <pt x="383" y="-4" on="0"/>
        <pt x="336" y="-11" on="0"/>
        <pt x="314" y="-11" on="1"/>
        <pt x="282" y="-11" on="0"/>
        <pt x="219" y="3" on="0"/>
        <pt x="174" y="15" on="1"/>
        <pt x="133" y="25" on="0"/>
        <pt x="75" y="70" on="0"/>
        <pt x="37" y="115" on="0"/>
        <pt x="19" y="150" on="0"/>
        <pt x="18" y="152" on="1"/>
        <pt x="15" y="156" on="0"/>
        <pt x="15" y="163" on="1"/>
        <pt x="15" y="180" on="0"/>
        <pt x="32" y="189" on="1"/>
        <pt x="40" y="191" on="0"/>
        <pt x="43" y="191" on="1"/>
        <pt x="51" y="191" on="0"/>
        <pt x="66" y="182" on="0"/>
        <pt x="69" y="174" on="1"/>
        <pt x="76" y="161" on="1"/>
        <pt x="83" y="147" on="0"/>
        <pt x="113" y="112" on="0"/>
        <pt x="159" y="77" on="0"/>
        <pt x="191" y="68" on="1"/>
        <pt x="233" y="57" on="0"/>
        <pt x="288" y="45" on="0"/>
        <pt x="314" y="45" on="1"/>
        <pt x="348" y="45" on="0"/>
        <pt x="397" y="58" on="1"/>
        <pt x="440" y="71" on="0"/>
        <pt x="488" y="105" on="0"/>
        <pt x="510" y="147" on="0"/>
        <pt x="515" y="195" on="0"/>
        <pt x="516" y="221" on="1"/>
        <pt x="517" y="239" on="1"/>
        <pt x="517" y="260" on="0"/>
        <pt x="496" y="322" on="0"/>
        <pt x="456" y="382" on="0"/>
        <pt x="395" y="432" on="0"/>
        <pt x="355" y="442" on="1"/>
        <pt x="328" y="450" on="0"/>
        <pt x="267" y="456" on="0"/>
        <pt x="237" y="459" on="1"/>
        <pt x="202" y="462" on="0"/>
        <pt x="135" y="470" on="0"/>
        <pt x="81" y="491" on="0"/>
        <pt x="46" y="528" on="0"/>
        <pt x="43" y="560" on="1"/>
        <pt x="43" y="564" on="0"/>
        <pt x="42" y="570" on="0"/>
        <pt x="42" y="573" on="1"/>
        <pt x="42" y="612" on="0"/>
        <pt x="73" y="667" on="0"/>
        <pt x="118" y="705" on="0"/>
        <pt x="167" y="729" on="0"/>
        <pt x="185" y="737" on="1"/>
        <pt x="208" y="748" on="0"/>
        <pt x="273" y="757" on="0"/>
        <pt x="311" y="757" on="1"/>
        <pt x="345" y="757" on="0"/>
        <pt x="414" y="749" on="0"/>
        <pt x="447" y="741" on="1"/>
        <pt x="469" y="736" on="0"/>
        <pt x="468" y="708" on="1"/>
        <pt x="466" y="698" on="0"/>
        <pt x="448" y="686" on="0"/>
        <pt x="434" y="687" on="1"/>
        <pt x="405" y="695" on="0"/>
        <pt x="340" y="701" on="0"/>
        <pt x="310" y="701" on="1"/>
        <pt x="278" y="701" on="0"/>
        <pt x="225" y="694" on="0"/>
        <pt x="207" y="686" on="1"/>
        <pt x="186" y="677" on="0"/>
        <pt x="146" y="656" on="0"/>
        <pt x="116" y="628" on="0"/>
        <pt x="99" y="590" on="0"/>
        <pt x="99" y="564" on="1"/>
        <pt x="101" y="538" on="0"/>
        <pt x="176" y="520" on="0"/>
        <pt x="241" y="515" on="1"/>
        <pt x="273" y="512" on="0"/>
        <pt x="338" y="505" on="0"/>
      </contour>
    </TTGlyph>
    <TTGlyph name="Scaron" xMin="15" yMin="-11" xMax="573" yMax="1020">
      <component glyphName="S" x="0" y="0" flags="0x204"/>
      <component glyphName="caron" x="-71" y="379" flags="0x4"/>
    </TTGlyph>
    <TTGlyph name="T" xMin="-133" yMin="-19" xMax="578" yMax="756">
      <contour>
        <pt x="553" y="741" on="1"/>
        <pt x="564" y="740" on="0"/>
        <pt x="578" y="723" on="0"/>
        <pt x="577" y="710" on="1"/>
        <pt x="576" y="699" on="0"/>
        <pt x="560" y="686" on="0"/>
        <pt x="546" y="686" on="1"/>
        <pt x="527" y="688" on="1"/>
        <pt x="507" y="690" on="0"/>
        <pt x="435" y="696" on="0"/>
        <pt x="334" y="700" on="0"/>
        <pt x="272" y="700" on="1"/>
        <pt x="264" y="700" on="0"/>
        <pt x="250" y="700" on="0"/>
        <pt x="242" y="699" on="1"/>
        <pt x="246" y="666" on="0"/>
        <pt x="255" y="579" on="0"/>
        <pt x="261" y="491" on="0"/>
        <pt x="265" y="412" on="0"/>
        <pt x="265" y="387" on="1"/>
        <pt x="265" y="368" on="0"/>
        <pt x="270" y="298" on="0"/>
        <pt x="277" y="215" on="0"/>
        <pt x="285" y="128" on="0"/>
        <pt x="293" y="57" on="0"/>
        <pt x="298" y="10" on="0"/>
        <pt x="298" y="9" on="1"/>
        <pt x="298" y="-2" on="0"/>
        <pt x="283" y="-17" on="0"/>
        <pt x="270" y="-19" on="1"/>
        <pt x="259" y="-19" on="0"/>
        <pt x="243" y="-5" on="0"/>
        <pt x="242" y="6" on="1"/>
        <pt x="242" y="9" on="0"/>
        <pt x="236" y="57" on="0"/>
        <pt x="229" y="128" on="0"/>
        <pt x="221" y="214" on="0"/>
        <pt x="214" y="297" on="0"/>
        <pt x="209" y="367" on="0"/>
        <pt x="209" y="387" on="1"/>
        <pt x="209" y="414" on="0"/>
        <pt x="205" y="496" on="0"/>
        <pt x="198" y="584" on="0"/>
        <pt x="190" y="668" on="0"/>
        <pt x="186" y="698" on="1"/>
        <pt x="132" y="696" on="0"/>
        <pt x="28" y="691" on="0"/>
        <pt x="-53" y="685" on="0"/>
        <pt x="-104" y="681" on="0"/>
        <pt x="-105" y="681" on="1"/>
        <pt x="-116" y="680" on="0"/>
        <pt x="-132" y="696" on="0"/>
        <pt x="-133" y="709" on="1"/>
        <pt x="-133" y="720" on="0"/>
        <pt x="-119" y="736" on="0"/>
        <pt x="-108" y="737" on="1"/>
        <pt x="-107" y="737" on="0"/>
        <pt x="-53" y="741" on="0"/>
        <pt x="35" y="747" on="0"/>
        <pt x="146" y="753" on="0"/>
        <pt x="203" y="755" on="1"/>
        <pt x="205" y="755" on="0"/>
        <pt x="209" y="756" on="0"/>
        <pt x="215" y="755" on="1"/>
        <pt x="229" y="755" on="0"/>
        <pt x="258" y="756" on="0"/>
        <pt x="272" y="756" on="1"/>
        <pt x="336" y="756" on="0"/>
        <pt x="438" y="752" on="0"/>
        <pt x="511" y="746" on="0"/>
        <pt x="551" y="741" on="0"/>
      </contour>
    </TTGlyph>
    <TTGlyph name="Thorn" xMin="39" yMin="-18" xMax="514" yMax="679">
      <contour>
        <pt x="375" y="505" on="1"/>
        <pt x="411" y="495" on="0"/>
        <pt x="464" y="450" on="0"/>
        <pt x="498" y="393" on="0"/>
        <pt x="514" y="333" on="0"/>
        <pt x="511" y="309" on="1"/>
        <pt x="510" y="298" on="1"/>
        <pt x="508" y="280" on="0"/>
        <pt x="500" y="235" on="0"/>
        <pt x="474" y="192" on="0"/>
        <pt x="424" y="154" on="0"/>
        <pt x="381" y="142" on="1"/>
        <pt x="355" y="134" on="0"/>
        <pt x="284" y="129" on="0"/>
        <pt x="246" y="129" on="1"/>
        <pt x="226" y="129" on="0"/>
        <pt x="186" y="130" on="0"/>
        <pt x="166" y="131" on="1"/>
        <pt x="133" y="131" on="1"/>
        <pt x="138" y="82" on="0"/>
        <pt x="145" y="11" on="0"/>
        <pt x="146" y="10" on="1"/>
        <pt x="147" y="-1" on="0"/>
        <pt x="133" y="-16" on="0"/>
        <pt x="121" y="-18" on="1"/>
        <pt x="111" y="-18" on="0"/>
        <pt x="97" y="-5" on="0"/>
        <pt x="96" y="4" on="1"/>
        <pt x="95" y="9" on="0"/>
        <pt x="87" y="85" on="0"/>
        <pt x="82" y="137" on="1"/>
        <pt x="72" y="144" on="0"/>
        <pt x="72" y="157" on="1"/>
        <pt x="72" y="166" on="0"/>
        <pt x="78" y="174" on="1"/>
        <pt x="73" y="226" on="0"/>
        <pt x="66" y="322" on="0"/>
        <pt x="66" y="346" on="1"/>
        <pt x="66" y="366" on="0"/>
        <pt x="64" y="423" on="0"/>
        <pt x="62" y="455" on="1"/>
        <pt x="47" y="458" on="0"/>
        <pt x="44" y="473" on="1"/>
        <pt x="41" y="483" on="0"/>
        <pt x="50" y="499" on="0"/>
        <pt x="58" y="502" on="1"/>
        <pt x="55" y="547" on="0"/>
        <pt x="46" y="625" on="0"/>
        <pt x="41" y="647" on="1"/>
        <pt x="39" y="658" on="0"/>
        <pt x="51" y="675" on="0"/>
        <pt x="61" y="677" on="1"/>
        <pt x="72" y="679" on="0"/>
        <pt x="89" y="668" on="0"/>
        <pt x="91" y="657" on="1"/>
        <pt x="96" y="634" on="0"/>
        <pt x="104" y="558" on="0"/>
        <pt x="107" y="515" on="1"/>
        <pt x="135" y="522" on="0"/>
        <pt x="188" y="530" on="0"/>
        <pt x="249" y="530" on="0"/>
        <pt x="324" y="518" on="0"/>
      </contour>
      <contour>
        <pt x="461" y="315" on="1"/>
        <pt x="462" y="329" on="0"/>
        <pt x="452" y="372" on="0"/>
        <pt x="428" y="414" on="0"/>
        <pt x="389" y="449" on="0"/>
        <pt x="362" y="456" on="1"/>
        <pt x="314" y="469" on="0"/>
        <pt x="244" y="479" on="0"/>
        <pt x="187" y="479" on="0"/>
        <pt x="138" y="471" on="0"/>
        <pt x="111" y="464" on="1"/>
        <pt x="113" y="429" on="0"/>
        <pt x="116" y="366" on="0"/>
        <pt x="116" y="346" on="1"/>
        <pt x="116" y="323" on="0"/>
        <pt x="123" y="232" on="0"/>
        <pt x="128" y="182" on="1"/>
        <pt x="138" y="181" on="0"/>
        <pt x="157" y="181" on="0"/>
        <pt x="167" y="181" on="1"/>
        <pt x="194" y="180" on="0"/>
        <pt x="250" y="179" on="0"/>
        <pt x="303" y="181" on="0"/>
        <pt x="350" y="185" on="0"/>
        <pt x="368" y="190" on="1"/>
        <pt x="399" y="199" on="0"/>
        <pt x="434" y="223" on="0"/>
        <pt x="452" y="252" on="0"/>
        <pt x="458" y="286" on="0"/>
        <pt x="460" y="304" on="1"/>
      </contour>
    </TTGlyph>
    <TTGlyph name="U" xMin="15" yMin="-19" xMax="614" yMax="756">
      <contour>
        <pt x="580" y="733" on="1"/>
        <pt x="586" y="705" on="0"/>
        <pt x="597" y="612" on="0"/>
        <pt x="605" y="511" on="0"/>
        <pt x="610" y="417" on="0"/>
        <pt x="610" y="388" on="1"/>
        <pt x="610" y="382" on="0"/>
        <pt x="614" y="323" on="0"/>
        <pt x="614" y="285" on="1"/>
        <pt x="614" y="248" on="0"/>
        <pt x="608" y="171" on="0"/>
        <pt x="599" y="142" on="1"/>
        <pt x="583" y="89" on="0"/>
        <pt x="523" y="27" on="0"/>
        <pt x="449" y="-5" on="0"/>
        <pt x="372" y="-15" on="0"/>
        <pt x="340" y="-18" on="1"/>
        <pt x="335" y="-19" on="0"/>
        <pt x="328" y="-19" on="0"/>
        <pt x="323" y="-19" on="1"/>
        <pt x="278" y="-19" on="0"/>
        <pt x="171" y="19" on="0"/>
        <pt x="126" y="62" on="1"/>
        <pt x="84" y="104" on="0"/>
        <pt x="50" y="214" on="0"/>
        <pt x="48" y="279" on="1"/>
        <pt x="45" y="386" on="1"/>
        <pt x="44" y="417" on="0"/>
        <pt x="39" y="512" on="0"/>
        <pt x="31" y="611" on="0"/>
        <pt x="21" y="701" on="0"/>
        <pt x="15" y="728" on="1"/>
        <pt x="15" y="750" on="0"/>
        <pt x="43" y="756" on="1"/>
        <pt x="53" y="756" on="0"/>
        <pt x="69" y="744" on="0"/>
        <pt x="71" y="733" on="1"/>
        <pt x="77" y="704" on="0"/>
        <pt x="87" y="611" on="0"/>
        <pt x="95" y="510" on="0"/>
        <pt x="100" y="416" on="0"/>
        <pt x="101" y="387" on="1"/>
        <pt x="104" y="277" on="1"/>
        <pt x="104" y="259" on="1"/>
        <pt x="104" y="163" on="0"/>
        <pt x="166" y="102" on="1"/>
        <pt x="184" y="85" on="0"/>
        <pt x="224" y="61" on="0"/>
        <pt x="266" y="45" on="0"/>
        <pt x="306" y="37" on="0"/>
        <pt x="323" y="37" on="1"/>
        <pt x="335" y="37" on="1"/>
        <pt x="373" y="40" on="0"/>
        <pt x="440" y="51" on="0"/>
        <pt x="494" y="77" on="0"/>
        <pt x="534" y="121" on="0"/>
        <pt x="545" y="158" on="1"/>
        <pt x="553" y="183" on="0"/>
        <pt x="558" y="252" on="0"/>
        <pt x="558" y="286" on="1"/>
        <pt x="558" y="326" on="0"/>
        <pt x="554" y="385" on="0"/>
        <pt x="554" y="387" on="1"/>
        <pt x="553" y="417" on="0"/>
        <pt x="547" y="511" on="0"/>
        <pt x="540" y="610" on="0"/>
        <pt x="530" y="701" on="0"/>
        <pt x="524" y="728" on="1"/>
        <pt x="524" y="750" on="0"/>
        <pt x="552" y="756" on="1"/>
        <pt x="562" y="756" on="0"/>
        <pt x="578" y="744" on="0"/>
      </contour>
    </TTGlyph>
    <TTGlyph name="Uacute" xMin="15" yMin="-19" xMax="614" yMax="961">
      <component glyphName="U" x="0" y="0" flags="0x204"/>
      <component glyphName="acute" x="-19" y="287" flags="0x4"/>
    </TTGlyph>
    <TTGlyph name="Ucircumflex" xMin="15" yMin="-19" xMax="614" yMax="958">
      <component glyphName="U" x="0" y="0" flags="0x204"/>
      <component glyphName="circumflex" x="-50" y="317" flags="0x4"/>
    </TTGlyph>
    <TTGlyph name="Udieresis" xMin="15" yMin="-19" xMax="614" yMax="893">
      <component glyphName="U" x="0" y="0" flags="0x204"/>
      <component glyphName="dieresis" x="-50" y="246" flags="0x4"/>
    </TTGlyph>
    <TTGlyph name="Ugrave" xMin="15" yMin="-19" xMax="614" yMax="969">
      <component glyphName="U" x="0" y="0" flags="0x204"/>
      <component glyphName="grave" x="-91" y="297" flags="0x4"/>
    </TTGlyph>
    <TTGlyph name="V" xMin="-20" yMin="-19" xMax="638" yMax="765">
      <contour>
        <pt x="623" y="762" on="1"/>
        <pt x="638" y="754" on="0"/>
        <pt x="638" y="737" on="1"/>
        <pt x="638" y="731" on="0"/>
        <pt x="634" y="724" on="1"/>
        <pt x="621" y="699" on="0"/>
        <pt x="583" y="611" on="0"/>
        <pt x="544" y="513" on="0"/>
        <pt x="509" y="419" on="0"/>
        <pt x="499" y="388" on="1"/>
        <pt x="492" y="368" on="0"/>
        <pt x="465" y="298" on="0"/>
        <pt x="431" y="215" on="0"/>
        <pt x="396" y="130" on="0"/>
        <pt x="365" y="59" on="0"/>
        <pt x="344" y="11" on="0"/>
        <pt x="343" y="8" on="1"/>
        <pt x="337" y="-7" on="0"/>
        <pt x="321" y="-9" on="1"/>
        <pt x="315" y="-15" on="0"/>
        <pt x="311" y="-17" on="1"/>
        <pt x="303" y="-19" on="0"/>
        <pt x="300" y="-19" on="1"/>
        <pt x="292" y="-19" on="0"/>
        <pt x="277" y="-10" on="0"/>
        <pt x="274" y="-2" on="1"/>
        <pt x="273" y="1" on="0"/>
        <pt x="252" y="49" on="0"/>
        <pt x="222" y="120" on="0"/>
        <pt x="186" y="206" on="0"/>
        <pt x="152" y="288" on="0"/>
        <pt x="125" y="358" on="0"/>
        <pt x="119" y="378" on="1"/>
        <pt x="109" y="409" on="0"/>
        <pt x="73" y="503" on="0"/>
        <pt x="34" y="601" on="0"/>
        <pt x="-4" y="690" on="0"/>
        <pt x="-17" y="715" on="1"/>
        <pt x="-20" y="721" on="0"/>
        <pt x="-20" y="728" on="1"/>
        <pt x="-20" y="744" on="0"/>
        <pt x="-5" y="752" on="1"/>
        <pt x="0" y="756" on="0"/>
        <pt x="8" y="756" on="1"/>
        <pt x="24" y="756" on="0"/>
        <pt x="32" y="741" on="1"/>
        <pt x="47" y="713" on="0"/>
        <pt x="87" y="620" on="0"/>
        <pt x="127" y="519" on="0"/>
        <pt x="163" y="424" on="0"/>
        <pt x="172" y="396" on="1"/>
        <pt x="179" y="373" on="0"/>
        <pt x="213" y="288" on="0"/>
        <pt x="253" y="191" on="0"/>
        <pt x="292" y="96" on="0"/>
        <pt x="306" y="64" on="1"/>
        <pt x="315" y="84" on="0"/>
        <pt x="340" y="142" on="0"/>
        <pt x="367" y="207" on="0"/>
        <pt x="396" y="276" on="0"/>
        <pt x="421" y="338" on="0"/>
        <pt x="440" y="390" on="0"/>
        <pt x="445" y="405" on="1"/>
        <pt x="454" y="434" on="0"/>
        <pt x="490" y="528" on="0"/>
        <pt x="530" y="630" on="0"/>
        <pt x="571" y="723" on="0"/>
        <pt x="585" y="750" on="1"/>
        <pt x="589" y="758" on="0"/>
        <pt x="602" y="765" on="0"/>
        <pt x="610" y="765" on="1"/>
        <pt x="615" y="765" on="0"/>
      </contour>
    </TTGlyph>
    <TTGlyph name="W" xMin="-41" yMin="-19" xMax="1219" yMax="765">
      <contour>
        <pt x="1204" y="762" on="1"/>
        <pt x="1219" y="754" on="0"/>
        <pt x="1219" y="737" on="1"/>
        <pt x="1219" y="731" on="0"/>
        <pt x="1216" y="724" on="1"/>
        <pt x="1203" y="699" on="0"/>
        <pt x="1165" y="611" on="0"/>
        <pt x="1125" y="513" on="0"/>
        <pt x="1090" y="419" on="0"/>
        <pt x="1080" y="388" on="1"/>
        <pt x="1074" y="368" on="0"/>
        <pt x="1047" y="298" on="0"/>
        <pt x="1013" y="215" on="0"/>
        <pt x="977" y="130" on="0"/>
        <pt x="947" y="59" on="0"/>
        <pt x="926" y="11" on="0"/>
        <pt x="925" y="8" on="1"/>
        <pt x="919" y="-7" on="0"/>
        <pt x="903" y="-9" on="1"/>
        <pt x="898" y="-14" on="0"/>
        <pt x="892" y="-17" on="1"/>
        <pt x="886" y="-19" on="0"/>
        <pt x="881" y="-19" on="1"/>
        <pt x="863" y="-19" on="0"/>
        <pt x="855" y="-2" on="1"/>
        <pt x="854" y="1" on="0"/>
        <pt x="833" y="49" on="0"/>
        <pt x="803" y="120" on="0"/>
        <pt x="767" y="206" on="0"/>
        <pt x="734" y="288" on="0"/>
        <pt x="706" y="358" on="0"/>
        <pt x="700" y="378" on="1"/>
        <pt x="692" y="403" on="0"/>
        <pt x="666" y="476" on="0"/>
        <pt x="634" y="556" on="0"/>
        <pt x="601" y="635" on="0"/>
        <pt x="587" y="667" on="1"/>
        <pt x="573" y="635" on="0"/>
        <pt x="541" y="558" on="0"/>
        <pt x="511" y="482" on="0"/>
        <pt x="486" y="412" on="0"/>
        <pt x="478" y="388" on="1"/>
        <pt x="472" y="368" on="0"/>
        <pt x="444" y="298" on="0"/>
        <pt x="411" y="215" on="0"/>
        <pt x="375" y="130" on="0"/>
        <pt x="345" y="59" on="0"/>
        <pt x="324" y="11" on="0"/>
        <pt x="323" y="8" on="1"/>
        <pt x="317" y="-7" on="0"/>
        <pt x="300" y="-9" on="1"/>
        <pt x="297" y="-14" on="0"/>
        <pt x="290" y="-17" on="1"/>
        <pt x="287" y="-18" on="0"/>
        <pt x="282" y="-19" on="0"/>
        <pt x="279" y="-19" on="1"/>
        <pt x="261" y="-19" on="0"/>
        <pt x="253" y="-2" on="1"/>
        <pt x="252" y="1" on="0"/>
        <pt x="231" y="49" on="0"/>
        <pt x="201" y="120" on="0"/>
        <pt x="165" y="206" on="0"/>
        <pt x="132" y="288" on="0"/>
        <pt x="104" y="358" on="0"/>
        <pt x="98" y="378" on="1"/>
        <pt x="88" y="409" on="0"/>
        <pt x="53" y="503" on="0"/>
        <pt x="14" y="601" on="0"/>
        <pt x="-25" y="690" on="0"/>
        <pt x="-38" y="715" on="1"/>
        <pt x="-41" y="721" on="0"/>
        <pt x="-41" y="728" on="1"/>
        <pt x="-41" y="744" on="0"/>
        <pt x="-26" y="752" on="1"/>
        <pt x="-21" y="756" on="0"/>
        <pt x="-13" y="756" on="1"/>
        <pt x="4" y="756" on="0"/>
        <pt x="12" y="741" on="1"/>
        <pt x="26" y="713" on="0"/>
        <pt x="66" y="620" on="0"/>
        <pt x="107" y="519" on="0"/>
        <pt x="142" y="424" on="0"/>
        <pt x="151" y="396" on="1"/>
        <pt x="158" y="373" on="0"/>
        <pt x="192" y="288" on="0"/>
        <pt x="232" y="191" on="0"/>
        <pt x="272" y="96" on="0"/>
        <pt x="286" y="64" on="1"/>
        <pt x="299" y="94" on="0"/>
        <pt x="340" y="191" on="0"/>
        <pt x="382" y="292" on="0"/>
        <pt x="417" y="382" on="0"/>
        <pt x="425" y="405" on="1"/>
        <pt x="434" y="434" on="0"/>
        <pt x="469" y="528" on="0"/>
        <pt x="509" y="630" on="0"/>
        <pt x="550" y="723" on="0"/>
        <pt x="564" y="750" on="1"/>
        <pt x="568" y="758" on="0"/>
        <pt x="581" y="765" on="0"/>
        <pt x="589" y="765" on="1"/>
        <pt x="596" y="765" on="0"/>
        <pt x="602" y="762" on="1"/>
        <pt x="617" y="754" on="0"/>
        <pt x="617" y="735" on="1"/>
        <pt x="632" y="706" on="0"/>
        <pt x="671" y="613" on="0"/>
        <pt x="710" y="515" on="0"/>
        <pt x="744" y="424" on="0"/>
        <pt x="753" y="396" on="1"/>
        <pt x="760" y="373" on="0"/>
        <pt x="794" y="288" on="0"/>
        <pt x="834" y="191" on="0"/>
        <pt x="874" y="96" on="0"/>
        <pt x="888" y="64" on="1"/>
        <pt x="901" y="94" on="0"/>
        <pt x="942" y="191" on="0"/>
        <pt x="984" y="292" on="0"/>
        <pt x="1019" y="382" on="0"/>
        <pt x="1027" y="405" on="1"/>
        <pt x="1036" y="434" on="0"/>
        <pt x="1071" y="528" on="0"/>
        <pt x="1111" y="630" on="0"/>
        <pt x="1152" y="723" on="0"/>
        <pt x="1166" y="750" on="1"/>
        <pt x="1170" y="758" on="0"/>
        <pt x="1183" y="765" on="0"/>
        <pt x="1191" y="765" on="1"/>
        <pt x="1198" y="765" on="0"/>
      </contour>
    </TTGlyph>
    <TTGlyph name="X" xMin="26" yMin="-15" xMax="591" yMax="750">
      <contour>
        <pt x="358" y="381" on="0"/>
        <pt x="402" y="312" on="0"/>
        <pt x="454" y="229" on="0"/>
        <pt x="510" y="144" on="0"/>
        <pt x="556" y="74" on="0"/>
        <pt x="585" y="29" on="0"/>
        <pt x="586" y="28" on="1"/>
        <pt x="591" y="21" on="0"/>
        <pt x="591" y="13" on="1"/>
        <pt x="591" y="-2" on="0"/>
        <pt x="578" y="-10" on="1"/>
        <pt x="571" y="-15" on="0"/>
        <pt x="563" y="-15" on="1"/>
        <pt x="548" y="-15" on="0"/>
        <pt x="540" y="-2" on="1"/>
        <pt x="538" y="1" on="0"/>
        <pt x="510" y="43" on="0"/>
        <pt x="468" y="107" on="0"/>
        <pt x="417" y="185" on="0"/>
        <pt x="366" y="263" on="0"/>
        <pt x="322" y="333" on="0"/>
        <pt x="308" y="357" on="1"/>
        <pt x="294" y="333" on="0"/>
        <pt x="250" y="263" on="0"/>
        <pt x="200" y="185" on="0"/>
        <pt x="148" y="107" on="0"/>
        <pt x="106" y="43" on="0"/>
        <pt x="78" y="1" on="0"/>
        <pt x="76" y="-2" on="1"/>
        <pt x="68" y="-15" on="0"/>
        <pt x="53" y="-15" on="1"/>
        <pt x="46" y="-15" on="0"/>
        <pt x="38" y="-10" on="1"/>
        <pt x="26" y="-3" on="0"/>
        <pt x="26" y="13" on="1"/>
        <pt x="26" y="23" on="0"/>
        <pt x="30" y="28" on="1"/>
        <pt x="30" y="29" on="0"/>
        <pt x="60" y="74" on="0"/>
        <pt x="106" y="144" on="0"/>
        <pt x="162" y="229" on="0"/>
        <pt x="215" y="311" on="0"/>
        <pt x="258" y="381" on="0"/>
        <pt x="269" y="400" on="1"/>
        <pt x="276" y="412" on="1"/>
        <pt x="256" y="446" on="0"/>
        <pt x="203" y="531" on="0"/>
        <pt x="150" y="613" on="0"/>
        <pt x="102" y="685" on="0"/>
        <pt x="86" y="706" on="1"/>
        <pt x="81" y="714" on="0"/>
        <pt x="81" y="723" on="1"/>
        <pt x="81" y="736" on="0"/>
        <pt x="92" y="745" on="1"/>
        <pt x="100" y="750" on="0"/>
        <pt x="109" y="750" on="1"/>
        <pt x="122" y="750" on="0"/>
        <pt x="131" y="739" on="1"/>
        <pt x="147" y="718" on="0"/>
        <pt x="191" y="653" on="0"/>
        <pt x="239" y="578" on="0"/>
        <pt x="288" y="500" on="0"/>
        <pt x="308" y="467" on="1"/>
        <pt x="328" y="500" on="0"/>
        <pt x="377" y="578" on="0"/>
        <pt x="426" y="653" on="0"/>
        <pt x="470" y="718" on="0"/>
        <pt x="486" y="739" on="1"/>
        <pt x="494" y="750" on="0"/>
        <pt x="508" y="750" on="1"/>
        <pt x="517" y="750" on="0"/>
        <pt x="525" y="745" on="1"/>
        <pt x="535" y="736" on="0"/>
        <pt x="535" y="723" on="1"/>
        <pt x="535" y="712" on="0"/>
        <pt x="530" y="706" on="1"/>
        <pt x="514" y="685" on="0"/>
        <pt x="466" y="613" on="0"/>
        <pt x="413" y="531" on="0"/>
        <pt x="360" y="446" on="0"/>
        <pt x="340" y="412" on="1"/>
        <pt x="347" y="400" on="1"/>
      </contour>
    </TTGlyph>
    <TTGlyph name="Y" xMin="-41" yMin="-19" xMax="531" yMax="765">
      <contour>
        <pt x="520" y="760" on="1"/>
        <pt x="531" y="752" on="0"/>
        <pt x="531" y="737" on="1"/>
        <pt x="531" y="727" on="0"/>
        <pt x="526" y="720" on="1"/>
        <pt x="507" y="695" on="0"/>
        <pt x="448" y="607" on="0"/>
        <pt x="385" y="508" on="0"/>
        <pt x="327" y="414" on="0"/>
        <pt x="310" y="383" on="1"/>
        <pt x="305" y="372" on="0"/>
        <pt x="286" y="341" on="0"/>
        <pt x="272" y="319" on="1"/>
        <pt x="273" y="295" on="0"/>
        <pt x="279" y="231" on="0"/>
        <pt x="286" y="163" on="0"/>
        <pt x="293" y="97" on="0"/>
        <pt x="300" y="44" on="0"/>
        <pt x="304" y="10" on="0"/>
        <pt x="304" y="9" on="1"/>
        <pt x="304" y="-2" on="0"/>
        <pt x="289" y="-17" on="0"/>
        <pt x="276" y="-19" on="1"/>
        <pt x="265" y="-19" on="0"/>
        <pt x="250" y="-6" on="0"/>
        <pt x="248" y="5" on="1"/>
        <pt x="248" y="7" on="0"/>
        <pt x="244" y="39" on="0"/>
        <pt x="238" y="88" on="0"/>
        <pt x="231" y="150" on="0"/>
        <pt x="224" y="214" on="0"/>
        <pt x="218" y="277" on="0"/>
        <pt x="217" y="303" on="1"/>
        <pt x="211" y="309" on="0"/>
        <pt x="211" y="319" on="1"/>
        <pt x="211" y="328" on="0"/>
        <pt x="215" y="333" on="1"/>
        <pt x="212" y="335" on="0"/>
        <pt x="208" y="341" on="1"/>
        <pt x="191" y="371" on="0"/>
        <pt x="126" y="477" on="0"/>
        <pt x="52" y="592" on="0"/>
        <pt x="-16" y="694" on="0"/>
        <pt x="-35" y="720" on="1"/>
        <pt x="-41" y="729" on="0"/>
        <pt x="-41" y="737" on="1"/>
        <pt x="-41" y="751" on="0"/>
        <pt x="-30" y="760" on="1"/>
        <pt x="-22" y="765" on="0"/>
        <pt x="-13" y="765" on="1"/>
        <pt x="-7" y="765" on="0"/>
        <pt x="5" y="760" on="0"/>
        <pt x="9" y="754" on="1"/>
        <pt x="28" y="729" on="0"/>
        <pt x="92" y="634" on="0"/>
        <pt x="162" y="526" on="0"/>
        <pt x="227" y="421" on="0"/>
        <pt x="247" y="386" on="1"/>
        <pt x="256" y="401" on="0"/>
        <pt x="262" y="410" on="1"/>
        <pt x="272" y="429" on="0"/>
        <pt x="305" y="485" on="0"/>
        <pt x="345" y="549" on="0"/>
        <pt x="388" y="617" on="0"/>
        <pt x="430" y="681" on="0"/>
        <pt x="467" y="736" on="0"/>
        <pt x="481" y="754" on="1"/>
        <pt x="489" y="765" on="0"/>
        <pt x="504" y="765" on="1"/>
        <pt x="512" y="765" on="0"/>
      </contour>
    </TTGlyph>
    <TTGlyph name="Yacute" xMin="-41" yMin="-19" xMax="531" yMax="961">
      <component glyphName="Y" x="0" y="0" flags="0x204"/>
      <component glyphName="acute" x="-40" y="287" flags="0x4"/>
    </TTGlyph>
    <TTGlyph name="Ydieresis" xMin="-41" yMin="-19" xMax="531" yMax="872">
      <component glyphName="Y" x="0" y="0" flags="0x204"/>
      <component glyphName="dieresis" x="-101" y="225" flags="0x4"/>
    </TTGlyph>
    <TTGlyph name="Z" xMin="-5" yMin="-32" xMax="706" yMax="770">
      <contour>
        <pt x="681" y="29" on="1"/>
        <pt x="692" y="27" on="0"/>
        <pt x="706" y="11" on="0"/>
        <pt x="705" y="-3" on="1"/>
        <pt x="704" y="-14" on="0"/>
        <pt x="688" y="-27" on="0"/>
        <pt x="674" y="-27" on="1"/>
        <pt x="655" y="-25" on="1"/>
        <pt x="635" y="-23" on="0"/>
        <pt x="563" y="-17" on="0"/>
        <pt x="462" y="-13" on="0"/>
        <pt x="400" y="-13" on="1"/>
        <pt x="358" y="-13" on="0"/>
        <pt x="270" y="-16" on="0"/>
        <pt x="187" y="-20" on="0"/>
        <pt x="113" y="-25" on="0"/>
        <pt x="57" y="-29" on="0"/>
        <pt x="24" y="-32" on="0"/>
        <pt x="23" y="-32" on="1"/>
        <pt x="12" y="-32" on="0"/>
        <pt x="-4" y="-17" on="0"/>
        <pt x="-5" y="-4" on="1"/>
        <pt x="-5" y="7" on="0"/>
        <pt x="9" y="23" on="0"/>
        <pt x="20" y="24" on="1"/>
        <pt x="36" y="34" on="1"/>
        <pt x="36" y="35" on="0"/>
        <pt x="66" y="80" on="0"/>
        <pt x="113" y="151" on="0"/>
        <pt x="169" y="237" on="0"/>
        <pt x="222" y="320" on="0"/>
        <pt x="266" y="391" on="0"/>
        <pt x="277" y="410" on="1"/>
        <pt x="290" y="434" on="0"/>
        <pt x="334" y="506" on="0"/>
        <pt x="385" y="588" on="0"/>
        <pt x="439" y="671" on="0"/>
        <pt x="462" y="704" on="1"/>
        <pt x="441" y="707" on="0"/>
        <pt x="367" y="714" on="0"/>
        <pt x="316" y="714" on="1"/>
        <pt x="277" y="714" on="0"/>
        <pt x="195" y="708" on="0"/>
        <pt x="126" y="701" on="0"/>
        <pt x="81" y="695" on="0"/>
        <pt x="79" y="695" on="1"/>
        <pt x="68" y="695" on="0"/>
        <pt x="53" y="709" on="0"/>
        <pt x="51" y="723" on="1"/>
        <pt x="51" y="734" on="0"/>
        <pt x="64" y="749" on="0"/>
        <pt x="75" y="751" on="1"/>
        <pt x="77" y="751" on="0"/>
        <pt x="122" y="757" on="0"/>
        <pt x="191" y="764" on="0"/>
        <pt x="275" y="770" on="0"/>
        <pt x="316" y="770" on="1"/>
        <pt x="398" y="770" on="0"/>
        <pt x="495" y="756" on="0"/>
        <pt x="498" y="755" on="1"/>
        <pt x="505" y="765" on="0"/>
        <pt x="519" y="765" on="1"/>
        <pt x="528" y="765" on="0"/>
        <pt x="536" y="760" on="1"/>
        <pt x="547" y="751" on="0"/>
        <pt x="547" y="737" on="1"/>
        <pt x="547" y="730" on="0"/>
        <pt x="542" y="720" on="1"/>
        <pt x="523" y="695" on="0"/>
        <pt x="464" y="607" on="0"/>
        <pt x="401" y="508" on="0"/>
        <pt x="343" y="414" on="0"/>
        <pt x="326" y="383" on="1"/>
        <pt x="317" y="367" on="0"/>
        <pt x="283" y="312" on="0"/>
        <pt x="241" y="247" on="0"/>
        <pt x="195" y="175" on="0"/>
        <pt x="151" y="108" on="0"/>
        <pt x="113" y="50" on="0"/>
        <pt x="100" y="31" on="1"/>
        <pt x="129" y="33" on="0"/>
        <pt x="200" y="37" on="0"/>
        <pt x="279" y="41" on="0"/>
        <pt x="361" y="43" on="0"/>
        <pt x="400" y="43" on="1"/>
        <pt x="464" y="43" on="0"/>
        <pt x="566" y="39" on="0"/>
        <pt x="639" y="33" on="0"/>
        <pt x="679" y="29" on="0"/>
      </contour>
    </TTGlyph>
    <TTGlyph name="Zcaron" xMin="-5" yMin="-32" xMax="706" yMax="1040">
      <component glyphName="Z" x="0" y="0" flags="0x204"/>
      <component glyphName="caron" x="-71" y="399" flags="0x4"/>
    </TTGlyph>
    <TTGlyph name="a" xMin="46" yMin="-23" xMax="539" yMax="581">
      <contour>
        <pt x="246" y="38" on="1"/>
        <pt x="267" y="38" on="0"/>
        <pt x="317" y="77" on="0"/>
        <pt x="364" y="143" on="0"/>
        <pt x="402" y="232" on="0"/>
        <pt x="411" y="282" on="1"/>
        <pt x="404" y="330" on="0"/>
        <pt x="396" y="436" on="0"/>
        <pt x="395" y="496" on="1"/>
        <pt x="384" y="505" on="0"/>
        <pt x="384" y="518" on="1"/>
        <pt x="377" y="521" on="0"/>
        <pt x="362" y="525" on="0"/>
        <pt x="353" y="525" on="1"/>
        <pt x="340" y="525" on="0"/>
        <pt x="292" y="514" on="0"/>
        <pt x="236" y="489" on="0"/>
        <pt x="179" y="449" on="0"/>
        <pt x="132" y="391" on="0"/>
        <pt x="102" y="315" on="0"/>
        <pt x="102" y="267" on="1"/>
        <pt x="102" y="191" on="0"/>
        <pt x="127" y="101" on="0"/>
        <pt x="168" y="53" on="0"/>
        <pt x="219" y="38" on="0"/>
      </contour>
      <contour>
        <pt x="468" y="282" on="1"/>
        <pt x="477" y="220" on="0"/>
        <pt x="501" y="122" on="0"/>
        <pt x="522" y="54" on="0"/>
        <pt x="537" y="17" on="0"/>
        <pt x="537" y="16" on="1"/>
        <pt x="538" y="13" on="0"/>
        <pt x="539" y="8" on="0"/>
        <pt x="539" y="5" on="1"/>
        <pt x="539" y="-13" on="0"/>
        <pt x="523" y="-21" on="1"/>
        <pt x="515" y="-23" on="0"/>
        <pt x="511" y="-23" on="1"/>
        <pt x="492" y="-23" on="0"/>
        <pt x="486" y="-7" on="1"/>
        <pt x="484" y="-3" on="0"/>
        <pt x="451" y="84" on="0"/>
        <pt x="433" y="162" on="1"/>
        <pt x="417" y="123" on="0"/>
        <pt x="374" y="57" on="0"/>
        <pt x="325" y="9" on="0"/>
        <pt x="272" y="-18" on="0"/>
        <pt x="246" y="-18" on="1"/>
        <pt x="144" y="-18" on="0"/>
        <pt x="46" y="122" on="0"/>
        <pt x="46" y="267" on="1"/>
        <pt x="46" y="327" on="0"/>
        <pt x="82" y="420" on="0"/>
        <pt x="139" y="490" on="0"/>
        <pt x="210" y="538" on="0"/>
        <pt x="278" y="568" on="0"/>
        <pt x="336" y="581" on="0"/>
        <pt x="353" y="581" on="1"/>
        <pt x="383" y="581" on="0"/>
        <pt x="427" y="558" on="0"/>
        <pt x="456" y="529" on="0"/>
        <pt x="470" y="504" on="0"/>
        <pt x="470" y="503" on="1"/>
        <pt x="473" y="498" on="0"/>
        <pt x="473" y="492" on="1"/>
        <pt x="473" y="482" on="0"/>
        <pt x="464" y="471" on="1"/>
        <pt x="473" y="424" on="0"/>
        <pt x="473" y="347" on="1"/>
        <pt x="473" y="331" on="0"/>
        <pt x="470" y="299" on="0"/>
      </contour>
    </TTGlyph>
    <TTGlyph name="aacute" xMin="46" yMin="-23" xMax="539" yMax="848">
      <component glyphName="a" x="0" y="0" flags="0x204"/>
      <component glyphName="acute" x="-60" y="174" flags="0x4"/>
    </TTGlyph>
    <TTGlyph name="acircumflex" xMin="46" yMin="-23" xMax="539" yMax="836">
      <component glyphName="a" x="0" y="0" flags="0x204"/>
      <component glyphName="circumflex" x="-60" y="195" flags="0x4"/>
    </TTGlyph>
    <TTGlyph name="acute" xMin="252" yMin="471" xMax="465" yMax="674">
      <contour>
        <pt x="418" y="668" on="1"/>
        <pt x="427" y="674" on="0"/>
        <pt x="437" y="674" on="1"/>
        <pt x="449" y="674" on="0"/>
        <pt x="458" y="665" on="1"/>
        <pt x="465" y="654" on="0"/>
        <pt x="465" y="646" on="1"/>
        <pt x="465" y="635" on="0"/>
        <pt x="455" y="625" on="1"/>
        <pt x="441" y="613" on="0"/>
        <pt x="423" y="599" on="0"/>
        <pt x="416" y="593" on="1"/>
        <pt x="407" y="586" on="0"/>
        <pt x="389" y="571" on="0"/>
        <pt x="372" y="557" on="1"/>
        <pt x="358" y="544" on="0"/>
        <pt x="344" y="528" on="0"/>
        <pt x="338" y="520" on="1"/>
        <pt x="331" y="512" on="0"/>
        <pt x="315" y="493" on="0"/>
        <pt x="299" y="478" on="1"/>
        <pt x="292" y="471" on="0"/>
        <pt x="280" y="471" on="1"/>
        <pt x="267" y="471" on="0"/>
        <pt x="260" y="480" on="1"/>
        <pt x="252" y="488" on="0"/>
        <pt x="252" y="499" on="1"/>
        <pt x="252" y="511" on="0"/>
        <pt x="261" y="519" on="1"/>
        <pt x="275" y="532" on="0"/>
        <pt x="288" y="547" on="0"/>
        <pt x="294" y="555" on="1"/>
        <pt x="301" y="564" on="0"/>
        <pt x="318" y="584" on="0"/>
        <pt x="335" y="599" on="1"/>
        <pt x="352" y="614" on="0"/>
        <pt x="372" y="630" on="0"/>
        <pt x="381" y="637" on="1"/>
        <pt x="389" y="643" on="0"/>
        <pt x="405" y="657" on="0"/>
      </contour>
    </TTGlyph>
    <TTGlyph name="adieresis" xMin="46" yMin="-23" xMax="539" yMax="739">
      <component glyphName="a" x="0" y="0" flags="0x204"/>
      <component glyphName="dieresis" x="-60" y="92" flags="0x4"/>
    </TTGlyph>
    <TTGlyph name="ae" xMin="46" yMin="-48" xMax="904" yMax="586">
      <contour>
        <pt x="237" y="52" on="1"/>
        <pt x="256" y="52" on="0"/>
        <pt x="304" y="90" on="0"/>
        <pt x="349" y="155" on="0"/>
        <pt x="385" y="242" on="0"/>
        <pt x="393" y="291" on="1"/>
        <pt x="386" y="338" on="0"/>
        <pt x="378" y="443" on="0"/>
        <pt x="378" y="502" on="1"/>
        <pt x="367" y="510" on="0"/>
        <pt x="367" y="523" on="1"/>
        <pt x="353" y="530" on="0"/>
        <pt x="340" y="530" on="1"/>
        <pt x="327" y="530" on="0"/>
        <pt x="282" y="519" on="0"/>
        <pt x="229" y="494" on="0"/>
        <pt x="175" y="455" on="0"/>
        <pt x="130" y="399" on="0"/>
        <pt x="102" y="324" on="0"/>
        <pt x="102" y="277" on="1"/>
        <pt x="102" y="203" on="0"/>
        <pt x="125" y="114" on="0"/>
        <pt x="163" y="67" on="0"/>
        <pt x="212" y="52" on="0"/>
      </contour>
      <contour>
        <pt x="676" y="530" on="1"/>
        <pt x="666" y="530" on="0"/>
        <pt x="610" y="509" on="0"/>
        <pt x="548" y="453" on="0"/>
        <pt x="496" y="356" on="0"/>
        <pt x="490" y="280" on="1"/>
        <pt x="508" y="285" on="0"/>
        <pt x="555" y="296" on="0"/>
        <pt x="601" y="306" on="0"/>
        <pt x="642" y="313" on="0"/>
        <pt x="655" y="313" on="1"/>
        <pt x="669" y="313" on="0"/>
        <pt x="715" y="327" on="0"/>
        <pt x="738" y="335" on="1"/>
        <pt x="755" y="341" on="0"/>
        <pt x="789" y="352" on="0"/>
        <pt x="804" y="355" on="1"/>
        <pt x="800" y="400" on="0"/>
        <pt x="772" y="465" on="0"/>
        <pt x="735" y="509" on="0"/>
        <pt x="694" y="530" on="0"/>
      </contour>
      <contour>
        <pt x="876" y="23" on="1"/>
        <pt x="887" y="23" on="0"/>
        <pt x="902" y="9" on="0"/>
        <pt x="904" y="-5" on="1"/>
        <pt x="904" y="-15" on="0"/>
        <pt x="891" y="-30" on="0"/>
        <pt x="881" y="-32" on="1"/>
        <pt x="879" y="-32" on="0"/>
        <pt x="845" y="-37" on="0"/>
        <pt x="798" y="-43" on="0"/>
        <pt x="747" y="-48" on="0"/>
        <pt x="729" y="-48" on="1"/>
        <pt x="662" y="-48" on="0"/>
        <pt x="555" y="-13" on="0"/>
        <pt x="517" y="19" on="1"/>
        <pt x="517" y="1" on="0"/>
        <pt x="501" y="-7" on="1"/>
        <pt x="493" y="-9" on="0"/>
        <pt x="490" y="-9" on="1"/>
        <pt x="482" y="-9" on="0"/>
        <pt x="467" y="0" on="0"/>
        <pt x="464" y="8" on="1"/>
        <pt x="462" y="11" on="0"/>
        <pt x="432" y="94" on="0"/>
        <pt x="415" y="169" on="1"/>
        <pt x="399" y="132" on="0"/>
        <pt x="359" y="69" on="0"/>
        <pt x="312" y="22" on="0"/>
        <pt x="262" y="-4" on="0"/>
        <pt x="237" y="-4" on="1"/>
        <pt x="46" y="-4" on="0"/>
        <pt x="46" y="277" on="1"/>
        <pt x="46" y="336" on="0"/>
        <pt x="81" y="427" on="0"/>
        <pt x="135" y="496" on="0"/>
        <pt x="202" y="543" on="0"/>
        <pt x="268" y="573" on="0"/>
        <pt x="324" y="586" on="0"/>
        <pt x="340" y="586" on="1"/>
        <pt x="369" y="586" on="0"/>
        <pt x="411" y="563" on="0"/>
        <pt x="438" y="534" on="0"/>
        <pt x="452" y="510" on="0"/>
        <pt x="452" y="509" on="1"/>
        <pt x="454" y="505" on="0"/>
        <pt x="454" y="498" on="1"/>
        <pt x="454" y="487" on="0"/>
        <pt x="446" y="477" on="1"/>
        <pt x="449" y="459" on="0"/>
        <pt x="453" y="414" on="0"/>
        <pt x="454" y="386" on="1"/>
        <pt x="474" y="447" on="0"/>
        <pt x="539" y="524" on="0"/>
        <pt x="607" y="569" on="0"/>
        <pt x="664" y="586" on="0"/>
        <pt x="676" y="586" on="1"/>
        <pt x="703" y="586" on="0"/>
        <pt x="765" y="558" on="0"/>
        <pt x="819" y="499" on="0"/>
        <pt x="857" y="410" on="0"/>
        <pt x="861" y="349" on="1"/>
        <pt x="867" y="343" on="0"/>
        <pt x="867" y="332" on="1"/>
        <pt x="867" y="321" on="0"/>
        <pt x="861" y="315" on="1"/>
        <pt x="856" y="293" on="0"/>
        <pt x="834" y="293" on="1"/>
        <pt x="825" y="293" on="0"/>
        <pt x="816" y="300" on="1"/>
        <pt x="802" y="297" on="0"/>
        <pt x="771" y="287" on="0"/>
        <pt x="757" y="282" on="1"/>
        <pt x="728" y="272" on="0"/>
        <pt x="677" y="257" on="0"/>
        <pt x="655" y="257" on="1"/>
        <pt x="644" y="257" on="0"/>
        <pt x="603" y="250" on="0"/>
        <pt x="555" y="239" on="0"/>
        <pt x="507" y="226" on="0"/>
        <pt x="489" y="221" on="1"/>
        <pt x="493" y="152" on="0"/>
        <pt x="544" y="68" on="0"/>
        <pt x="616" y="23" on="0"/>
        <pt x="696" y="8" on="0"/>
        <pt x="729" y="8" on="1"/>
        <pt x="746" y="8" on="0"/>
        <pt x="794" y="13" on="0"/>
        <pt x="839" y="18" on="0"/>
        <pt x="856" y="21" on="1"/>
        <pt x="872" y="23" on="1"/>
      </contour>
    </TTGlyph>
    <TTGlyph name="agrave" xMin="46" yMin="-23" xMax="539" yMax="867">
      <component glyphName="a" x="0" y="0" flags="0x204"/>
      <component glyphName="grave" x="-71" y="195" flags="0x4"/>
    </TTGlyph>
    <TTGlyph name="ampersand" xMin="51" yMin="-39" xMax="615" yMax="780">
      <contour>
        <pt x="403" y="69" on="1"/>
        <pt x="429" y="85" on="0"/>
        <pt x="473" y="121" on="0"/>
        <pt x="491" y="138" on="1"/>
        <pt x="474" y="165" on="0"/>
        <pt x="424" y="242" on="0"/>
        <pt x="370" y="320" on="0"/>
        <pt x="319" y="389" on="0"/>
        <pt x="303" y="407" on="1"/>
        <pt x="281" y="432" on="1"/>
        <pt x="278" y="435" on="0"/>
        <pt x="273" y="442" on="0"/>
        <pt x="270" y="445" on="1"/>
        <pt x="226" y="404" on="0"/>
        <pt x="146" y="319" on="0"/>
        <pt x="125" y="268" on="1"/>
        <pt x="117" y="248" on="0"/>
        <pt x="107" y="210" on="0"/>
        <pt x="107" y="184" on="1"/>
        <pt x="107" y="166" on="0"/>
        <pt x="110" y="144" on="1"/>
        <pt x="119" y="56" on="0"/>
        <pt x="173" y="29" on="1"/>
        <pt x="186" y="22" on="0"/>
        <pt x="217" y="17" on="0"/>
        <pt x="234" y="17" on="1"/>
        <pt x="276" y="17" on="0"/>
        <pt x="365" y="47" on="0"/>
      </contour>
      <contour>
        <pt x="207" y="693" on="1"/>
        <pt x="204" y="687" on="0"/>
        <pt x="204" y="678" on="1"/>
        <pt x="204" y="663" on="0"/>
        <pt x="217" y="627" on="0"/>
        <pt x="238" y="587" on="0"/>
        <pt x="265" y="546" on="0"/>
        <pt x="278" y="528" on="1"/>
        <pt x="317" y="564" on="0"/>
        <pt x="370" y="633" on="0"/>
        <pt x="370" y="673" on="1"/>
        <pt x="368" y="687" on="0"/>
        <pt x="348" y="706" on="0"/>
        <pt x="338" y="711" on="1"/>
        <pt x="312" y="724" on="0"/>
        <pt x="284" y="724" on="1"/>
        <pt x="273" y="724" on="1"/>
        <pt x="254" y="722" on="0"/>
        <pt x="213" y="708" on="0"/>
      </contour>
      <contour>
        <pt x="561" y="131" on="1"/>
        <pt x="570" y="117" on="0"/>
        <pt x="594" y="82" on="0"/>
        <pt x="610" y="59" on="1"/>
        <pt x="615" y="51" on="0"/>
        <pt x="615" y="43" on="1"/>
        <pt x="615" y="29" on="0"/>
        <pt x="603" y="20" on="1"/>
        <pt x="595" y="15" on="0"/>
        <pt x="587" y="15" on="1"/>
        <pt x="571" y="15" on="0"/>
        <pt x="564" y="27" on="1"/>
        <pt x="551" y="46" on="0"/>
        <pt x="530" y="76" on="0"/>
        <pt x="521" y="89" on="1"/>
        <pt x="502" y="72" on="0"/>
        <pt x="458" y="37" on="0"/>
        <pt x="432" y="21" on="1"/>
        <pt x="391" y="-3" on="0"/>
        <pt x="286" y="-39" on="0"/>
        <pt x="233" y="-39" on="1"/>
        <pt x="210" y="-39" on="0"/>
        <pt x="168" y="-31" on="0"/>
        <pt x="148" y="-21" on="1"/>
        <pt x="66" y="20" on="0"/>
        <pt x="54" y="138" on="1"/>
        <pt x="51" y="163" on="0"/>
        <pt x="51" y="184" on="1"/>
        <pt x="51" y="216" on="0"/>
        <pt x="62" y="264" on="0"/>
        <pt x="73" y="290" on="1"/>
        <pt x="98" y="350" on="0"/>
        <pt x="189" y="447" on="0"/>
        <pt x="236" y="490" on="1"/>
        <pt x="195" y="546" on="0"/>
        <pt x="148" y="640" on="0"/>
        <pt x="148" y="678" on="1"/>
        <pt x="148" y="700" on="0"/>
        <pt x="155" y="715" on="1"/>
        <pt x="178" y="770" on="0"/>
        <pt x="268" y="779" on="1"/>
        <pt x="273" y="780" on="0"/>
        <pt x="284" y="780" on="1"/>
        <pt x="326" y="780" on="0"/>
        <pt x="364" y="761" on="1"/>
        <pt x="420" y="731" on="0"/>
        <pt x="425" y="679" on="1"/>
        <pt x="426" y="675" on="0"/>
        <pt x="426" y="668" on="0"/>
        <pt x="426" y="665" on="1"/>
        <pt x="426" y="639" on="0"/>
        <pt x="408" y="592" on="0"/>
        <pt x="377" y="547" on="0"/>
        <pt x="335" y="504" on="0"/>
        <pt x="312" y="483" on="1"/>
        <pt x="315" y="478" on="0"/>
        <pt x="321" y="471" on="0"/>
        <pt x="324" y="467" on="1"/>
        <pt x="345" y="444" on="1"/>
        <pt x="362" y="424" on="0"/>
        <pt x="411" y="359" on="0"/>
        <pt x="464" y="284" on="0"/>
        <pt x="513" y="209" on="0"/>
        <pt x="530" y="181" on="1"/>
        <pt x="544" y="197" on="0"/>
        <pt x="557" y="217" on="0"/>
        <pt x="558" y="218" on="1"/>
        <pt x="566" y="231" on="0"/>
        <pt x="581" y="231" on="1"/>
        <pt x="589" y="231" on="0"/>
        <pt x="596" y="226" on="1"/>
        <pt x="609" y="219" on="0"/>
        <pt x="609" y="203" on="1"/>
        <pt x="609" y="193" on="0"/>
        <pt x="605" y="188" on="1"/>
        <pt x="604" y="186" on="0"/>
        <pt x="581" y="154" on="0"/>
      </contour>
    </TTGlyph>
    <TTGlyph name="aring" xMin="46" yMin="-23" xMax="539" yMax="798">
      <contour>
        <pt x="246" y="38" on="1"/>
        <pt x="267" y="38" on="0"/>
        <pt x="317" y="77" on="0"/>
        <pt x="364" y="143" on="0"/>
        <pt x="402" y="232" on="0"/>
        <pt x="411" y="282" on="1"/>
        <pt x="404" y="330" on="0"/>
        <pt x="396" y="436" on="0"/>
        <pt x="395" y="496" on="1"/>
        <pt x="384" y="505" on="0"/>
        <pt x="384" y="518" on="1"/>
        <pt x="377" y="521" on="0"/>
        <pt x="362" y="525" on="0"/>
        <pt x="353" y="525" on="1"/>
        <pt x="340" y="525" on="0"/>
        <pt x="292" y="514" on="0"/>
        <pt x="236" y="489" on="0"/>
        <pt x="179" y="449" on="0"/>
        <pt x="132" y="391" on="0"/>
        <pt x="102" y="315" on="0"/>
        <pt x="102" y="267" on="1"/>
        <pt x="102" y="191" on="0"/>
        <pt x="127" y="101" on="0"/>
        <pt x="168" y="53" on="0"/>
        <pt x="219" y="38" on="0"/>
      </contour>
      <contour>
        <pt x="344" y="656" on="1"/>
        <pt x="349" y="671" on="0"/>
        <pt x="349" y="687" on="1"/>
        <pt x="349" y="697" on="0"/>
        <pt x="345" y="715" on="0"/>
        <pt x="340" y="723" on="1"/>
        <pt x="330" y="741" on="0"/>
        <pt x="306" y="742" on="1"/>
        <pt x="286" y="742" on="0"/>
        <pt x="263" y="730" on="0"/>
        <pt x="249" y="711" on="0"/>
        <pt x="245" y="687" on="0"/>
        <pt x="245" y="676" on="1"/>
        <pt x="245" y="662" on="0"/>
        <pt x="254" y="639" on="0"/>
        <pt x="266" y="622" on="0"/>
        <pt x="280" y="612" on="0"/>
        <pt x="285" y="612" on="1"/>
        <pt x="301" y="612" on="0"/>
        <pt x="336" y="634" on="0"/>
      </contour>
      <contour>
        <pt x="310" y="798" on="1"/>
        <pt x="362" y="793" on="0"/>
        <pt x="387" y="753" on="1"/>
        <pt x="397" y="738" on="0"/>
        <pt x="405" y="704" on="0"/>
        <pt x="405" y="687" on="1"/>
        <pt x="405" y="657" on="0"/>
        <pt x="396" y="636" on="1"/>
        <pt x="384" y="604" on="0"/>
        <pt x="355" y="581" on="1"/>
        <pt x="385" y="581" on="0"/>
        <pt x="428" y="557" on="0"/>
        <pt x="456" y="528" on="0"/>
        <pt x="470" y="504" on="0"/>
        <pt x="470" y="503" on="1"/>
        <pt x="473" y="498" on="0"/>
        <pt x="473" y="492" on="1"/>
        <pt x="473" y="482" on="0"/>
        <pt x="464" y="471" on="1"/>
        <pt x="473" y="424" on="0"/>
        <pt x="473" y="347" on="1"/>
        <pt x="473" y="331" on="0"/>
        <pt x="470" y="299" on="0"/>
        <pt x="468" y="282" on="1"/>
        <pt x="477" y="220" on="0"/>
        <pt x="501" y="122" on="0"/>
        <pt x="522" y="54" on="0"/>
        <pt x="537" y="17" on="0"/>
        <pt x="537" y="16" on="1"/>
        <pt x="538" y="13" on="0"/>
        <pt x="539" y="8" on="0"/>
        <pt x="539" y="5" on="1"/>
        <pt x="539" y="-13" on="0"/>
        <pt x="523" y="-21" on="1"/>
        <pt x="515" y="-23" on="0"/>
        <pt x="511" y="-23" on="1"/>
        <pt x="492" y="-23" on="0"/>
        <pt x="486" y="-7" on="1"/>
        <pt x="484" y="-3" on="0"/>
        <pt x="451" y="84" on="0"/>
        <pt x="433" y="162" on="1"/>
        <pt x="417" y="123" on="0"/>
        <pt x="374" y="57" on="0"/>
        <pt x="325" y="9" on="0"/>
        <pt x="272" y="-18" on="0"/>
        <pt x="246" y="-18" on="1"/>
        <pt x="144" y="-18" on="0"/>
        <pt x="46" y="122" on="0"/>
        <pt x="46" y="267" on="1"/>
        <pt x="46" y="331" on="0"/>
        <pt x="87" y="428" on="0"/>
        <pt x="150" y="499" on="0"/>
        <pt x="226" y="546" on="0"/>
        <pt x="262" y="560" on="1"/>
        <pt x="232" y="571" on="0"/>
        <pt x="189" y="637" on="0"/>
        <pt x="189" y="676" on="1"/>
        <pt x="189" y="732" on="0"/>
        <pt x="249" y="798" on="0"/>
        <pt x="300" y="798" on="1"/>
      </contour>
    </TTGlyph>
    <TTGlyph name="asciicircum" xMin="31" yMin="308" xMax="436" yMax="746">
      <contour>
        <pt x="383" y="514" on="1"/>
        <pt x="413" y="438" on="0"/>
        <pt x="435" y="342" on="0"/>
        <pt x="436" y="336" on="1"/>
        <pt x="436" y="326" on="0"/>
        <pt x="422" y="310" on="0"/>
        <pt x="408" y="308" on="1"/>
        <pt x="397" y="308" on="0"/>
        <pt x="382" y="321" on="0"/>
        <pt x="380" y="331" on="1"/>
        <pt x="380" y="332" on="0"/>
        <pt x="359" y="422" on="0"/>
        <pt x="331" y="494" on="1"/>
        <pt x="314" y="536" on="0"/>
        <pt x="274" y="620" on="0"/>
        <pt x="257" y="652" on="1"/>
        <pt x="243" y="619" on="0"/>
        <pt x="203" y="530" on="0"/>
        <pt x="180" y="488" on="1"/>
        <pt x="140" y="416" on="0"/>
        <pt x="82" y="339" on="0"/>
        <pt x="80" y="337" on="1"/>
        <pt x="71" y="327" on="0"/>
        <pt x="59" y="327" on="1"/>
        <pt x="48" y="327" on="0"/>
        <pt x="41" y="334" on="1"/>
        <pt x="31" y="341" on="0"/>
        <pt x="31" y="355" on="1"/>
        <pt x="31" y="365" on="0"/>
        <pt x="37" y="373" on="1"/>
        <pt x="38" y="374" on="0"/>
        <pt x="93" y="447" on="0"/>
        <pt x="131" y="515" on="1"/>
        <pt x="150" y="549" on="0"/>
        <pt x="184" y="624" on="0"/>
        <pt x="211" y="687" on="0"/>
        <pt x="219" y="708" on="1"/>
        <pt x="227" y="728" on="1"/>
        <pt x="232" y="737" on="1"/>
        <pt x="241" y="743" on="1"/>
        <pt x="251" y="746" on="1"/>
        <pt x="263" y="745" on="1"/>
        <pt x="272" y="740" on="1"/>
        <pt x="278" y="732" on="1"/>
        <pt x="279" y="730" on="0"/>
        <pt x="301" y="690" on="0"/>
        <pt x="333" y="628" on="0"/>
        <pt x="368" y="552" on="0"/>
      </contour>
    </TTGlyph>
    <TTGlyph name="asciitilde" xMin="15" yMin="272" xMax="484" yMax="383">
      <contour>
        <pt x="440" y="348" on="1"/>
        <pt x="447" y="352" on="0"/>
        <pt x="455" y="352" on="1"/>
        <pt x="470" y="352" on="0"/>
        <pt x="479" y="340" on="1"/>
        <pt x="484" y="332" on="0"/>
        <pt x="484" y="324" on="1"/>
        <pt x="484" y="311" on="0"/>
        <pt x="471" y="301" on="1"/>
        <pt x="470" y="301" on="0"/>
        <pt x="454" y="291" on="0"/>
        <pt x="425" y="281" on="0"/>
        <pt x="385" y="272" on="0"/>
        <pt x="361" y="272" on="1"/>
        <pt x="334" y="272" on="0"/>
        <pt x="271" y="286" on="0"/>
        <pt x="236" y="304" on="1"/>
        <pt x="213" y="317" on="0"/>
        <pt x="170" y="327" on="0"/>
        <pt x="151" y="327" on="1"/>
        <pt x="130" y="327" on="0"/>
        <pt x="97" y="318" on="0"/>
        <pt x="74" y="308" on="0"/>
        <pt x="68" y="303" on="1"/>
        <pt x="61" y="298" on="1"/>
        <pt x="53" y="292" on="0"/>
        <pt x="43" y="292" on="1"/>
        <pt x="29" y="292" on="0"/>
        <pt x="22" y="302" on="1"/>
        <pt x="15" y="309" on="0"/>
        <pt x="15" y="320" on="1"/>
        <pt x="15" y="333" on="0"/>
        <pt x="25" y="341" on="1"/>
        <pt x="26" y="342" on="0"/>
        <pt x="45" y="356" on="0"/>
        <pt x="78" y="371" on="0"/>
        <pt x="123" y="383" on="0"/>
        <pt x="151" y="383" on="1"/>
        <pt x="176" y="383" on="0"/>
        <pt x="232" y="371" on="0"/>
        <pt x="263" y="354" on="1"/>
        <pt x="291" y="339" on="0"/>
        <pt x="341" y="328" on="0"/>
        <pt x="361" y="328" on="1"/>
        <pt x="397" y="328" on="0"/>
        <pt x="438" y="347" on="0"/>
      </contour>
    </TTGlyph>
    <TTGlyph name="asterisk" xMin="20" yMin="279" xMax="421" yMax="747">
      <contour>
        <pt x="274" y="525" on="1"/>
        <pt x="341" y="480" on="0"/>
        <pt x="411" y="416" on="0"/>
        <pt x="413" y="414" on="1"/>
        <pt x="421" y="406" on="0"/>
        <pt x="421" y="394" on="1"/>
        <pt x="421" y="384" on="0"/>
        <pt x="413" y="374" on="1"/>
        <pt x="403" y="366" on="0"/>
        <pt x="393" y="366" on="1"/>
        <pt x="382" y="366" on="0"/>
        <pt x="373" y="375" on="1"/>
        <pt x="361" y="387" on="0"/>
        <pt x="344" y="401" on="1"/>
        <pt x="330" y="413" on="0"/>
        <pt x="288" y="446" on="0"/>
        <pt x="262" y="465" on="1"/>
        <pt x="261" y="390" on="0"/>
        <pt x="248" y="303" on="0"/>
        <pt x="247" y="301" on="1"/>
        <pt x="245" y="291" on="0"/>
        <pt x="228" y="279" on="0"/>
        <pt x="214" y="280" on="1"/>
        <pt x="204" y="282" on="0"/>
        <pt x="192" y="299" on="0"/>
        <pt x="193" y="313" on="1"/>
        <pt x="196" y="333" on="0"/>
        <pt x="199" y="359" on="1"/>
        <pt x="201" y="381" on="0"/>
        <pt x="204" y="442" on="0"/>
        <pt x="202" y="480" on="1"/>
        <pt x="137" y="438" on="0"/>
        <pt x="69" y="375" on="0"/>
        <pt x="68" y="375" on="1"/>
        <pt x="60" y="366" on="0"/>
        <pt x="48" y="366" on="1"/>
        <pt x="37" y="366" on="0"/>
        <pt x="29" y="374" on="1"/>
        <pt x="20" y="383" on="0"/>
        <pt x="20" y="394" on="1"/>
        <pt x="20" y="404" on="0"/>
        <pt x="28" y="414" on="1"/>
        <pt x="30" y="416" on="0"/>
        <pt x="101" y="480" on="0"/>
        <pt x="168" y="525" on="1"/>
        <pt x="142" y="540" on="0"/>
        <pt x="95" y="565" on="0"/>
        <pt x="59" y="584" on="0"/>
        <pt x="48" y="590" on="1"/>
        <pt x="36" y="595" on="1"/>
        <pt x="20" y="603" on="0"/>
        <pt x="20" y="621" on="1"/>
        <pt x="20" y="627" on="0"/>
        <pt x="23" y="633" on="1"/>
        <pt x="31" y="649" on="0"/>
        <pt x="48" y="649" on="1"/>
        <pt x="55" y="649" on="0"/>
        <pt x="61" y="646" on="1"/>
        <pt x="62" y="645" on="0"/>
        <pt x="87" y="633" on="0"/>
        <pt x="126" y="612" on="0"/>
        <pt x="176" y="585" on="0"/>
        <pt x="203" y="570" on="1"/>
        <pt x="201" y="599" on="0"/>
        <pt x="195" y="651" on="0"/>
        <pt x="191" y="692" on="0"/>
        <pt x="187" y="717" on="0"/>
        <pt x="187" y="719" on="1"/>
        <pt x="187" y="730" on="0"/>
        <pt x="201" y="745" on="0"/>
        <pt x="215" y="747" on="1"/>
        <pt x="226" y="747" on="0"/>
        <pt x="241" y="734" on="0"/>
        <pt x="243" y="723" on="1"/>
        <pt x="243" y="722" on="0"/>
        <pt x="247" y="698" on="0"/>
        <pt x="251" y="660" on="0"/>
        <pt x="256" y="609" on="0"/>
        <pt x="258" y="581" on="1"/>
        <pt x="282" y="594" on="0"/>
        <pt x="326" y="618" on="0"/>
        <pt x="359" y="635" on="0"/>
        <pt x="380" y="645" on="0"/>
        <pt x="381" y="646" on="1"/>
        <pt x="387" y="649" on="0"/>
        <pt x="393" y="649" on="1"/>
        <pt x="412" y="649" on="0"/>
        <pt x="418" y="633" on="1"/>
        <pt x="421" y="627" on="0"/>
        <pt x="421" y="621" on="1"/>
        <pt x="421" y="603" on="0"/>
        <pt x="405" y="595" on="1"/>
        <pt x="394" y="590" on="1"/>
        <pt x="382" y="584" on="0"/>
        <pt x="346" y="565" on="0"/>
        <pt x="299" y="540" on="0"/>
      </contour>
    </TTGlyph>
    <TTGlyph name="at" xMin="20" yMin="9" xMax="641" yMax="706">
      <contour>
        <pt x="419" y="377" on="1"/>
        <pt x="421" y="394" on="0"/>
        <pt x="422" y="440" on="0"/>
        <pt x="422" y="462" on="1"/>
        <pt x="422" y="473" on="0"/>
        <pt x="422" y="492" on="0"/>
        <pt x="420" y="500" on="1"/>
        <pt x="409" y="500" on="0"/>
        <pt x="358" y="484" on="0"/>
        <pt x="303" y="448" on="0"/>
        <pt x="256" y="388" on="0"/>
        <pt x="249" y="345" on="1"/>
        <pt x="243" y="309" on="0"/>
        <pt x="243" y="286" on="1"/>
        <pt x="243" y="263" on="0"/>
        <pt x="251" y="237" on="0"/>
        <pt x="256" y="231" on="1"/>
        <pt x="260" y="226" on="0"/>
        <pt x="277" y="218" on="0"/>
        <pt x="297" y="218" on="1"/>
        <pt x="308" y="218" on="0"/>
        <pt x="342" y="243" on="0"/>
        <pt x="377" y="286" on="0"/>
        <pt x="410" y="344" on="0"/>
      </contour>
      <contour>
        <pt x="399" y="706" on="1"/>
        <pt x="506" y="706" on="0"/>
        <pt x="572" y="642" on="1"/>
        <pt x="606" y="607" on="0"/>
        <pt x="641" y="510" on="0"/>
        <pt x="641" y="445" on="1"/>
        <pt x="640" y="379" on="0"/>
        <pt x="617" y="279" on="0"/>
        <pt x="580" y="211" on="0"/>
        <pt x="532" y="176" on="0"/>
        <pt x="507" y="173" on="1"/>
        <pt x="484" y="173" on="0"/>
        <pt x="437" y="211" on="0"/>
        <pt x="426" y="261" on="1"/>
        <pt x="398" y="217" on="0"/>
        <pt x="329" y="162" on="0"/>
        <pt x="297" y="162" on="1"/>
        <pt x="241" y="162" on="0"/>
        <pt x="214" y="195" on="1"/>
        <pt x="187" y="226" on="0"/>
        <pt x="187" y="287" on="1"/>
        <pt x="187" y="319" on="0"/>
        <pt x="194" y="354" on="1"/>
        <pt x="203" y="408" on="0"/>
        <pt x="261" y="485" on="0"/>
        <pt x="330" y="533" on="0"/>
        <pt x="399" y="556" on="0"/>
        <pt x="420" y="556" on="1"/>
        <pt x="425" y="556" on="0"/>
        <pt x="434" y="555" on="0"/>
        <pt x="439" y="554" on="1"/>
        <pt x="441" y="555" on="0"/>
        <pt x="446" y="555" on="0"/>
        <pt x="450" y="556" on="1"/>
        <pt x="461" y="556" on="0"/>
        <pt x="475" y="542" on="0"/>
        <pt x="477" y="531" on="1"/>
        <pt x="491" y="514" on="0"/>
        <pt x="497" y="490" on="1"/>
        <pt x="497" y="478" on="0"/>
        <pt x="489" y="470" on="1"/>
        <pt x="489" y="456" on="0"/>
        <pt x="486" y="420" on="0"/>
        <pt x="481" y="395" on="1"/>
        <pt x="479" y="387" on="0"/>
        <pt x="476" y="372" on="0"/>
        <pt x="473" y="360" on="1"/>
        <pt x="473" y="356" on="0"/>
        <pt x="472" y="347" on="0"/>
        <pt x="472" y="342" on="1"/>
        <pt x="472" y="327" on="0"/>
        <pt x="478" y="289" on="0"/>
        <pt x="483" y="265" on="1"/>
        <pt x="486" y="252" on="0"/>
        <pt x="498" y="229" on="0"/>
        <pt x="508" y="229" on="1"/>
        <pt x="518" y="230" on="0"/>
        <pt x="544" y="257" on="0"/>
        <pt x="568" y="310" on="0"/>
        <pt x="585" y="392" on="0"/>
        <pt x="585" y="448" on="1"/>
        <pt x="585" y="551" on="0"/>
        <pt x="532" y="602" on="1"/>
        <pt x="503" y="631" on="0"/>
        <pt x="428" y="650" on="0"/>
        <pt x="395" y="650" on="1"/>
        <pt x="353" y="649" on="0"/>
        <pt x="250" y="595" on="0"/>
        <pt x="157" y="497" on="0"/>
        <pt x="87" y="361" on="0"/>
        <pt x="78" y="278" on="1"/>
        <pt x="77" y="268" on="0"/>
        <pt x="76" y="250" on="0"/>
        <pt x="76" y="241" on="1"/>
        <pt x="76" y="159" on="0"/>
        <pt x="118" y="116" on="1"/>
        <pt x="147" y="86" on="0"/>
        <pt x="232" y="65" on="0"/>
        <pt x="272" y="65" on="1"/>
        <pt x="280" y="65" on="0"/>
        <pt x="293" y="66" on="0"/>
        <pt x="300" y="66" on="1"/>
        <pt x="322" y="67" on="0"/>
        <pt x="372" y="89" on="0"/>
        <pt x="419" y="116" on="0"/>
        <pt x="456" y="144" on="0"/>
        <pt x="466" y="153" on="1"/>
        <pt x="473" y="159" on="0"/>
        <pt x="484" y="159" on="1"/>
        <pt x="497" y="159" on="0"/>
        <pt x="505" y="150" on="1"/>
        <pt x="512" y="142" on="0"/>
        <pt x="512" y="131" on="1"/>
        <pt x="512" y="119" on="0"/>
        <pt x="502" y="110" on="1"/>
        <pt x="500" y="108" on="0"/>
        <pt x="463" y="79" on="0"/>
        <pt x="406" y="43" on="0"/>
        <pt x="337" y="12" on="0"/>
        <pt x="303" y="10" on="1"/>
        <pt x="295" y="10" on="0"/>
        <pt x="280" y="9" on="0"/>
        <pt x="272" y="9" on="1"/>
        <pt x="144" y="9" on="0"/>
        <pt x="78" y="78" on="1"/>
        <pt x="20" y="138" on="0"/>
        <pt x="20" y="241" on="1"/>
        <pt x="20" y="261" on="0"/>
        <pt x="23" y="284" on="1"/>
        <pt x="33" y="379" on="0"/>
        <pt x="113" y="534" on="0"/>
        <pt x="223" y="645" on="0"/>
        <pt x="344" y="705" on="0"/>
        <pt x="394" y="706" on="1"/>
      </contour>
    </TTGlyph>
    <TTGlyph name="atilde" xMin="46" yMin="-23" xMax="539" yMax="754">
      <component glyphName="a" x="0" y="0" flags="0x204"/>
      <component glyphName="tilde" x="-50" y="113" flags="0x4"/>
    </TTGlyph>
    <TTGlyph name="b" xMin="51" yMin="-25" xMax="523" yMax="792">
      <contour>
        <pt x="403" y="81" on="1"/>
        <pt x="467" y="130" on="0"/>
        <pt x="467" y="227" on="1"/>
        <pt x="467" y="307" on="0"/>
        <pt x="438" y="411" on="0"/>
        <pt x="393" y="475" on="0"/>
        <pt x="338" y="507" on="0"/>
        <pt x="311" y="515" on="1"/>
        <pt x="307" y="517" on="0"/>
        <pt x="299" y="517" on="0"/>
        <pt x="295" y="517" on="1"/>
        <pt x="281" y="517" on="0"/>
        <pt x="254" y="505" on="0"/>
        <pt x="244" y="497" on="1"/>
        <pt x="226" y="483" on="0"/>
        <pt x="189" y="437" on="0"/>
        <pt x="160" y="374" on="0"/>
        <pt x="142" y="297" on="0"/>
        <pt x="142" y="253" on="1"/>
        <pt x="147" y="211" on="0"/>
        <pt x="159" y="131" on="0"/>
        <pt x="165" y="96" on="1"/>
        <pt x="176" y="88" on="0"/>
        <pt x="176" y="70" on="1"/>
        <pt x="184" y="62" on="0"/>
        <pt x="204" y="50" on="0"/>
        <pt x="216" y="47" on="1"/>
        <pt x="234" y="41" on="0"/>
        <pt x="266" y="41" on="1"/>
        <pt x="298" y="41" on="0"/>
        <pt x="372" y="58" on="0"/>
      </contour>
      <contour>
        <pt x="327" y="569" on="1"/>
        <pt x="427" y="539" on="0"/>
        <pt x="523" y="372" on="0"/>
        <pt x="523" y="227" on="1"/>
        <pt x="523" y="100" on="0"/>
        <pt x="436" y="36" on="1"/>
        <pt x="398" y="7" on="0"/>
        <pt x="307" y="-15" on="0"/>
        <pt x="266" y="-15" on="1"/>
        <pt x="227" y="-15" on="0"/>
        <pt x="200" y="-7" on="1"/>
        <pt x="194" y="-5" on="0"/>
        <pt x="182" y="0" on="0"/>
        <pt x="177" y="2" on="1"/>
        <pt x="177" y="-20" on="0"/>
        <pt x="149" y="-25" on="1"/>
        <pt x="139" y="-25" on="0"/>
        <pt x="124" y="-12" on="0"/>
        <pt x="122" y="-1" on="1"/>
        <pt x="121" y="1" on="0"/>
        <pt x="116" y="33" on="0"/>
        <pt x="112" y="59" on="1"/>
        <pt x="100" y="75" on="0"/>
        <pt x="89" y="99" on="0"/>
        <pt x="88" y="100" on="1"/>
        <pt x="87" y="103" on="0"/>
        <pt x="86" y="108" on="0"/>
        <pt x="86" y="111" on="1"/>
        <pt x="86" y="123" on="0"/>
        <pt x="95" y="131" on="1"/>
        <pt x="91" y="153" on="0"/>
        <pt x="89" y="211" on="0"/>
        <pt x="86" y="249" on="1"/>
        <pt x="81" y="306" on="0"/>
        <pt x="70" y="413" on="0"/>
        <pt x="70" y="451" on="1"/>
        <pt x="70" y="499" on="0"/>
        <pt x="64" y="607" on="0"/>
        <pt x="57" y="700" on="0"/>
        <pt x="51" y="762" on="0"/>
        <pt x="51" y="764" on="1"/>
        <pt x="51" y="775" on="0"/>
        <pt x="66" y="790" on="0"/>
        <pt x="79" y="792" on="1"/>
        <pt x="90" y="792" on="0"/>
        <pt x="106" y="777" on="0"/>
        <pt x="107" y="766" on="1"/>
        <pt x="107" y="763" on="0"/>
        <pt x="113" y="701" on="0"/>
        <pt x="120" y="609" on="0"/>
        <pt x="126" y="500" on="0"/>
        <pt x="126" y="451" on="1"/>
        <pt x="126" y="435" on="1"/>
        <pt x="142" y="468" on="0"/>
        <pt x="184" y="523" on="0"/>
        <pt x="210" y="542" on="1"/>
        <pt x="251" y="573" on="0"/>
        <pt x="296" y="573" on="1"/>
        <pt x="304" y="573" on="0"/>
        <pt x="319" y="571" on="0"/>
      </contour>
    </TTGlyph>
    <TTGlyph name="backslash" xMin="29" yMin="-9" xMax="361" yMax="767">
      <contour>
        <pt x="215" y="397" on="1"/>
        <pt x="220" y="378" on="0"/>
        <pt x="245" y="308" on="0"/>
        <pt x="276" y="225" on="0"/>
        <pt x="310" y="139" on="0"/>
        <pt x="337" y="68" on="0"/>
        <pt x="355" y="23" on="0"/>
        <pt x="356" y="22" on="1"/>
        <pt x="361" y="11" on="0"/>
        <pt x="351" y="-7" on="0"/>
        <pt x="337" y="-9" on="1"/>
        <pt x="326" y="-9" on="0"/>
        <pt x="307" y="5" on="0"/>
        <pt x="302" y="16" on="1"/>
        <pt x="301" y="19" on="0"/>
        <pt x="282" y="67" on="0"/>
        <pt x="254" y="138" on="0"/>
        <pt x="221" y="224" on="0"/>
        <pt x="190" y="307" on="0"/>
        <pt x="165" y="377" on="0"/>
        <pt x="159" y="397" on="1"/>
        <pt x="150" y="428" on="0"/>
        <pt x="118" y="522" on="0"/>
        <pt x="81" y="619" on="0"/>
        <pt x="46" y="707" on="0"/>
        <pt x="34" y="732" on="1"/>
        <pt x="29" y="743" on="0"/>
        <pt x="35" y="763" on="0"/>
        <pt x="46" y="765" on="1"/>
        <pt x="57" y="767" on="0"/>
        <pt x="80" y="754" on="0"/>
        <pt x="86" y="743" on="1"/>
        <pt x="99" y="716" on="0"/>
        <pt x="137" y="622" on="0"/>
        <pt x="174" y="521" on="0"/>
        <pt x="206" y="426" on="0"/>
      </contour>
    </TTGlyph>
    <TTGlyph name="bar" xMin="61" yMin="-11" xMax="178" yMax="764">
      <contour>
        <pt x="145" y="395" on="1"/>
        <pt x="145" y="376" on="0"/>
        <pt x="150" y="306" on="0"/>
        <pt x="157" y="223" on="0"/>
        <pt x="166" y="136" on="0"/>
        <pt x="173" y="65" on="0"/>
        <pt x="178" y="18" on="0"/>
        <pt x="178" y="17" on="1"/>
        <pt x="178" y="6" on="0"/>
        <pt x="163" y="-9" on="0"/>
        <pt x="150" y="-11" on="1"/>
        <pt x="139" y="-11" on="0"/>
        <pt x="124" y="3" on="0"/>
        <pt x="122" y="14" on="1"/>
        <pt x="122" y="17" on="0"/>
        <pt x="117" y="65" on="0"/>
        <pt x="109" y="136" on="0"/>
        <pt x="101" y="222" on="0"/>
        <pt x="94" y="305" on="0"/>
        <pt x="89" y="375" on="0"/>
        <pt x="89" y="395" on="1"/>
        <pt x="89" y="426" on="0"/>
        <pt x="84" y="520" on="0"/>
        <pt x="76" y="619" on="0"/>
        <pt x="66" y="709" on="0"/>
        <pt x="61" y="736" on="1"/>
        <pt x="61" y="758" on="0"/>
        <pt x="90" y="764" on="1"/>
        <pt x="100" y="764" on="0"/>
        <pt x="115" y="751" on="0"/>
        <pt x="117" y="741" on="1"/>
        <pt x="123" y="714" on="0"/>
        <pt x="133" y="620" on="0"/>
        <pt x="140" y="518" on="0"/>
        <pt x="145" y="423" on="0"/>
      </contour>
    </TTGlyph>
    <TTGlyph name="braceleft" xMin="61" yMin="-22" xMax="293" yMax="753">
      <contour>
        <pt x="265" y="35" on="1"/>
        <pt x="276" y="35" on="0"/>
        <pt x="292" y="19" on="0"/>
        <pt x="293" y="7" on="1"/>
        <pt x="293" y="-4" on="0"/>
        <pt x="277" y="-21" on="0"/>
        <pt x="266" y="-21" on="1"/>
        <pt x="262" y="-22" on="0"/>
        <pt x="255" y="-22" on="1"/>
        <pt x="202" y="-22" on="0"/>
        <pt x="142" y="23" on="0"/>
        <pt x="112" y="92" on="0"/>
        <pt x="104" y="173" on="0"/>
        <pt x="103" y="210" on="1"/>
        <pt x="102" y="232" on="0"/>
        <pt x="99" y="277" on="0"/>
        <pt x="92" y="316" on="0"/>
        <pt x="80" y="348" on="0"/>
        <pt x="70" y="358" on="1"/>
        <pt x="64" y="366" on="1"/>
        <pt x="63" y="367" on="0"/>
        <pt x="61" y="377" on="1"/>
        <pt x="61" y="378" on="0"/>
        <pt x="62" y="381" on="0"/>
        <pt x="63" y="388" on="1"/>
        <pt x="64" y="389" on="0"/>
        <pt x="65" y="391" on="0"/>
        <pt x="69" y="397" on="1"/>
        <pt x="70" y="398" on="0"/>
        <pt x="72" y="399" on="0"/>
        <pt x="78" y="403" on="1"/>
        <pt x="101" y="414" on="0"/>
        <pt x="101" y="456" on="1"/>
        <pt x="101" y="470" on="0"/>
        <pt x="97" y="504" on="0"/>
        <pt x="94" y="524" on="1"/>
        <pt x="92" y="544" on="0"/>
        <pt x="87" y="585" on="0"/>
        <pt x="87" y="605" on="1"/>
        <pt x="87" y="632" on="0"/>
        <pt x="100" y="683" on="0"/>
        <pt x="117" y="704" on="1"/>
        <pt x="156" y="749" on="0"/>
        <pt x="242" y="753" on="1"/>
        <pt x="253" y="753" on="0"/>
        <pt x="270" y="737" on="0"/>
        <pt x="271" y="725" on="1"/>
        <pt x="271" y="714" on="0"/>
        <pt x="255" y="698" on="0"/>
        <pt x="244" y="697" on="1"/>
        <pt x="183" y="694" on="0"/>
        <pt x="160" y="668" on="1"/>
        <pt x="150" y="656" on="0"/>
        <pt x="143" y="624" on="0"/>
        <pt x="143" y="605" on="1"/>
        <pt x="143" y="588" on="0"/>
        <pt x="147" y="551" on="0"/>
        <pt x="150" y="531" on="1"/>
        <pt x="152" y="513" on="0"/>
        <pt x="156" y="475" on="0"/>
        <pt x="156" y="457" on="1"/>
        <pt x="156" y="432" on="0"/>
        <pt x="145" y="389" on="0"/>
        <pt x="129" y="372" on="1"/>
        <pt x="147" y="340" on="0"/>
        <pt x="156" y="256" on="0"/>
        <pt x="158" y="213" on="1"/>
        <pt x="160" y="167" on="0"/>
        <pt x="169" y="99" on="0"/>
        <pt x="191" y="56" on="0"/>
        <pt x="230" y="35" on="0"/>
        <pt x="263" y="35" on="1"/>
      </contour>
    </TTGlyph>
    <TTGlyph name="braceright" xMin="26" yMin="1" xMax="277" yMax="775">
      <contour>
        <pt x="256" y="243" on="1"/>
        <pt x="258" y="214" on="0"/>
        <pt x="262" y="155" on="0"/>
        <pt x="259" y="128" on="1"/>
        <pt x="256" y="102" on="0"/>
        <pt x="241" y="58" on="0"/>
        <pt x="224" y="41" on="1"/>
        <pt x="190" y="2" on="0"/>
        <pt x="117" y="1" on="1"/>
        <pt x="106" y="3" on="0"/>
        <pt x="92" y="18" on="0"/>
        <pt x="92" y="32" on="1"/>
        <pt x="94" y="43" on="0"/>
        <pt x="109" y="57" on="0"/>
        <pt x="120" y="57" on="1"/>
        <pt x="163" y="57" on="0"/>
        <pt x="183" y="78" on="1"/>
        <pt x="192" y="88" on="0"/>
        <pt x="201" y="117" on="0"/>
        <pt x="203" y="134" on="1"/>
        <pt x="205" y="157" on="0"/>
        <pt x="203" y="211" on="0"/>
        <pt x="201" y="239" on="1"/>
        <pt x="199" y="268" on="0"/>
        <pt x="196" y="324" on="0"/>
        <pt x="198" y="350" on="1"/>
        <pt x="201" y="378" on="0"/>
        <pt x="210" y="400" on="1"/>
        <pt x="195" y="413" on="0"/>
        <pt x="178" y="449" on="0"/>
        <pt x="170" y="491" on="0"/>
        <pt x="170" y="535" on="0"/>
        <pt x="170" y="557" on="1"/>
        <pt x="170" y="577" on="0"/>
        <pt x="169" y="616" on="0"/>
        <pt x="164" y="652" on="0"/>
        <pt x="153" y="682" on="0"/>
        <pt x="142" y="693" on="1"/>
        <pt x="123" y="714" on="0"/>
        <pt x="83" y="717" on="1"/>
        <pt x="76" y="718" on="0"/>
        <pt x="61" y="719" on="0"/>
        <pt x="51" y="719" on="1"/>
        <pt x="40" y="720" on="0"/>
        <pt x="26" y="736" on="0"/>
        <pt x="26" y="750" on="1"/>
        <pt x="27" y="761" on="0"/>
        <pt x="42" y="774" on="0"/>
        <pt x="53" y="775" on="1"/>
        <pt x="63" y="775" on="0"/>
        <pt x="80" y="774" on="0"/>
        <pt x="88" y="773" on="1"/>
        <pt x="148" y="767" on="0"/>
        <pt x="182" y="733" on="1"/>
        <pt x="199" y="716" on="0"/>
        <pt x="217" y="674" on="0"/>
        <pt x="225" y="628" on="0"/>
        <pt x="226" y="579" on="0"/>
        <pt x="226" y="556" on="1"/>
        <pt x="225" y="505" on="0"/>
        <pt x="235" y="444" on="0"/>
        <pt x="259" y="435" on="1"/>
        <pt x="260" y="434" on="1"/>
        <pt x="268" y="430" on="1"/>
        <pt x="268" y="429" on="0"/>
        <pt x="270" y="426" on="0"/>
        <pt x="274" y="421" on="1"/>
        <pt x="275" y="420" on="0"/>
        <pt x="275" y="417" on="0"/>
        <pt x="277" y="411" on="1"/>
        <pt x="277" y="410" on="0"/>
        <pt x="277" y="407" on="0"/>
        <pt x="275" y="400" on="1"/>
        <pt x="270" y="391" on="1"/>
        <pt x="257" y="375" on="0"/>
        <pt x="254" y="344" on="1"/>
        <pt x="252" y="322" on="0"/>
        <pt x="254" y="270" on="0"/>
      </contour>
    </TTGlyph>
    <TTGlyph name="bracketleft" xMin="41" yMin="-33" xMax="313" yMax="773">
      <contour>
        <pt x="285" y="40" on="1"/>
        <pt x="296" y="40" on="0"/>
        <pt x="312" y="24" on="0"/>
        <pt x="313" y="12" on="1"/>
        <pt x="313" y="1" on="0"/>
        <pt x="297" y="-15" on="0"/>
        <pt x="286" y="-16" on="1"/>
        <pt x="258" y="-18" on="0"/>
        <pt x="205" y="-23" on="0"/>
        <pt x="162" y="-29" on="0"/>
        <pt x="133" y="-33" on="0"/>
        <pt x="130" y="-33" on="1"/>
        <pt x="119" y="-33" on="0"/>
        <pt x="103" y="-17" on="0"/>
        <pt x="102" y="0" on="1"/>
        <pt x="101" y="3" on="0"/>
        <pt x="96" y="51" on="0"/>
        <pt x="89" y="122" on="0"/>
        <pt x="81" y="208" on="0"/>
        <pt x="74" y="291" on="0"/>
        <pt x="69" y="361" on="0"/>
        <pt x="69" y="381" on="1"/>
        <pt x="69" y="412" on="0"/>
        <pt x="64" y="506" on="0"/>
        <pt x="56" y="605" on="0"/>
        <pt x="46" y="695" on="0"/>
        <pt x="41" y="722" on="1"/>
        <pt x="41" y="732" on="0"/>
        <pt x="55" y="748" on="0"/>
        <pt x="69" y="750" on="1"/>
        <pt x="74" y="750" on="0"/>
        <pt x="80" y="748" on="1"/>
        <pt x="88" y="754" on="0"/>
        <pt x="95" y="755" on="1"/>
        <pt x="99" y="728" on="1"/>
        <pt x="95" y="755" on="1"/>
        <pt x="98" y="756" on="0"/>
        <pt x="127" y="760" on="0"/>
        <pt x="171" y="766" on="0"/>
        <pt x="226" y="771" on="0"/>
        <pt x="255" y="773" on="1"/>
        <pt x="266" y="773" on="0"/>
        <pt x="282" y="757" on="0"/>
        <pt x="282" y="745" on="1"/>
        <pt x="282" y="734" on="0"/>
        <pt x="267" y="718" on="0"/>
        <pt x="256" y="717" on="1"/>
        <pt x="228" y="715" on="0"/>
        <pt x="175" y="710" on="0"/>
        <pt x="131" y="704" on="0"/>
        <pt x="103" y="700" on="0"/>
        <pt x="101" y="700" on="1"/>
        <pt x="106" y="667" on="0"/>
        <pt x="115" y="579" on="0"/>
        <pt x="121" y="489" on="0"/>
        <pt x="125" y="407" on="0"/>
        <pt x="125" y="381" on="1"/>
        <pt x="125" y="365" on="0"/>
        <pt x="128" y="309" on="0"/>
        <pt x="134" y="242" on="0"/>
        <pt x="141" y="168" on="0"/>
        <pt x="147" y="101" on="0"/>
        <pt x="153" y="44" on="0"/>
        <pt x="155" y="27" on="1"/>
        <pt x="178" y="30" on="0"/>
        <pt x="246" y="38" on="0"/>
        <pt x="283" y="40" on="1"/>
      </contour>
    </TTGlyph>
    <TTGlyph name="bracketright" xMin="0" yMin="-5" xMax="350" yMax="781">
      <contour>
        <pt x="348" y="42" on="1"/>
        <pt x="350" y="39" on="0"/>
        <pt x="350" y="31" on="1"/>
        <pt x="350" y="20" on="0"/>
        <pt x="333" y="3" on="0"/>
        <pt x="318" y="3" on="1"/>
        <pt x="312" y="3" on="0"/>
        <pt x="282" y="3" on="0"/>
        <pt x="241" y="1" on="0"/>
        <pt x="191" y="-2" on="0"/>
        <pt x="166" y="-5" on="1"/>
        <pt x="155" y="-5" on="0"/>
        <pt x="139" y="10" on="0"/>
        <pt x="138" y="23" on="1"/>
        <pt x="138" y="34" on="0"/>
        <pt x="152" y="49" on="0"/>
        <pt x="163" y="51" on="1"/>
        <pt x="199" y="55" on="0"/>
        <pt x="267" y="58" on="0"/>
        <pt x="290" y="59" on="1"/>
        <pt x="288" y="76" on="0"/>
        <pt x="281" y="133" on="0"/>
        <pt x="272" y="200" on="0"/>
        <pt x="262" y="272" on="0"/>
        <pt x="252" y="338" on="0"/>
        <pt x="243" y="393" on="0"/>
        <pt x="239" y="409" on="1"/>
        <pt x="233" y="434" on="0"/>
        <pt x="218" y="515" on="0"/>
        <pt x="202" y="605" on="0"/>
        <pt x="187" y="693" on="0"/>
        <pt x="181" y="725" on="1"/>
        <pt x="168" y="725" on="0"/>
        <pt x="80" y="723" on="0"/>
        <pt x="28" y="717" on="1"/>
        <pt x="17" y="717" on="0"/>
        <pt x="2" y="732" on="0"/>
        <pt x="0" y="745" on="1"/>
        <pt x="0" y="756" on="0"/>
        <pt x="14" y="772" on="0"/>
        <pt x="25" y="773" on="1"/>
        <pt x="51" y="776" on="0"/>
        <pt x="101" y="779" on="0"/>
        <pt x="145" y="781" on="0"/>
        <pt x="177" y="781" on="0"/>
        <pt x="185" y="781" on="1"/>
        <pt x="193" y="781" on="0"/>
        <pt x="201" y="776" on="1"/>
        <pt x="208" y="781" on="0"/>
        <pt x="216" y="781" on="1"/>
        <pt x="227" y="781" on="0"/>
        <pt x="243" y="765" on="0"/>
        <pt x="244" y="754" on="1"/>
        <pt x="245" y="729" on="0"/>
        <pt x="255" y="641" on="0"/>
        <pt x="270" y="544" on="0"/>
        <pt x="286" y="451" on="0"/>
        <pt x="293" y="421" on="1"/>
        <pt x="298" y="402" on="0"/>
        <pt x="309" y="332" on="0"/>
        <pt x="322" y="250" on="0"/>
        <pt x="333" y="164" on="0"/>
        <pt x="342" y="94" on="0"/>
        <pt x="348" y="46" on="0"/>
        <pt x="348" y="43" on="1"/>
      </contour>
    </TTGlyph>
    <TTGlyph name="breve" xMin="227" yMin="530" xMax="490" yMax="675">
      <contour>
        <pt x="464" y="675" on="1"/>
        <pt x="475" y="674" on="0"/>
        <pt x="490" y="658" on="0"/>
        <pt x="490" y="645" on="1"/>
        <pt x="490" y="643" on="0"/>
        <pt x="486" y="622" on="0"/>
        <pt x="476" y="595" on="0"/>
        <pt x="458" y="565" on="0"/>
        <pt x="442" y="553" on="1"/>
        <pt x="428" y="541" on="0"/>
        <pt x="393" y="530" on="0"/>
        <pt x="373" y="530" on="1"/>
        <pt x="367" y="530" on="0"/>
        <pt x="354" y="530" on="0"/>
        <pt x="347" y="532" on="1"/>
        <pt x="310" y="538" on="0"/>
        <pt x="265" y="553" on="0"/>
        <pt x="239" y="577" on="0"/>
        <pt x="229" y="610" on="0"/>
        <pt x="228" y="633" on="1"/>
        <pt x="227" y="647" on="1"/>
        <pt x="227" y="658" on="0"/>
        <pt x="242" y="674" on="0"/>
        <pt x="255" y="675" on="1"/>
        <pt x="266" y="675" on="0"/>
        <pt x="282" y="660" on="0"/>
        <pt x="283" y="649" on="1"/>
        <pt x="284" y="636" on="1"/>
        <pt x="285" y="624" on="0"/>
        <pt x="288" y="608" on="0"/>
        <pt x="301" y="598" on="0"/>
        <pt x="330" y="591" on="0"/>
        <pt x="356" y="587" on="1"/>
        <pt x="361" y="586" on="0"/>
        <pt x="368" y="586" on="0"/>
        <pt x="373" y="586" on="1"/>
        <pt x="394" y="586" on="0"/>
        <pt x="407" y="596" on="1"/>
        <pt x="416" y="603" on="0"/>
        <pt x="426" y="621" on="0"/>
        <pt x="432" y="638" on="0"/>
        <pt x="433" y="644" on="1"/>
        <pt x="434" y="650" on="1"/>
        <pt x="435" y="661" on="0"/>
        <pt x="452" y="675" on="0"/>
      </contour>
    </TTGlyph>
    <TTGlyph name="brokenbar" xMin="82" yMin="-19" xMax="199" yMax="756">
      <contour>
        <pt x="137" y="401" on="1"/>
        <pt x="126" y="400" on="0"/>
        <pt x="110" y="416" on="0"/>
        <pt x="109" y="428" on="1"/>
        <pt x="108" y="462" on="0"/>
        <pt x="103" y="547" on="0"/>
        <pt x="95" y="631" on="0"/>
        <pt x="86" y="705" on="0"/>
        <pt x="82" y="728" on="1"/>
        <pt x="82" y="738" on="0"/>
        <pt x="96" y="754" on="0"/>
        <pt x="110" y="756" on="1"/>
        <pt x="120" y="756" on="0"/>
        <pt x="135" y="744" on="0"/>
        <pt x="137" y="734" on="1"/>
        <pt x="141" y="711" on="0"/>
        <pt x="151" y="637" on="0"/>
        <pt x="158" y="552" on="0"/>
        <pt x="164" y="465" on="0"/>
        <pt x="165" y="429" on="1"/>
        <pt x="165" y="418" on="0"/>
        <pt x="149" y="401" on="0"/>
      </contour>
      <contour>
        <pt x="170" y="311" on="1"/>
        <pt x="173" y="267" on="0"/>
        <pt x="183" y="164" on="0"/>
        <pt x="192" y="73" on="0"/>
        <pt x="199" y="11" on="0"/>
        <pt x="199" y="9" on="1"/>
        <pt x="199" y="-2" on="0"/>
        <pt x="184" y="-17" on="0"/>
        <pt x="171" y="-19" on="1"/>
        <pt x="160" y="-19" on="0"/>
        <pt x="144" y="-5" on="0"/>
        <pt x="143" y="6" on="1"/>
        <pt x="143" y="7" on="0"/>
        <pt x="136" y="68" on="0"/>
        <pt x="127" y="159" on="0"/>
        <pt x="117" y="264" on="0"/>
        <pt x="114" y="309" on="1"/>
        <pt x="114" y="320" on="0"/>
        <pt x="129" y="336" on="0"/>
        <pt x="142" y="337" on="1"/>
        <pt x="153" y="337" on="0"/>
        <pt x="169" y="322" on="0"/>
      </contour>
    </TTGlyph>
    <TTGlyph name="bullet" xMin="36" yMin="206" xMax="196" yMax="391">
      <contour>
        <pt x="127" y="391" on="1"/>
        <pt x="146" y="390" on="0"/>
        <pt x="172" y="375" on="0"/>
        <pt x="188" y="351" on="0"/>
        <pt x="196" y="323" on="0"/>
        <pt x="196" y="308" on="1"/>
        <pt x="196" y="285" on="0"/>
        <pt x="189" y="268" on="1"/>
        <pt x="178" y="238" on="0"/>
        <pt x="129" y="206" on="0"/>
        <pt x="104" y="206" on="1"/>
        <pt x="92" y="206" on="0"/>
        <pt x="68" y="221" on="0"/>
        <pt x="48" y="247" on="0"/>
        <pt x="36" y="279" on="0"/>
        <pt x="36" y="297" on="1"/>
        <pt x="36" y="314" on="0"/>
        <pt x="45" y="348" on="0"/>
        <pt x="66" y="375" on="0"/>
        <pt x="101" y="391" on="0"/>
      </contour>
    </TTGlyph>
    <TTGlyph name="c" xMin="51" yMin="-20" xMax="396" yMax="583">
      <contour>
        <pt x="327" y="56" on="1"/>
        <pt x="334" y="60" on="0"/>
        <pt x="343" y="60" on="1"/>
        <pt x="358" y="60" on="0"/>
        <pt x="366" y="48" on="1"/>
        <pt x="371" y="40" on="0"/>
        <pt x="371" y="32" on="1"/>
        <pt x="371" y="19" on="0"/>
        <pt x="358" y="9" on="1"/>
        <pt x="351" y="4" on="1"/>
        <pt x="343" y="-1" on="0"/>
        <pt x="317" y="-11" on="0"/>
        <pt x="284" y="-20" on="0"/>
        <pt x="265" y="-20" on="1"/>
        <pt x="241" y="-20" on="0"/>
        <pt x="173" y="9" on="0"/>
        <pt x="108" y="78" on="0"/>
        <pt x="58" y="191" on="0"/>
        <pt x="52" y="274" on="1"/>
        <pt x="51" y="280" on="0"/>
        <pt x="51" y="291" on="0"/>
        <pt x="51" y="297" on="1"/>
        <pt x="51" y="362" on="0"/>
        <pt x="98" y="466" on="0"/>
        <pt x="164" y="539" on="0"/>
        <pt x="235" y="580" on="0"/>
        <pt x="260" y="582" on="1"/>
        <pt x="265" y="583" on="0"/>
        <pt x="276" y="583" on="0"/>
        <pt x="281" y="583" on="1"/>
        <pt x="310" y="583" on="0"/>
        <pt x="353" y="572" on="0"/>
        <pt x="361" y="568" on="1"/>
        <pt x="372" y="566" on="0"/>
        <pt x="396" y="539" on="0"/>
        <pt x="396" y="501" on="1"/>
        <pt x="396" y="489" on="0"/>
        <pt x="379" y="473" on="0"/>
        <pt x="368" y="473" on="1"/>
        <pt x="356" y="473" on="0"/>
        <pt x="340" y="489" on="0"/>
        <pt x="340" y="501" on="1"/>
        <pt x="340" y="509" on="0"/>
        <pt x="338" y="517" on="1"/>
        <pt x="332" y="519" on="0"/>
        <pt x="302" y="527" on="0"/>
        <pt x="281" y="527" on="1"/>
        <pt x="277" y="527" on="0"/>
        <pt x="270" y="527" on="0"/>
        <pt x="265" y="526" on="1"/>
        <pt x="249" y="524" on="0"/>
        <pt x="196" y="492" on="0"/>
        <pt x="145" y="433" on="0"/>
        <pt x="107" y="349" on="0"/>
        <pt x="107" y="296" on="1"/>
        <pt x="107" y="291" on="0"/>
        <pt x="107" y="283" on="0"/>
        <pt x="108" y="278" on="1"/>
        <pt x="112" y="210" on="0"/>
        <pt x="150" y="118" on="0"/>
        <pt x="199" y="61" on="0"/>
        <pt x="248" y="36" on="0"/>
        <pt x="265" y="36" on="1"/>
        <pt x="277" y="36" on="0"/>
        <pt x="299" y="42" on="0"/>
        <pt x="317" y="49" on="0"/>
        <pt x="322" y="53" on="1"/>
      </contour>
    </TTGlyph>
    <TTGlyph name="caron" xMin="190" yMin="462" xMax="527" yMax="641">
      <contour>
        <pt x="488" y="641" on="0"/>
        <pt x="499" y="641" on="1"/>
        <pt x="511" y="641" on="0"/>
        <pt x="518" y="634" on="1"/>
        <pt x="527" y="625" on="0"/>
        <pt x="527" y="613" on="1"/>
        <pt x="527" y="602" on="0"/>
        <pt x="519" y="594" on="1"/>
        <pt x="457" y="529" on="1"/>
        <pt x="391" y="470" on="1"/>
        <pt x="383" y="462" on="0"/>
        <pt x="373" y="462" on="1"/>
        <pt x="366" y="462" on="0"/>
        <pt x="362" y="465" on="1"/>
        <pt x="353" y="465" on="0"/>
        <pt x="345" y="470" on="1"/>
        <pt x="273" y="527" on="1"/>
        <pt x="201" y="584" on="1"/>
        <pt x="190" y="593" on="0"/>
        <pt x="190" y="606" on="1"/>
        <pt x="190" y="615" on="0"/>
        <pt x="196" y="623" on="1"/>
        <pt x="205" y="634" on="0"/>
        <pt x="218" y="634" on="1"/>
        <pt x="228" y="634" on="0"/>
        <pt x="236" y="628" on="1"/>
        <pt x="307" y="571" on="1"/>
        <pt x="368" y="524" on="1"/>
        <pt x="418" y="570" on="1"/>
        <pt x="478" y="633" on="1"/>
      </contour>
    </TTGlyph>
</ttFont>
